<svg width="84" height="30" viewBox="0 0 84 30" fill="none" xmlns="http://www.w3.org/2000/svg">
<ellipse cx="42" cy="16" rx="40" ry="8" stroke="#AF9CC9" stroke-width="3" stroke-linecap="round" stroke-linejoin="round"/>
<rect width="44" height="16" transform="translate(21)" fill="white"/>
<path d="M30.0913 13.256C28.5766 13.256 27.4246 12.904 26.6353 12.2C25.8246 11.4853 25.4193 10.488 25.4193 9.208H27.9633C28.038 10.5307 28.71 11.192 29.9793 11.192C30.5233 11.192 30.9446 11.0587 31.2433 10.792C31.542 10.5147 31.6913 10.1413 31.6913 9.672C31.6913 8.712 31.0673 8.232 29.8193 8.232H29.1633V6.36H29.7553C30.278 6.36 30.6886 6.248 30.9873 6.024C31.2966 5.8 31.4513 5.48533 31.4513 5.08C31.4513 4.696 31.3233 4.392 31.0673 4.168C30.8113 3.944 30.4593 3.832 30.0113 3.832C29.4566 3.832 29.0353 3.98667 28.7473 4.296C28.4593 4.60533 28.2993 5.01067 28.2673 5.512H25.7553C25.7766 4.40267 26.1606 3.512 26.9073 2.84C27.6646 2.15733 28.71 1.816 30.0433 1.816C31.27 1.816 32.2513 2.09333 32.9873 2.648C33.734 3.192 34.1073 3.944 34.1073 4.904C34.1073 5.928 33.5526 6.65867 32.4433 7.096V7.128C33.766 7.53333 34.4273 8.42933 34.4273 9.816C34.4273 10.936 34.0113 11.7893 33.1793 12.376C32.358 12.9627 31.3286 13.256 30.0913 13.256ZM39.9894 13.256C38.4321 13.256 37.2428 12.7387 36.4214 11.704C35.6001 10.6693 35.1841 9.304 35.1734 7.608C35.1521 5.70933 35.5948 4.248 36.5014 3.224C37.3228 2.28533 38.4801 1.816 39.9734 1.816C41.0934 1.816 42.0054 2.07733 42.7094 2.6C43.4134 3.12267 43.8508 3.83733 44.0214 4.744H41.4454C41.2428 4.072 40.7628 3.736 40.0054 3.736C39.3441 3.736 38.8268 3.976 38.4534 4.456C38.0908 4.936 37.8881 5.61867 37.8454 6.504H37.8774C38.5388 5.81067 39.3761 5.464 40.3894 5.464C41.4774 5.464 42.4054 5.82667 43.1734 6.552C43.9521 7.27733 44.3414 8.21067 44.3414 9.352C44.3414 10.5147 43.9308 11.4587 43.1094 12.184C42.2988 12.8987 41.2588 13.256 39.9894 13.256ZM38.5174 10.712C38.8801 11.064 39.3388 11.24 39.8934 11.24C40.4481 11.24 40.9014 11.064 41.2534 10.712C41.6054 10.36 41.7814 9.912 41.7814 9.368C41.7814 8.824 41.6001 8.37067 41.2374 8.008C40.8854 7.63467 40.4374 7.448 39.8934 7.448C39.3174 7.448 38.8534 7.62933 38.5014 7.992C38.1601 8.344 37.9894 8.80267 37.9894 9.368C37.9894 9.912 38.1654 10.36 38.5174 10.712ZM49.8961 11.144C51.2721 11.144 51.9601 9.93867 51.9601 7.528C51.9601 6.408 51.7894 5.52267 51.4481 4.872C51.1174 4.22133 50.6001 3.896 49.8961 3.896C49.1921 3.896 48.6694 4.22133 48.3281 4.872C47.9867 5.512 47.8161 6.39733 47.8161 7.528C47.8161 8.65867 47.9867 9.544 48.3281 10.184C48.6694 10.824 49.1921 11.144 49.8961 11.144ZM49.8801 13.256C48.4401 13.256 47.2721 12.7333 46.3761 11.688C45.4907 10.6427 45.0481 9.256 45.0481 7.528C45.0481 5.78933 45.4907 4.40267 46.3761 3.368C47.2721 2.32267 48.4454 1.8 49.8961 1.8C51.3681 1.8 52.5414 2.32267 53.4161 3.368C54.3014 4.40267 54.7441 5.78933 54.7441 7.528C54.7441 9.26667 54.2961 10.6587 53.4001 11.704C52.5147 12.7387 51.3414 13.256 49.8801 13.256ZM57.0127 5.032C57.2154 5.24533 57.482 5.352 57.8127 5.352C58.1434 5.352 58.4047 5.24533 58.5967 5.032C58.7994 4.808 58.9007 4.536 58.9007 4.216C58.9007 3.896 58.7994 3.624 58.5967 3.4C58.394 3.16533 58.1327 3.048 57.8127 3.048C57.482 3.048 57.2154 3.16533 57.0127 3.4C56.8207 3.624 56.7247 3.896 56.7247 4.216C56.7247 4.536 56.8207 4.808 57.0127 5.032ZM59.5727 5.912C59.082 6.37067 58.4954 6.6 57.8127 6.6C57.13 6.6 56.5434 6.37067 56.0527 5.912C55.562 5.45333 55.3167 4.888 55.3167 4.216C55.3167 3.544 55.562 2.97333 56.0527 2.504C56.5434 2.03467 57.13 1.8 57.8127 1.8C58.4847 1.8 59.066 2.03467 59.5567 2.504C60.058 2.97333 60.3087 3.544 60.3087 4.216C60.3087 4.888 60.0634 5.45333 59.5727 5.912Z" fill="#7F67A1"/>
<path d="M44 28L40 24L44 20" stroke="#AF9CC9" stroke-width="3" stroke-linecap="round" stroke-linejoin="round"/>
</svg>
