<svg width="41" height="40" viewBox="0 0 41 40" fill="none" xmlns="http://www.w3.org/2000/svg">
<rect x="0.5" width="40" height="40" rx="20" fill="#F2EFF6"/>
<path d="M12.5 21.9999C12.3108 22.0006 12.1252 21.9475 11.9649 21.8469C11.8047 21.7463 11.6762 21.6023 11.5945 21.4316C11.5129 21.2609 11.4813 21.0705 11.5035 20.8826C11.5257 20.6946 11.6008 20.5169 11.72 20.3699L21.62 10.1699C21.6943 10.0842 21.7955 10.0263 21.907 10.0057C22.0185 9.98503 22.1337 10.0029 22.2337 10.0564C22.3337 10.1099 22.4126 10.1958 22.4573 10.3C22.5021 10.4042 22.5101 10.5206 22.48 10.6299L20.56 16.6499C20.5034 16.8014 20.4844 16.9644 20.5046 17.1249C20.5248 17.2854 20.5837 17.4386 20.6761 17.5713C20.7685 17.7041 20.8918 17.8124 21.0353 17.8871C21.1788 17.9617 21.3382 18.0004 21.5 17.9999H28.5C28.6892 17.9993 28.8748 18.0523 29.035 18.1529C29.1953 18.2535 29.3238 18.3976 29.4054 18.5683C29.4871 18.739 29.5187 18.9293 29.4965 19.1173C29.4743 19.3052 29.3992 19.483 29.28 19.6299L19.38 29.8299C19.3057 29.9156 19.2045 29.9736 19.093 29.9942C18.9815 30.0148 18.8663 29.9969 18.7663 29.9434C18.6663 29.8899 18.5874 29.804 18.5427 29.6998C18.4979 29.5956 18.4899 29.4793 18.52 29.3699L20.44 23.3499C20.4966 23.1984 20.5156 23.0354 20.4954 22.8749C20.4752 22.7144 20.4163 22.5612 20.3239 22.4285C20.2315 22.2957 20.1082 22.1874 19.9647 22.1128C19.8212 22.0381 19.6617 21.9994 19.5 21.9999H12.5Z" stroke="#9D86BD" stroke-width="2" stroke-linecap="round" stroke-linejoin="round"/>
</svg>
