<svg width="40" height="40" viewBox="0 0 40 40" fill="none" xmlns="http://www.w3.org/2000/svg">
<rect width="40" height="40" rx="20" fill="#F2EFF6"/>
<path d="M14.5 16C14.0672 16.0045 13.6476 16.1492 13.3041 16.4125C12.9606 16.6757 12.7118 17.0433 12.595 17.46L10.1 26.5C10.0244 26.7926 10.0161 27.0985 10.0757 27.3947C10.1352 27.691 10.2612 27.9699 10.4441 28.2105C10.6269 28.4511 10.8619 28.6471 11.1314 28.7839C11.4009 28.9206 11.6978 28.9945 12 29H28C28.3086 28.9999 28.6131 28.9283 28.8895 28.7909C29.1659 28.6535 29.4068 28.454 29.5932 28.208C29.7796 27.962 29.9066 27.6762 29.9642 27.3729C30.0217 27.0697 30.0083 26.7572 29.925 26.46L27.4 17.5C27.2898 17.0734 27.0419 16.6951 26.6947 16.4239C26.3476 16.1526 25.9205 16.0036 25.48 16H14.5Z" stroke="#9D86BD" stroke-width="2" stroke-miterlimit="10" stroke-linejoin="round"/>
<path d="M20 16C21.6569 16 23 14.6569 23 13C23 11.3431 21.6569 10 20 10C18.3431 10 17 11.3431 17 13C17 14.6569 18.3431 16 20 16Z" stroke="#9D86BD" stroke-width="2" stroke-miterlimit="10" stroke-linejoin="round"/>
</svg>
