<svg width="20" height="20" viewBox="0 0 20 20" fill="none" xmlns="http://www.w3.org/2000/svg">
<g clip-path="url(#clip0_1_4724)">
<mask id="mask0_1_4724" style="mask-type:luminance" maskUnits="userSpaceOnUse" x="-4" y="-4" width="28" height="28">
<path d="M-4 -3.99999H24V24H-4V-3.99999Z" fill="white"/>
</mask>
<g mask="url(#mask0_1_4724)">
<path d="M20 9.99999C20 4.47716 15.5228 1.90735e-06 10 1.90735e-06C4.47716 1.90735e-06 0 4.47716 0 9.99999C0 14.6898 3.2286 18.6249 7.58424 19.7055V13.0558H5.52216V9.99999H7.58424V8.68323C7.58424 5.27956 9.12456 3.70196 12.4662 3.70196C13.0997 3.70196 14.1928 3.82616 14.64 3.9504V6.72056C14.404 6.69572 13.9941 6.68328 13.4848 6.68328C11.845 6.68328 11.2115 7.3044 11.2115 8.91927V9.99999H14.4778L13.9167 13.0558H11.2115V19.9267C16.1629 19.3287 20 15.1127 20 9.99999Z" fill="#0866FF"/>
<path d="M13.9167 13.0558L14.4779 10H11.2115V8.91925C11.2115 7.30437 11.845 6.68329 13.4848 6.68329C13.9941 6.68329 14.404 6.69569 14.64 6.72053V3.95041C14.1928 3.82617 13.0997 3.70193 12.4662 3.70193C9.1246 3.70193 7.58424 5.27957 7.58424 8.68325V10H5.52216V13.0558H7.58424V19.7055C8.35796 19.8974 9.16696 20 10 20C10.4102 20 10.8143 19.9747 11.2115 19.9268V13.0558H13.9167Z" fill="white"/>
</g>
</g>
<defs>
<clipPath id="clip0_1_4724">
<rect width="20" height="20" fill="white"/>
</clipPath>
</defs>
</svg>
