<svg width="40" height="40" viewBox="0 0 40 40" fill="none" xmlns="http://www.w3.org/2000/svg">
<rect width="40" height="40" rx="8" fill="white"/>
<path d="M26.3976 6.879C26.3976 7.91671 25.6456 8.758 24.7181 8.758C23.7906 8.758 23.0386 7.91671 23.0386 6.879C23.0386 5.84129 23.7906 5 24.7181 5C25.6456 5 26.3976 5.84129 26.3976 6.879Z" fill="#9D86BD"/>
<path d="M20.1834 9.90174C21.3892 9.90174 22.3668 8.84106 22.3668 7.53257C22.3668 6.22408 21.3892 5.16339 20.1834 5.16339C18.9775 5.16339 18 6.22408 18 7.53257C18 8.84106 18.9775 9.90174 20.1834 9.90174Z" fill="#9D86BD"/>
<path d="M24.7181 28.9369C27.9932 28.5264 29.8417 25.0159 31.6052 18.3168C33.3687 11.6178 27.6583 9.57536 25.3909 9.49367C23.1235 9.41197 20.2925 9.78183 19.9319 12.353C19.6679 14.2355 20.2792 15.6026 20.849 16.8768C21.3669 18.0355 21.8506 19.1175 21.611 20.4405C21.4921 21.0973 21.1294 21.6426 20.7438 22.2222C20.1929 23.0504 19.5956 23.9485 19.5956 25.3422C19.5956 27.7114 21.443 29.3473 24.7181 28.9369Z" fill="#9D86BD"/>
<path d="M28.4131 9.57496C29.2479 9.57496 29.9246 8.80683 29.9246 7.85935C29.9246 6.91187 29.2479 6.14374 28.4131 6.14374C27.5782 6.14374 26.9015 6.91187 26.9015 7.85935C26.9015 8.80683 27.5782 9.57496 28.4131 9.57496Z" fill="#9D86BD"/>
<path d="M32.5689 10.0556C32.3529 10.84 31.633 11.334 30.9611 11.1588C30.2891 10.9837 29.9194 10.2057 30.1356 9.42122C30.3516 8.63674 31.0714 8.14281 31.7434 8.31793C32.4154 8.49313 32.7851 9.27108 32.5689 10.0556Z" fill="#9D86BD"/>
<path d="M32.234 13.4956C32.7562 13.7888 33.4615 13.5515 33.8094 12.9653C34.1571 12.3793 34.0159 11.6663 33.4936 11.3731C32.9716 11.0798 32.2663 11.3172 31.9184 11.9033C31.5706 12.4894 31.7119 13.2023 32.234 13.4956Z" fill="#9D86BD"/>
<path d="M12.1769 15.5658C12.1769 16.4306 12.7879 17.1317 13.5415 17.1317C14.2951 17.1317 14.9062 16.4306 14.9062 15.5658C14.9062 14.7011 14.2951 14 13.5415 14C12.7879 14 12.1769 14.7011 12.1769 15.5658Z" fill="#AF9CC9"/>
<path d="M17.226 18.0848C16.2462 18.0848 15.452 17.2009 15.452 16.1105C15.452 15.0201 16.2462 14.1362 17.226 14.1362C18.2058 14.1362 19 15.0201 19 16.1105C19 17.2009 18.2058 18.0848 17.226 18.0848Z" fill="#AF9CC9"/>
<path d="M13.5415 33.9474C10.8805 33.6053 9.37866 30.6799 7.94581 25.0973C6.51296 19.5148 11.1527 17.8128 12.9949 17.7447C14.8371 17.6766 17.1374 17.9849 17.4303 20.1275C17.6448 21.6963 17.1482 22.8355 16.6852 23.8974C16.2644 24.8629 15.8714 25.7646 16.0661 26.8671C16.1627 27.4144 16.4573 27.8689 16.7706 28.3519C17.2183 29.042 17.7036 29.7905 17.7036 30.9519C17.7036 32.9262 16.2025 34.2894 13.5415 33.9474Z" fill="#AF9CC9"/>
<path d="M10.5394 17.8125C9.86107 17.8125 9.31122 17.1724 9.31122 16.3828C9.31122 15.5932 9.86107 14.9531 10.5394 14.9531C11.2177 14.9531 11.7675 15.5932 11.7675 16.3828C11.7675 17.1724 11.2177 17.8125 10.5394 17.8125Z" fill="#AF9CC9"/>
<path d="M7.16275 18.213C7.33826 18.8667 7.92315 19.2783 8.46913 19.1323C9.01511 18.9864 9.31549 18.3381 9.13985 17.6844C8.96434 17.0306 8.37945 16.619 7.83347 16.7649C7.28749 16.9109 6.98711 17.5592 7.16275 18.213Z" fill="#AF9CC9"/>
<path d="M7.43488 21.0796C7.01057 21.324 6.43753 21.1262 6.15488 20.6378C5.87236 20.1494 5.9871 19.5553 6.41141 19.3109C6.83559 19.0665 7.40862 19.2643 7.69128 19.7527C7.97393 20.2412 7.85905 20.8352 7.43488 21.0796Z" fill="#AF9CC9"/>
</svg>
