<svg width="41" height="40" viewBox="0 0 41 40" fill="none" xmlns="http://www.w3.org/2000/svg">
<rect x="0.5" width="40" height="40" rx="20" fill="#F2EFF6"/>
<path d="M14.3054 11.5952L15.5815 10.8508M18.3997 10H19.729M22.3344 10.4785L23.1851 10.8507M25.0461 12.0205L25.4715 12.4459M26.6945 14.8386L26.535 14.3601M25.3427 20.7538C23.8587 26.5518 22.3032 29.5901 19.5472 29.9453C16.7912 30.3006 15.2366 28.8847 15.2366 26.8342C15.2366 25.628 15.7392 24.8506 16.2029 24.1339C16.5273 23.6323 16.8325 23.1603 16.9326 22.5918C17.1342 21.4468 16.7272 20.5103 16.2913 19.5075C15.8118 18.4046 15.2974 17.2215 15.5197 15.5922C15.823 13.3668 18.2054 13.0467 20.1134 13.1174C22.0214 13.1881 26.8267 14.9558 25.3427 20.7538Z" stroke="#9D86BD" stroke-width="2" stroke-linecap="round" stroke-linejoin="round"/>
</svg>
