<svg width="295" height="180" viewBox="0 0 295 180" fill="none" xmlns="http://www.w3.org/2000/svg">
<rect x="107.5" width="80" height="80" rx="12" fill="white"/>
<circle cx="143.5" cy="44" r="28" fill="#181221"/>
<circle cx="152" cy="36" r="28" fill="#00B5A6"/>
<path d="M165 27L147.125 45L139 36.8182" stroke="white" stroke-width="4" stroke-linecap="round" stroke-linejoin="round"/>
<path d="M105.889 124V111.13H108.499V121.822H114.547V124H105.889ZM123.418 122.884C122.518 123.808 121.36 124.27 119.944 124.27C118.528 124.27 117.37 123.808 116.47 122.884C115.57 121.948 115.12 120.784 115.12 119.392C115.12 118 115.57 116.842 116.47 115.918C117.37 114.982 118.528 114.514 119.944 114.514C121.36 114.514 122.518 114.982 123.418 115.918C124.318 116.842 124.768 118 124.768 119.392C124.768 120.784 124.318 121.948 123.418 122.884ZM119.944 122.398C120.676 122.398 121.246 122.128 121.654 121.588C122.074 121.036 122.284 120.304 122.284 119.392C122.284 118.48 122.074 117.748 121.654 117.196C121.246 116.644 120.676 116.368 119.944 116.368C119.2 116.368 118.624 116.644 118.216 117.196C117.808 117.736 117.604 118.468 117.604 119.392C117.604 120.304 117.808 121.036 118.216 121.588C118.624 122.128 119.2 122.398 119.944 122.398ZM129.974 127.15C128.726 127.15 127.724 126.898 126.968 126.394C126.224 125.89 125.786 125.182 125.654 124.27H128.084C128.324 124.954 128.942 125.296 129.938 125.296C131.306 125.296 131.99 124.654 131.99 123.37V122.362H131.936C131.3 123.082 130.496 123.442 129.524 123.442C128.432 123.442 127.478 123.04 126.662 122.236C125.858 121.432 125.456 120.364 125.456 119.032C125.456 117.664 125.828 116.572 126.572 115.756C127.316 114.928 128.276 114.514 129.452 114.514C130.568 114.514 131.42 114.922 132.008 115.738H132.044V114.766H134.402V123.298C134.402 124.498 134.036 125.434 133.304 126.106C132.56 126.802 131.45 127.15 129.974 127.15ZM129.938 121.48C130.67 121.48 131.216 121.246 131.576 120.778C131.936 120.31 132.116 119.71 132.116 118.978C132.116 118.258 131.924 117.664 131.54 117.196C131.168 116.716 130.628 116.476 129.92 116.476C129.296 116.476 128.792 116.704 128.408 117.16C128.036 117.616 127.85 118.228 127.85 118.996C127.85 119.776 128.036 120.388 128.408 120.832C128.792 121.264 129.302 121.48 129.938 121.48ZM138.264 124L142.746 111.13H145.446L149.982 124H147.264L146.4 121.264H141.756L140.91 124H138.264ZM143.52 115.558L142.368 119.266H145.77L144.618 115.558L144.096 113.578H144.06C143.844 114.442 143.664 115.102 143.52 115.558ZM153.972 124.27C152.808 124.27 151.866 123.832 151.146 122.956C150.426 122.068 150.066 120.88 150.066 119.392C150.066 117.952 150.432 116.782 151.164 115.882C151.908 114.97 152.856 114.514 154.008 114.514C155.16 114.514 156.03 114.97 156.618 115.882H156.672V111.13H159.12V124H156.762V122.794H156.726C156.126 123.778 155.208 124.27 153.972 124.27ZM154.512 122.218C155.232 122.218 155.778 121.972 156.15 121.48C156.534 120.988 156.726 120.31 156.726 119.446C156.726 117.478 156.012 116.494 154.584 116.494C153.924 116.494 153.42 116.758 153.072 117.286C152.724 117.814 152.55 118.516 152.55 119.392C152.55 120.292 152.718 120.988 153.054 121.48C153.402 121.972 153.888 122.218 154.512 122.218ZM164.167 124.27C163.003 124.27 162.061 123.832 161.341 122.956C160.621 122.068 160.261 120.88 160.261 119.392C160.261 117.952 160.627 116.782 161.359 115.882C162.103 114.97 163.051 114.514 164.203 114.514C165.355 114.514 166.225 114.97 166.813 115.882H166.867V111.13H169.315V124H166.957V122.794H166.921C166.321 123.778 165.403 124.27 164.167 124.27ZM164.707 122.218C165.427 122.218 165.973 121.972 166.345 121.48C166.729 120.988 166.921 120.31 166.921 119.446C166.921 117.478 166.207 116.494 164.779 116.494C164.119 116.494 163.615 116.758 163.267 117.286C162.919 117.814 162.745 118.516 162.745 119.392C162.745 120.292 162.913 120.988 163.249 121.48C163.597 121.972 164.083 122.218 164.707 122.218ZM175.244 124.27C173.756 124.27 172.586 123.814 171.734 122.902C170.882 121.978 170.456 120.802 170.456 119.374C170.456 117.994 170.882 116.842 171.734 115.918C172.586 114.982 173.678 114.514 175.01 114.514C176.462 114.514 177.584 115.018 178.376 116.026C179.168 117.034 179.564 118.384 179.564 120.076H172.868C172.964 120.808 173.21 121.378 173.606 121.786C174.002 122.182 174.542 122.38 175.226 122.38C176.126 122.38 176.72 122.002 177.008 121.246H179.42C179.24 122.11 178.784 122.83 178.052 123.406C177.32 123.982 176.384 124.27 175.244 124.27ZM175.046 116.404C173.858 116.404 173.144 117.064 172.904 118.384H177.008C176.972 117.796 176.774 117.322 176.414 116.962C176.054 116.59 175.598 116.404 175.046 116.404ZM184.153 124.27C182.989 124.27 182.047 123.832 181.327 122.956C180.607 122.068 180.247 120.88 180.247 119.392C180.247 117.952 180.613 116.782 181.345 115.882C182.089 114.97 183.037 114.514 184.189 114.514C185.341 114.514 186.211 114.97 186.799 115.882H186.853V111.13H189.301V124H186.943V122.794H186.907C186.307 123.778 185.389 124.27 184.153 124.27ZM184.693 122.218C185.413 122.218 185.959 121.972 186.331 121.48C186.715 120.988 186.907 120.31 186.907 119.446C186.907 117.478 186.193 116.494 184.765 116.494C184.105 116.494 183.601 116.758 183.253 117.286C182.905 117.814 182.731 118.516 182.731 119.392C182.731 120.292 182.899 120.988 183.235 121.48C183.583 121.972 184.069 122.218 184.693 122.218Z" fill="#090909"/>
<path d="M29.5216 154V143.99H30.7816V152.838H36.0316V154H29.5216ZM42.8601 153.104C42.2254 153.832 41.3808 154.196 40.3261 154.196C39.2714 154.196 38.4221 153.832 37.7781 153.104C37.1434 152.376 36.8261 151.471 36.8261 150.388C36.8261 149.305 37.1434 148.4 37.7781 147.672C38.4221 146.944 39.2714 146.58 40.3261 146.58C41.3808 146.58 42.2254 146.944 42.8601 147.672C43.4948 148.4 43.8121 149.305 43.8121 150.388C43.8121 151.471 43.4948 152.376 42.8601 153.104ZM38.5901 152.446C39.0008 152.978 39.5794 153.244 40.3261 153.244C41.0728 153.244 41.6468 152.978 42.0481 152.446C42.4494 151.905 42.6501 151.219 42.6501 150.388C42.6501 149.548 42.4448 148.862 42.0341 148.33C41.6328 147.789 41.0634 147.518 40.3261 147.518C39.5794 147.518 39.0008 147.789 38.5901 148.33C38.1888 148.871 37.9881 149.557 37.9881 150.388C37.9881 151.219 38.1888 151.905 38.5901 152.446ZM46.477 146.762V147.966H46.505C46.7384 147.583 47.0417 147.275 47.415 147.042C47.7884 146.799 48.2037 146.678 48.661 146.678C48.829 146.678 48.983 146.706 49.123 146.762V147.854H49.081C48.941 147.807 48.773 147.784 48.577 147.784C47.9984 147.784 47.5037 147.989 47.093 148.4C46.6824 148.801 46.477 149.329 46.477 149.982V154H45.343V146.762H46.477ZM53.3624 154.196C52.2891 154.196 51.4351 153.837 50.8004 153.118C50.1751 152.39 49.8624 151.48 49.8624 150.388C49.8624 149.315 50.1798 148.414 50.8144 147.686C51.4584 146.949 52.2844 146.58 53.2924 146.58C54.3564 146.58 55.1778 146.953 55.7564 147.7C56.3351 148.437 56.6244 149.422 56.6244 150.654H51.0244C51.0711 151.419 51.2951 152.045 51.6964 152.53C52.1071 153.006 52.6624 153.244 53.3624 153.244C54.4451 153.244 55.1124 152.749 55.3644 151.76H56.4704C56.3024 152.535 55.9478 153.137 55.4064 153.566C54.8651 153.986 54.1838 154.196 53.3624 154.196ZM54.8044 148.092C54.4404 147.681 53.9364 147.476 53.2924 147.476C52.6484 147.476 52.1351 147.691 51.7524 148.12C51.3791 148.549 51.1458 149.109 51.0524 149.8H55.4064C55.3691 149.072 55.1684 148.503 54.8044 148.092ZM58.1333 154V146.762H59.2673V147.798H59.2953C59.5286 147.434 59.8319 147.145 60.2053 146.93C60.5786 146.706 60.9846 146.594 61.4233 146.594C62.3659 146.594 62.9959 147.023 63.3133 147.882H63.3413C63.5653 147.481 63.8779 147.168 64.2793 146.944C64.6806 146.711 65.1053 146.594 65.5533 146.594C66.2159 146.594 66.7479 146.799 67.1493 147.21C67.5506 147.611 67.7513 148.181 67.7513 148.918V154H66.6173V148.974C66.6173 148.535 66.4866 148.19 66.2253 147.938C65.9733 147.677 65.6606 147.546 65.2873 147.546C64.8113 147.546 64.3959 147.733 64.0413 148.106C63.6866 148.479 63.5093 148.941 63.5093 149.492V154H62.3753V148.974C62.3753 148.535 62.2586 148.19 62.0253 147.938C61.8013 147.677 61.5026 147.546 61.1293 147.546C60.6626 147.546 60.2333 147.737 59.8413 148.12C59.4586 148.493 59.2673 148.951 59.2673 149.492V154H58.1333ZM72.277 154V146.762H73.411V154H72.277ZM72.277 145.39V143.99H73.411V145.39H72.277ZM75.3567 156.324V146.762H76.4907V147.784H76.5187C77.1067 146.991 77.8814 146.594 78.8427 146.594C79.776 146.594 80.5274 146.935 81.0967 147.616C81.666 148.288 81.9507 149.217 81.9507 150.402C81.9507 151.569 81.6707 152.497 81.1107 153.188C80.5507 153.869 79.7807 154.21 78.8007 154.21C77.83 154.21 77.0694 153.855 76.5187 153.146H76.4907V156.324H75.3567ZM78.7167 153.258C79.3887 153.258 79.902 152.997 80.2567 152.474C80.6114 151.951 80.7887 151.265 80.7887 150.416C80.7887 149.567 80.6114 148.881 80.2567 148.358C79.902 147.826 79.3934 147.56 78.7307 147.56C77.9747 147.56 77.4007 147.831 77.0087 148.372C76.6167 148.904 76.4207 149.585 76.4207 150.416C76.4207 151.265 76.6074 151.951 76.9807 152.474C77.354 152.997 77.9327 153.258 78.7167 153.258ZM86.2253 154.21C85.236 154.21 84.466 153.991 83.9153 153.552C83.374 153.104 83.0753 152.469 83.0193 151.648H84.1813C84.312 152.721 85.0027 153.258 86.2533 153.258C86.8227 153.258 87.2427 153.151 87.5133 152.936C87.7933 152.712 87.9333 152.423 87.9333 152.068C87.9333 151.685 87.798 151.41 87.5273 151.242C87.2567 151.074 86.762 150.915 86.0433 150.766C85.7447 150.701 85.5067 150.649 85.3293 150.612C85.1613 150.565 84.956 150.505 84.7133 150.43C84.4707 150.346 84.2793 150.257 84.1393 150.164C84.0087 150.061 83.8733 149.94 83.7333 149.8C83.5933 149.66 83.4907 149.487 83.4253 149.282C83.3693 149.077 83.3413 148.848 83.3413 148.596C83.3413 147.98 83.5653 147.495 84.0133 147.14C84.4707 146.785 85.1147 146.608 85.9453 146.608C87.6627 146.608 88.61 147.364 88.7873 148.876H87.6253C87.5693 148.4 87.406 148.055 87.1353 147.84C86.8647 147.616 86.4587 147.504 85.9173 147.504C85.4227 147.504 85.054 147.602 84.8113 147.798C84.578 147.985 84.4613 148.232 84.4613 148.54C84.4613 148.895 84.6013 149.147 84.8813 149.296C85.1613 149.436 85.67 149.581 86.4073 149.73C86.8553 149.823 87.2053 149.912 87.4573 149.996C87.7187 150.071 87.9893 150.192 88.2693 150.36C88.5493 150.519 88.7547 150.733 88.8853 151.004C89.016 151.275 89.0813 151.611 89.0813 152.012C89.0813 152.721 88.82 153.267 88.2973 153.65C87.7747 154.023 87.084 154.21 86.2253 154.21ZM96.3069 154H95.1729V153.006H95.1449C94.5755 153.781 93.8475 154.168 92.9609 154.168C92.2142 154.168 91.6215 153.958 91.1829 153.538C90.7442 153.109 90.5249 152.521 90.5249 151.774V146.762H91.6589V151.746C91.6589 152.213 91.7989 152.577 92.0789 152.838C92.3682 153.099 92.7695 153.23 93.2829 153.23C93.8522 153.23 94.3095 153.039 94.6549 152.656C95.0002 152.273 95.1729 151.793 95.1729 151.214V146.762H96.3069V154ZM98.2403 154V146.762H99.3743V147.798H99.4023C99.6356 147.434 99.939 147.145 100.312 146.93C100.686 146.706 101.092 146.594 101.53 146.594C102.473 146.594 103.103 147.023 103.42 147.882H103.448C103.672 147.481 103.985 147.168 104.386 146.944C104.788 146.711 105.212 146.594 105.66 146.594C106.323 146.594 106.855 146.799 107.256 147.21C107.658 147.611 107.858 148.181 107.858 148.918V154H106.724V148.974C106.724 148.535 106.594 148.19 106.332 147.938C106.08 147.677 105.768 147.546 105.394 147.546C104.918 147.546 104.503 147.733 104.148 148.106C103.794 148.479 103.616 148.941 103.616 149.492V154H102.482V148.974C102.482 148.535 102.366 148.19 102.132 147.938C101.908 147.677 101.61 147.546 101.236 147.546C100.77 147.546 100.34 147.737 99.9483 148.12C99.5656 148.493 99.3743 148.951 99.3743 149.492V154H98.2403ZM115.184 154.21C114.195 154.21 113.411 153.869 112.832 153.188C112.263 152.497 111.978 151.569 111.978 150.402C111.978 149.226 112.277 148.297 112.874 147.616C113.471 146.935 114.232 146.594 115.156 146.594C116.136 146.594 116.892 146.991 117.424 147.784H117.452V143.99H118.586V154H117.452V153.118H117.424C116.855 153.846 116.108 154.21 115.184 154.21ZM115.226 153.258C116.001 153.258 116.575 153.001 116.948 152.488C117.331 151.975 117.522 151.284 117.522 150.416C117.522 149.557 117.317 148.867 116.906 148.344C116.505 147.821 115.94 147.56 115.212 147.56C114.549 147.56 114.036 147.826 113.672 148.358C113.317 148.881 113.14 149.567 113.14 150.416C113.14 151.265 113.317 151.951 113.672 152.474C114.036 152.997 114.554 153.258 115.226 153.258ZM126.15 153.104C125.516 153.832 124.671 154.196 123.616 154.196C122.562 154.196 121.712 153.832 121.068 153.104C120.434 152.376 120.116 151.471 120.116 150.388C120.116 149.305 120.434 148.4 121.068 147.672C121.712 146.944 122.562 146.58 123.616 146.58C124.671 146.58 125.516 146.944 126.15 147.672C126.785 148.4 127.102 149.305 127.102 150.388C127.102 151.471 126.785 152.376 126.15 153.104ZM121.88 152.446C122.291 152.978 122.87 153.244 123.616 153.244C124.363 153.244 124.937 152.978 125.338 152.446C125.74 151.905 125.94 151.219 125.94 150.388C125.94 149.548 125.735 148.862 125.324 148.33C124.923 147.789 124.354 147.518 123.616 147.518C122.87 147.518 122.291 147.789 121.88 148.33C121.479 148.871 121.278 149.557 121.278 150.388C121.278 151.219 121.479 151.905 121.88 152.446ZM128.675 154V143.99H129.809V154H128.675ZM137.423 153.104C136.788 153.832 135.944 154.196 134.889 154.196C133.834 154.196 132.985 153.832 132.341 153.104C131.706 152.376 131.389 151.471 131.389 150.388C131.389 149.305 131.706 148.4 132.341 147.672C132.985 146.944 133.834 146.58 134.889 146.58C135.944 146.58 136.788 146.944 137.423 147.672C138.058 148.4 138.375 149.305 138.375 150.388C138.375 151.471 138.058 152.376 137.423 153.104ZM133.153 152.446C133.564 152.978 134.142 153.244 134.889 153.244C135.636 153.244 136.21 152.978 136.611 152.446C137.012 151.905 137.213 151.219 137.213 150.388C137.213 149.548 137.008 148.862 136.597 148.33C136.196 147.789 135.626 147.518 134.889 147.518C134.142 147.518 133.564 147.789 133.153 148.33C132.752 148.871 132.551 149.557 132.551 150.388C132.551 151.219 132.752 151.905 133.153 152.446ZM141.04 146.762V147.966H141.068C141.301 147.583 141.605 147.275 141.978 147.042C142.351 146.799 142.767 146.678 143.224 146.678C143.392 146.678 143.546 146.706 143.686 146.762V147.854H143.644C143.504 147.807 143.336 147.784 143.14 147.784C142.561 147.784 142.067 147.989 141.656 148.4C141.245 148.801 141.04 149.329 141.04 149.982V154H139.906V146.762H141.04ZM150.477 154.21C149.488 154.21 148.718 153.991 148.167 153.552C147.626 153.104 147.327 152.469 147.271 151.648H148.433C148.564 152.721 149.255 153.258 150.505 153.258C151.075 153.258 151.495 153.151 151.765 152.936C152.045 152.712 152.185 152.423 152.185 152.068C152.185 151.685 152.05 151.41 151.779 151.242C151.509 151.074 151.014 150.915 150.295 150.766C149.997 150.701 149.759 150.649 149.581 150.612C149.413 150.565 149.208 150.505 148.965 150.43C148.723 150.346 148.531 150.257 148.391 150.164C148.261 150.061 148.125 149.94 147.985 149.8C147.845 149.66 147.743 149.487 147.677 149.282C147.621 149.077 147.593 148.848 147.593 148.596C147.593 147.98 147.817 147.495 148.265 147.14C148.723 146.785 149.367 146.608 150.197 146.608C151.915 146.608 152.862 147.364 153.039 148.876H151.877C151.821 148.4 151.658 148.055 151.387 147.84C151.117 147.616 150.711 147.504 150.169 147.504C149.675 147.504 149.306 147.602 149.063 147.798C148.83 147.985 148.713 148.232 148.713 148.54C148.713 148.895 148.853 149.147 149.133 149.296C149.413 149.436 149.922 149.581 150.659 149.73C151.107 149.823 151.457 149.912 151.709 149.996C151.971 150.071 152.241 150.192 152.521 150.36C152.801 150.519 153.007 150.733 153.137 151.004C153.268 151.275 153.333 151.611 153.333 152.012C153.333 152.721 153.072 153.267 152.549 153.65C152.027 154.023 151.336 154.21 150.477 154.21ZM154.819 154V146.762H155.953V154H154.819ZM154.819 145.39V143.99H155.953V145.39H154.819ZM157.437 147.686V146.762H158.487V144.48H159.621V146.762H161.021V147.686H159.621V152.39C159.621 152.838 159.863 153.062 160.349 153.062C160.554 153.062 160.755 153.029 160.951 152.964H160.993V153.944C160.685 154.009 160.381 154.042 160.083 154.042C159.019 154.042 158.487 153.575 158.487 152.642V147.686H157.437ZM170.904 154.07C170.185 154.07 169.77 153.711 169.658 152.992H169.644C169.047 153.757 168.244 154.14 167.236 154.14C166.517 154.14 165.929 153.967 165.472 153.622C165.015 153.277 164.786 152.777 164.786 152.124C164.786 151.788 164.837 151.499 164.94 151.256C165.052 151.004 165.192 150.803 165.36 150.654C165.528 150.495 165.757 150.36 166.046 150.248C166.345 150.127 166.629 150.038 166.9 149.982C167.171 149.917 167.516 149.851 167.936 149.786C168.207 149.749 168.398 149.721 168.51 149.702C168.631 149.674 168.785 149.637 168.972 149.59C169.159 149.534 169.289 149.473 169.364 149.408C169.439 149.343 169.509 149.254 169.574 149.142C169.639 149.03 169.672 148.899 169.672 148.75C169.672 148.339 169.527 148.027 169.238 147.812C168.958 147.588 168.561 147.476 168.048 147.476C166.881 147.476 166.279 148.008 166.242 149.072H165.15C165.169 148.335 165.421 147.742 165.906 147.294C166.401 146.846 167.11 146.622 168.034 146.622C169.817 146.622 170.708 147.387 170.708 148.918V152.362C170.708 152.679 170.759 152.903 170.862 153.034C170.974 153.165 171.179 153.197 171.478 153.132H171.52V153.958C171.333 154.033 171.128 154.07 170.904 154.07ZM167.488 153.272C168.188 153.272 168.729 153.071 169.112 152.67C169.495 152.259 169.686 151.811 169.686 151.326V150.094C169.341 150.309 168.79 150.486 168.034 150.626C167.754 150.682 167.535 150.729 167.376 150.766C167.217 150.794 167.035 150.85 166.83 150.934C166.625 151.009 166.471 151.093 166.368 151.186C166.265 151.279 166.177 151.405 166.102 151.564C166.027 151.713 165.99 151.891 165.99 152.096C165.99 152.88 166.489 153.272 167.488 153.272ZM172.757 154V146.762H173.891V147.798H173.919C174.152 147.434 174.455 147.145 174.829 146.93C175.202 146.706 175.608 146.594 176.047 146.594C176.989 146.594 177.619 147.023 177.937 147.882H177.965C178.189 147.481 178.501 147.168 178.903 146.944C179.304 146.711 179.729 146.594 180.177 146.594C180.839 146.594 181.371 146.799 181.773 147.21C182.174 147.611 182.375 148.181 182.375 148.918V154H181.241V148.974C181.241 148.535 181.11 148.19 180.849 147.938C180.597 147.677 180.284 147.546 179.911 147.546C179.435 147.546 179.019 147.733 178.665 148.106C178.31 148.479 178.133 148.941 178.133 149.492V154H176.999V148.974C176.999 148.535 176.882 148.19 176.649 147.938C176.425 147.677 176.126 147.546 175.753 147.546C175.286 147.546 174.857 147.737 174.465 148.12C174.082 148.493 173.891 148.951 173.891 149.492V154H172.757ZM187.366 154.196C186.293 154.196 185.439 153.837 184.804 153.118C184.179 152.39 183.866 151.48 183.866 150.388C183.866 149.315 184.183 148.414 184.818 147.686C185.462 146.949 186.288 146.58 187.296 146.58C188.36 146.58 189.181 146.953 189.76 147.7C190.339 148.437 190.628 149.422 190.628 150.654H185.028C185.075 151.419 185.299 152.045 185.7 152.53C186.111 153.006 186.666 153.244 187.366 153.244C188.449 153.244 189.116 152.749 189.368 151.76H190.474C190.306 152.535 189.951 153.137 189.41 153.566C188.869 153.986 188.187 154.196 187.366 154.196ZM188.808 148.092C188.444 147.681 187.94 147.476 187.296 147.476C186.652 147.476 186.139 147.691 185.756 148.12C185.383 148.549 185.149 149.109 185.056 149.8H189.41C189.373 149.072 189.172 148.503 188.808 148.092ZM191.538 147.686V146.762H192.588V144.48H193.722V146.762H195.122V147.686H193.722V152.39C193.722 152.838 193.965 153.062 194.45 153.062C194.655 153.062 194.856 153.029 195.052 152.964H195.094V153.944C194.786 154.009 194.483 154.042 194.184 154.042C193.12 154.042 192.588 153.575 192.588 152.642V147.686H191.538ZM199.322 154V146.762H200.456V154H199.322ZM199.322 145.39V143.99H200.456V145.39H199.322ZM207.161 154L204.599 150.094L203.535 151.102V154H202.401V143.99H203.535V149.856L206.713 146.762H208.155L205.383 149.366L208.491 154H207.161ZM209.651 154V146.762H210.785V154H209.651ZM209.651 145.39V143.99H210.785V145.39H209.651ZM218.453 154.196C217.398 154.196 216.549 153.832 215.905 153.104C215.27 152.376 214.953 151.471 214.953 150.388C214.953 149.305 215.27 148.4 215.905 147.672C216.549 146.944 217.398 146.58 218.453 146.58C219.302 146.58 219.998 146.809 220.539 147.266C221.08 147.714 221.416 148.325 221.547 149.1H220.399C220.315 148.605 220.105 148.218 219.769 147.938C219.433 147.658 218.994 147.518 218.453 147.518C217.706 147.518 217.128 147.789 216.717 148.33C216.316 148.871 216.115 149.557 216.115 150.388C216.115 151.219 216.316 151.905 216.717 152.446C217.128 152.978 217.706 153.244 218.453 153.244C219.032 153.244 219.494 153.09 219.839 152.782C220.184 152.465 220.38 152.021 220.427 151.452H221.547C221.472 152.32 221.164 152.997 220.623 153.482C220.082 153.958 219.358 154.196 218.453 154.196ZM228.647 153.104C228.012 153.832 227.168 154.196 226.113 154.196C225.058 154.196 224.209 153.832 223.565 153.104C222.93 152.376 222.613 151.471 222.613 150.388C222.613 149.305 222.93 148.4 223.565 147.672C224.209 146.944 225.058 146.58 226.113 146.58C227.168 146.58 228.012 146.944 228.647 147.672C229.282 148.4 229.599 149.305 229.599 150.388C229.599 151.471 229.282 152.376 228.647 153.104ZM224.377 152.446C224.788 152.978 225.366 153.244 226.113 153.244C226.86 153.244 227.434 152.978 227.835 152.446C228.236 151.905 228.437 151.219 228.437 150.388C228.437 149.548 228.232 148.862 227.821 148.33C227.42 147.789 226.85 147.518 226.113 147.518C225.366 147.518 224.788 147.789 224.377 148.33C223.976 148.871 223.775 149.557 223.775 150.388C223.775 151.219 223.976 151.905 224.377 152.446ZM232.264 146.762V147.714H232.292C232.852 146.967 233.617 146.594 234.588 146.594C235.353 146.594 235.95 146.795 236.38 147.196C236.809 147.597 237.024 148.171 237.024 148.918V154H235.89V149.016C235.89 148.549 235.745 148.19 235.456 147.938C235.166 147.677 234.765 147.546 234.252 147.546C233.673 147.546 233.197 147.733 232.824 148.106C232.45 148.479 232.264 148.96 232.264 149.548V154H231.13V146.762H232.264ZM238.328 147.686V146.762H239.378V144.48H240.512V146.762H241.912V147.686H240.512V152.39C240.512 152.838 240.754 153.062 241.24 153.062C241.445 153.062 241.646 153.029 241.842 152.964H241.884V153.944C241.576 154.009 241.272 154.042 240.974 154.042C239.91 154.042 239.378 153.575 239.378 152.642V147.686H238.328ZM249.042 153.104C248.407 153.832 247.563 154.196 246.508 154.196C245.453 154.196 244.604 153.832 243.96 153.104C243.325 152.376 243.008 151.471 243.008 150.388C243.008 149.305 243.325 148.4 243.96 147.672C244.604 146.944 245.453 146.58 246.508 146.58C247.563 146.58 248.407 146.944 249.042 147.672C249.677 148.4 249.994 149.305 249.994 150.388C249.994 151.471 249.677 152.376 249.042 153.104ZM244.772 152.446C245.183 152.978 245.761 153.244 246.508 153.244C247.255 153.244 247.829 152.978 248.23 152.446C248.631 151.905 248.832 151.219 248.832 150.388C248.832 149.548 248.627 148.862 248.216 148.33C247.815 147.789 247.245 147.518 246.508 147.518C245.761 147.518 245.183 147.789 244.772 148.33C244.371 148.871 244.17 149.557 244.17 150.388C244.17 151.219 244.371 151.905 244.772 152.446ZM252.659 146.762V147.714H252.687C253.247 146.967 254.012 146.594 254.983 146.594C255.748 146.594 256.346 146.795 256.775 147.196C257.204 147.597 257.419 148.171 257.419 148.918V154H256.285V149.016C256.285 148.549 256.14 148.19 255.851 147.938C255.562 147.677 255.16 147.546 254.647 147.546C254.068 147.546 253.592 147.733 253.219 148.106C252.846 148.479 252.659 148.96 252.659 149.548V154H251.525V146.762H252.659ZM262.416 154.196C261.342 154.196 260.488 153.837 259.854 153.118C259.228 152.39 258.916 151.48 258.916 150.388C258.916 149.315 259.233 148.414 259.868 147.686C260.512 146.949 261.338 146.58 262.346 146.58C263.41 146.58 264.231 146.953 264.81 147.7C265.388 148.437 265.678 149.422 265.678 150.654H260.078C260.124 151.419 260.348 152.045 260.75 152.53C261.16 153.006 261.716 153.244 262.416 153.244C263.498 153.244 264.166 152.749 264.418 151.76H265.524C265.356 152.535 265.001 153.137 264.46 153.566C263.918 153.986 263.237 154.196 262.416 154.196ZM263.858 148.092C263.494 147.681 262.99 147.476 262.346 147.476C261.702 147.476 261.188 147.691 260.806 148.12C260.432 148.549 260.199 149.109 260.106 149.8H264.46C264.422 149.072 264.222 148.503 263.858 148.092ZM87.9272 174.21C86.9379 174.21 86.1539 173.869 85.5752 173.188C85.0059 172.497 84.7212 171.569 84.7212 170.402C84.7212 169.226 85.0199 168.297 85.6172 167.616C86.2146 166.935 86.9752 166.594 87.8992 166.594C88.8792 166.594 89.6352 166.991 90.1672 167.784H90.1952V163.99H91.3292V174H90.1952V173.118H90.1672C89.5979 173.846 88.8512 174.21 87.9272 174.21ZM87.9692 173.258C88.7439 173.258 89.3179 173.001 89.6912 172.488C90.0739 171.975 90.2652 171.284 90.2652 170.416C90.2652 169.557 90.0599 168.867 89.6492 168.344C89.2479 167.821 88.6832 167.56 87.9552 167.56C87.2926 167.56 86.7792 167.826 86.4152 168.358C86.0606 168.881 85.8832 169.567 85.8832 170.416C85.8832 171.265 86.0606 171.951 86.4152 172.474C86.7792 172.997 87.2972 173.258 87.9692 173.258ZM96.3595 174.196C95.2862 174.196 94.4322 173.837 93.7975 173.118C93.1722 172.39 92.8595 171.48 92.8595 170.388C92.8595 169.315 93.1768 168.414 93.8115 167.686C94.4555 166.949 95.2815 166.58 96.2895 166.58C97.3535 166.58 98.1748 166.953 98.7535 167.7C99.3322 168.437 99.6215 169.422 99.6215 170.654H94.0215C94.0682 171.419 94.2922 172.045 94.6935 172.53C95.1042 173.006 95.6595 173.244 96.3595 173.244C97.4422 173.244 98.1095 172.749 98.3615 171.76H99.4675C99.2995 172.535 98.9448 173.137 98.4035 173.566C97.8622 173.986 97.1808 174.196 96.3595 174.196ZM97.8015 168.092C97.4375 167.681 96.9335 167.476 96.2895 167.476C95.6455 167.476 95.1322 167.691 94.7495 168.12C94.3762 168.549 94.1428 169.109 94.0495 169.8H98.4035C98.3662 169.072 98.1655 168.503 97.8015 168.092ZM103.874 174.21C102.885 174.21 102.115 173.991 101.564 173.552C101.023 173.104 100.724 172.469 100.668 171.648H101.83C101.961 172.721 102.652 173.258 103.902 173.258C104.472 173.258 104.892 173.151 105.162 172.936C105.442 172.712 105.582 172.423 105.582 172.068C105.582 171.685 105.447 171.41 105.176 171.242C104.906 171.074 104.411 170.915 103.692 170.766C103.394 170.701 103.156 170.649 102.978 170.612C102.81 170.565 102.605 170.505 102.362 170.43C102.12 170.346 101.928 170.257 101.788 170.164C101.658 170.061 101.522 169.94 101.382 169.8C101.242 169.66 101.14 169.487 101.074 169.282C101.018 169.077 100.99 168.848 100.99 168.596C100.99 167.98 101.214 167.495 101.662 167.14C102.12 166.785 102.764 166.608 103.594 166.608C105.312 166.608 106.259 167.364 106.436 168.876H105.274C105.218 168.4 105.055 168.055 104.784 167.84C104.514 167.616 104.108 167.504 103.566 167.504C103.072 167.504 102.703 167.602 102.46 167.798C102.227 167.985 102.11 168.232 102.11 168.54C102.11 168.895 102.25 169.147 102.53 169.296C102.81 169.436 103.319 169.581 104.056 169.73C104.504 169.823 104.854 169.912 105.106 169.996C105.368 170.071 105.638 170.192 105.918 170.36C106.198 170.519 106.404 170.733 106.534 171.004C106.665 171.275 106.73 171.611 106.73 172.012C106.73 172.721 106.469 173.267 105.946 173.65C105.424 174.023 104.733 174.21 103.874 174.21ZM111.447 174.196C110.392 174.196 109.543 173.832 108.899 173.104C108.264 172.376 107.947 171.471 107.947 170.388C107.947 169.305 108.264 168.4 108.899 167.672C109.543 166.944 110.392 166.58 111.447 166.58C112.296 166.58 112.991 166.809 113.533 167.266C114.074 167.714 114.41 168.325 114.541 169.1H113.393C113.309 168.605 113.099 168.218 112.763 167.938C112.427 167.658 111.988 167.518 111.447 167.518C110.7 167.518 110.121 167.789 109.711 168.33C109.309 168.871 109.109 169.557 109.109 170.388C109.109 171.219 109.309 171.905 109.711 172.446C110.121 172.978 110.7 173.244 111.447 173.244C112.025 173.244 112.487 173.09 112.833 172.782C113.178 172.465 113.374 172.021 113.421 171.452H114.541C114.466 172.32 114.158 172.997 113.617 173.482C113.075 173.958 112.352 174.196 111.447 174.196ZM117.146 166.762V167.966H117.174C117.408 167.583 117.711 167.275 118.084 167.042C118.458 166.799 118.873 166.678 119.33 166.678C119.498 166.678 119.652 166.706 119.792 166.762V167.854H119.75C119.61 167.807 119.442 167.784 119.246 167.784C118.668 167.784 118.173 167.989 117.762 168.4C117.352 168.801 117.146 169.329 117.146 169.982V174H116.012V166.762H117.146ZM121.211 174V166.762H122.345V174H121.211ZM121.211 165.39V163.99H122.345V165.39H121.211ZM124.291 176.324V166.762H125.425V167.784H125.453C126.041 166.991 126.816 166.594 127.777 166.594C128.71 166.594 129.462 166.935 130.031 167.616C130.6 168.288 130.885 169.217 130.885 170.402C130.885 171.569 130.605 172.497 130.045 173.188C129.485 173.869 128.715 174.21 127.735 174.21C126.764 174.21 126.004 173.855 125.453 173.146H125.425V176.324H124.291ZM127.651 173.258C128.323 173.258 128.836 172.997 129.191 172.474C129.546 171.951 129.723 171.265 129.723 170.416C129.723 169.567 129.546 168.881 129.191 168.358C128.836 167.826 128.328 167.56 127.665 167.56C126.909 167.56 126.335 167.831 125.943 168.372C125.551 168.904 125.355 169.585 125.355 170.416C125.355 171.265 125.542 171.951 125.915 172.474C126.288 172.997 126.867 173.258 127.651 173.258ZM131.748 167.686V166.762H132.798V164.48H133.932V166.762H135.332V167.686H133.932V172.39C133.932 172.838 134.175 173.062 134.66 173.062C134.866 173.062 135.066 173.029 135.262 172.964H135.304V173.944C134.996 174.009 134.693 174.042 134.394 174.042C133.33 174.042 132.798 173.575 132.798 172.642V167.686H131.748ZM136.903 174V166.762H138.037V174H136.903ZM136.903 165.39V163.99H138.037V165.39H136.903ZM145.611 173.104C144.976 173.832 144.132 174.196 143.077 174.196C142.022 174.196 141.173 173.832 140.529 173.104C139.894 172.376 139.577 171.471 139.577 170.388C139.577 169.305 139.894 168.4 140.529 167.672C141.173 166.944 142.022 166.58 143.077 166.58C144.132 166.58 144.976 166.944 145.611 167.672C146.246 168.4 146.563 169.305 146.563 170.388C146.563 171.471 146.246 172.376 145.611 173.104ZM141.341 172.446C141.752 172.978 142.33 173.244 143.077 173.244C143.824 173.244 144.398 172.978 144.799 172.446C145.2 171.905 145.401 171.219 145.401 170.388C145.401 169.548 145.196 168.862 144.785 168.33C144.384 167.789 143.814 167.518 143.077 167.518C142.33 167.518 141.752 167.789 141.341 168.33C140.94 168.871 140.739 169.557 140.739 170.388C140.739 171.219 140.94 171.905 141.341 172.446ZM149.228 166.762V167.714H149.256C149.816 166.967 150.581 166.594 151.552 166.594C152.317 166.594 152.915 166.795 153.344 167.196C153.773 167.597 153.988 168.171 153.988 168.918V174H152.854V169.016C152.854 168.549 152.709 168.19 152.42 167.938C152.131 167.677 151.729 167.546 151.216 167.546C150.637 167.546 150.161 167.733 149.788 168.106C149.415 168.479 149.228 168.96 149.228 169.548V174H148.094V166.762H149.228ZM159.443 176.394C159.014 176.394 158.673 176.343 158.421 176.24V175.232H158.477C158.664 175.335 158.92 175.386 159.247 175.386C159.499 175.386 159.709 175.321 159.877 175.19C160.045 175.069 160.194 174.84 160.325 174.504L160.605 173.79L157.777 166.762H159.009L160.717 171.27L161.207 172.684H161.235C161.403 172.143 161.562 171.671 161.711 171.27L163.363 166.762H164.567L161.473 174.588C161.193 175.297 160.904 175.773 160.605 176.016C160.306 176.268 159.919 176.394 159.443 176.394ZM171.248 174.07C170.529 174.07 170.114 173.711 170.002 172.992H169.988C169.39 173.757 168.588 174.14 167.58 174.14C166.861 174.14 166.273 173.967 165.816 173.622C165.358 173.277 165.13 172.777 165.13 172.124C165.13 171.788 165.181 171.499 165.284 171.256C165.396 171.004 165.536 170.803 165.704 170.654C165.872 170.495 166.1 170.36 166.39 170.248C166.688 170.127 166.973 170.038 167.244 169.982C167.514 169.917 167.86 169.851 168.28 169.786C168.55 169.749 168.742 169.721 168.854 169.702C168.975 169.674 169.129 169.637 169.316 169.59C169.502 169.534 169.633 169.473 169.708 169.408C169.782 169.343 169.852 169.254 169.918 169.142C169.983 169.03 170.016 168.899 170.016 168.75C170.016 168.339 169.871 168.027 169.582 167.812C169.302 167.588 168.905 167.476 168.392 167.476C167.225 167.476 166.623 168.008 166.586 169.072H165.494C165.512 168.335 165.764 167.742 166.25 167.294C166.744 166.846 167.454 166.622 168.378 166.622C170.16 166.622 171.052 167.387 171.052 168.918V172.362C171.052 172.679 171.103 172.903 171.206 173.034C171.318 173.165 171.523 173.197 171.822 173.132H171.864V173.958C171.677 174.033 171.472 174.07 171.248 174.07ZM167.832 173.272C168.532 173.272 169.073 173.071 169.456 172.67C169.838 172.259 170.03 171.811 170.03 171.326V170.094C169.684 170.309 169.134 170.486 168.378 170.626C168.098 170.682 167.878 170.729 167.72 170.766C167.561 170.794 167.379 170.85 167.174 170.934C166.968 171.009 166.814 171.093 166.712 171.186C166.609 171.279 166.52 171.405 166.446 171.564C166.371 171.713 166.334 171.891 166.334 172.096C166.334 172.88 166.833 173.272 167.832 173.272ZM179.173 174.21C178.211 174.21 177.451 173.823 176.891 173.048H176.863V174H175.729V163.99H176.863V167.798H176.891C177.479 166.995 178.253 166.594 179.215 166.594C180.148 166.594 180.895 166.935 181.455 167.616C182.015 168.288 182.295 169.217 182.295 170.402C182.295 171.569 182.015 172.497 181.455 173.188C180.904 173.869 180.143 174.21 179.173 174.21ZM179.089 173.258C179.761 173.258 180.269 173.001 180.615 172.488C180.96 171.965 181.133 171.275 181.133 170.416C181.133 169.567 180.96 168.881 180.615 168.358C180.269 167.826 179.765 167.56 179.103 167.56C178.347 167.56 177.773 167.831 177.381 168.372C176.989 168.904 176.793 169.585 176.793 170.416C176.793 171.265 176.989 171.951 177.381 172.474C177.773 172.997 178.342 173.258 179.089 173.258ZM186.92 174.196C185.847 174.196 184.993 173.837 184.358 173.118C183.733 172.39 183.42 171.48 183.42 170.388C183.42 169.315 183.737 168.414 184.372 167.686C185.016 166.949 185.842 166.58 186.85 166.58C187.914 166.58 188.735 166.953 189.314 167.7C189.893 168.437 190.182 169.422 190.182 170.654H184.582C184.629 171.419 184.853 172.045 185.254 172.53C185.665 173.006 186.22 173.244 186.92 173.244C188.003 173.244 188.67 172.749 188.922 171.76H190.028C189.86 172.535 189.505 173.137 188.964 173.566C188.423 173.986 187.741 174.196 186.92 174.196ZM188.362 168.092C187.998 167.681 187.494 167.476 186.85 167.476C186.206 167.476 185.693 167.691 185.31 168.12C184.937 168.549 184.703 169.109 184.61 169.8H188.964C188.927 169.072 188.726 168.503 188.362 168.092ZM192.825 166.762V167.966H192.853C193.086 167.583 193.39 167.275 193.763 167.042C194.136 166.799 194.552 166.678 195.009 166.678C195.177 166.678 195.331 166.706 195.471 166.762V167.854H195.429C195.289 167.807 195.121 167.784 194.925 167.784C194.346 167.784 193.852 167.989 193.441 168.4C193.03 168.801 192.825 169.329 192.825 169.982V174H191.691V166.762H192.825ZM202.244 173.104C201.61 173.832 200.765 174.196 199.71 174.196C198.656 174.196 197.806 173.832 197.162 173.104C196.528 172.376 196.21 171.471 196.21 170.388C196.21 169.305 196.528 168.4 197.162 167.672C197.806 166.944 198.656 166.58 199.71 166.58C200.765 166.58 201.61 166.944 202.244 167.672C202.879 168.4 203.196 169.305 203.196 170.388C203.196 171.471 202.879 172.376 202.244 173.104ZM197.974 172.446C198.385 172.978 198.964 173.244 199.71 173.244C200.457 173.244 201.031 172.978 201.432 172.446C201.834 171.905 202.034 171.219 202.034 170.388C202.034 169.548 201.829 168.862 201.418 168.33C201.017 167.789 200.448 167.518 199.71 167.518C198.964 167.518 198.385 167.789 197.974 168.33C197.573 168.871 197.372 169.557 197.372 170.388C197.372 171.219 197.573 171.905 197.974 172.446ZM207.471 174.21C206.482 174.21 205.712 173.991 205.161 173.552C204.62 173.104 204.321 172.469 204.265 171.648H205.427C205.558 172.721 206.249 173.258 207.499 173.258C208.069 173.258 208.489 173.151 208.759 172.936C209.039 172.712 209.179 172.423 209.179 172.068C209.179 171.685 209.044 171.41 208.773 171.242C208.503 171.074 208.008 170.915 207.289 170.766C206.991 170.701 206.753 170.649 206.575 170.612C206.407 170.565 206.202 170.505 205.959 170.43C205.717 170.346 205.525 170.257 205.385 170.164C205.255 170.061 205.119 169.94 204.979 169.8C204.839 169.66 204.737 169.487 204.671 169.282C204.615 169.077 204.587 168.848 204.587 168.596C204.587 167.98 204.811 167.495 205.259 167.14C205.717 166.785 206.361 166.608 207.191 166.608C208.909 166.608 209.856 167.364 210.033 168.876H208.871C208.815 168.4 208.652 168.055 208.381 167.84C208.111 167.616 207.705 167.504 207.163 167.504C206.669 167.504 206.3 167.602 206.057 167.798C205.824 167.985 205.707 168.232 205.707 168.54C205.707 168.895 205.847 169.147 206.127 169.296C206.407 169.436 206.916 169.581 207.653 169.73C208.101 169.823 208.451 169.912 208.703 169.996C208.965 170.071 209.235 170.192 209.515 170.36C209.795 170.519 210.001 170.733 210.131 171.004C210.262 171.275 210.327 171.611 210.327 172.012C210.327 172.721 210.066 173.267 209.543 173.65C209.021 174.023 208.33 174.21 207.471 174.21Z" fill="#424242"/>
</svg>
