<svg width="81" height="80" viewBox="0 0 81 80" fill="none" xmlns="http://www.w3.org/2000/svg">
<g id="Password">
<g id="Group 2608936">
<path id="Rectangle 3978" d="M56 46V24C56 15.1634 48.8366 8 40 8V8C31.1634 8 24 15.1634 24 24V46" stroke="#614884" stroke-width="8"/>
<rect id="Rectangle 3975" x="24.5" y="31" width="48" height="40" rx="6" fill="#9D86BD"/>
<rect id="Rectangle 3976" x="8.5" y="31" width="52" height="40" rx="6" fill="#E4DEED"/>
<g id="Union">
<mask id="path-4-inside-1_1_4742" fill="white">
<path d="M34.5 41C37.8137 41 40.5 43.6863 40.5 47C40.5 49.5155 38.9513 51.6679 36.7559 52.5596L37.2012 57.0146C37.361 58.6129 36.1062 60 34.5 60C32.8938 60 31.639 58.6129 31.7988 57.0146L32.2432 52.5596C30.0482 51.6677 28.5 49.5152 28.5 47C28.5 43.6863 31.1863 41 34.5 41Z"/>
</mask>
<path d="M34.5 41C37.8137 41 40.5 43.6863 40.5 47C40.5 49.5155 38.9513 51.6679 36.7559 52.5596L37.2012 57.0146C37.361 58.6129 36.1062 60 34.5 60C32.8938 60 31.639 58.6129 31.7988 57.0146L32.2432 52.5596C30.0482 51.6677 28.5 49.5152 28.5 47C28.5 43.6863 31.1863 41 34.5 41Z" fill="white"/>
<path d="M36.7559 52.5596L36.3795 51.6331L35.6864 51.9146L35.7608 52.659L36.7559 52.5596ZM37.2012 57.0146L36.2061 57.1141L36.2061 57.1142L37.2012 57.0146ZM31.7988 57.0146L32.7939 57.1142L32.7939 57.1139L31.7988 57.0146ZM32.2432 52.5596L33.2382 52.6588L33.3124 51.9147L32.6196 51.6331L32.2432 52.5596ZM34.5 41V42C37.2614 42 39.5 44.2386 39.5 47H40.5H41.5C41.5 43.134 38.366 40 34.5 40V41ZM40.5 47H39.5C39.5 49.0942 38.2114 50.889 36.3795 51.6331L36.7559 52.5596L37.1322 53.4861C39.6912 52.4467 41.5 49.9369 41.5 47H40.5ZM36.7559 52.5596L35.7608 52.659L36.2061 57.1141L37.2012 57.0146L38.1962 56.9152L37.7509 52.4601L36.7559 52.5596ZM37.2012 57.0146L36.2061 57.1142C36.3071 58.124 35.5143 59 34.5 59V60V61C36.6981 61 38.4149 59.1018 38.1962 56.9151L37.2012 57.0146ZM34.5 60V59C33.4857 59 32.6929 58.124 32.7939 57.1142L31.7988 57.0146L30.8038 56.9151C30.5851 59.1018 32.3019 61 34.5 61V60ZM31.7988 57.0146L32.7939 57.1139L33.2382 52.6588L32.2432 52.5596L31.2481 52.4603L30.8038 56.9154L31.7988 57.0146ZM32.2432 52.5596L32.6196 51.6331C30.7882 50.889 29.5 49.094 29.5 47H28.5H27.5C27.5 49.9364 29.3081 52.4464 31.8667 53.486L32.2432 52.5596ZM28.5 47H29.5C29.5 44.2386 31.7386 42 34.5 42V41V40C30.634 40 27.5 43.134 27.5 47H28.5Z" fill="#181221" mask="url(#path-4-inside-1_1_4742)"/>
</g>
</g>
</g>
</svg>
