<svg width="160" height="160" viewBox="0 0 160 160" fill="none" xmlns="http://www.w3.org/2000/svg">
<circle cx="80" cy="80" r="79.5" fill="white" stroke="#00B5A6"/>
<circle cx="80" cy="80" r="50" fill="#00B5A6"/>
<path d="M64.8041 86.32C62.8707 86.32 61.3707 85.9133 60.3041 85.1C59.2374 84.2733 58.6774 83.1 58.6241 81.58H61.4641C61.5574 82.4333 61.8574 83.0467 62.3641 83.42C62.8841 83.7933 63.6574 83.98 64.6841 83.98C65.4974 83.98 66.1641 83.8333 66.6841 83.54C67.2041 83.2333 67.4641 82.7667 67.4641 82.14C67.4641 81.9133 67.4307 81.7133 67.3641 81.54C67.3107 81.3533 67.1907 81.1933 67.0041 81.06C66.8174 80.9133 66.6574 80.8 66.5241 80.72C66.3907 80.6267 66.1441 80.5333 65.7841 80.44C65.4241 80.3333 65.1507 80.26 64.9641 80.22C64.7774 80.1667 64.4307 80.08 63.9241 79.96C63.3107 79.8133 62.8041 79.6867 62.4041 79.58C62.0174 79.4733 61.5841 79.3067 61.1041 79.08C60.6374 78.8533 60.2641 78.6067 59.9841 78.34C59.7174 78.06 59.4907 77.7 59.3041 77.26C59.1174 76.8067 59.0241 76.2933 59.0241 75.72C59.0241 74.3467 59.5241 73.2933 60.5241 72.56C61.5374 71.8133 62.8641 71.44 64.5041 71.44C66.1307 71.44 67.4307 71.8267 68.4041 72.6C69.3774 73.3733 69.9174 74.4733 70.0241 75.9H67.2441C67.1641 75.2067 66.8707 74.6733 66.3641 74.3C65.8707 73.9267 65.2441 73.74 64.4841 73.74C63.6974 73.74 63.0707 73.8933 62.6041 74.2C62.1374 74.5067 61.9041 74.9133 61.9041 75.42C61.9041 75.9667 62.1307 76.3667 62.5841 76.62C63.0507 76.8733 63.8641 77.1267 65.0241 77.38C65.7174 77.5267 66.2841 77.6667 66.7241 77.8C67.1641 77.92 67.6374 78.1 68.1441 78.34C68.6641 78.5667 69.0641 78.82 69.3441 79.1C69.6374 79.38 69.8774 79.7533 70.0641 80.22C70.2641 80.6733 70.3641 81.2 70.3641 81.8C70.3641 83.2133 69.8507 84.32 68.8241 85.12C67.7974 85.92 66.4574 86.32 64.8041 86.32ZM71.1784 77.54V75.74H72.5984V72.54H75.2584V75.74H77.0184V77.54H75.2584V82.98C75.2584 83.66 75.5984 84 76.2784 84L77.0784 83.98V85.98C76.6651 86.0067 76.0984 86.02 75.3784 86.02C74.5918 86.02 73.9318 85.8333 73.3984 85.46C72.8651 85.0733 72.5984 84.44 72.5984 83.56V77.54H71.1784ZM84.9767 86C84.8434 85.8267 84.7367 85.4467 84.6567 84.86H84.6167C84.3234 85.3 83.9501 85.64 83.4967 85.88C83.0434 86.12 82.4101 86.24 81.5967 86.24C80.5167 86.24 79.6501 85.9667 78.9967 85.42C78.3434 84.8733 78.0167 84.1 78.0167 83.1C78.0167 82.06 78.3767 81.3 79.0967 80.82C79.8167 80.3267 80.8301 79.9867 82.1367 79.8C83.0967 79.6667 83.7501 79.5333 84.0967 79.4C84.4434 79.2533 84.6167 79 84.6167 78.64C84.6167 78.2667 84.4701 77.9733 84.1767 77.76C83.8834 77.5333 83.4567 77.42 82.8967 77.42C81.6567 77.42 80.9967 77.9 80.9167 78.86H78.4967C78.5367 77.8867 78.9301 77.08 79.6767 76.44C80.4234 75.8 81.5034 75.48 82.9167 75.48C85.7967 75.48 87.2367 76.74 87.2367 79.26V84.48C87.2367 85.2533 87.3567 85.7267 87.5967 85.9V86H84.9767ZM82.2567 84.34C83.0034 84.34 83.5901 84.1467 84.0167 83.76C84.4567 83.3733 84.6767 82.9133 84.6767 82.38V80.84C84.3834 81.0133 83.7501 81.2133 82.7767 81.44C82.0034 81.6133 81.4567 81.8133 81.1367 82.04C80.8167 82.2533 80.6567 82.5867 80.6567 83.04C80.6567 83.9067 81.1901 84.34 82.2567 84.34ZM91.5859 75.74V77.38H91.6459C91.9659 76.78 92.3193 76.34 92.7059 76.06C93.0926 75.7667 93.5793 75.62 94.1659 75.62C94.4459 75.62 94.6593 75.6467 94.8059 75.7V78.08H94.7459C93.8259 77.9867 93.0859 78.1867 92.5259 78.68C91.9659 79.1733 91.6859 79.9467 91.6859 81V86H88.9659V75.74H91.5859ZM95.4753 77.54V75.74H96.8953V72.54H99.5553V75.74H101.315V77.54H99.5553V82.98C99.5553 83.66 99.8953 84 100.575 84L101.375 83.98V85.98C100.962 86.0067 100.395 86.02 99.6753 86.02C98.8886 86.02 98.2286 85.8333 97.6953 85.46C97.162 85.0733 96.8953 84.44 96.8953 83.56V77.54H95.4753Z" fill="white"/>
</svg>
