<svg width="295" height="320" viewBox="0 0 295 320" fill="none" xmlns="http://www.w3.org/2000/svg">
<rect width="295" height="320" rx="12" fill="#F2EFF6"/>
<mask id="mask0_1_4544" style="mask-type:alpha" maskUnits="userSpaceOnUse" x="0" y="0" width="295" height="320">
<rect width="295" height="320" rx="12" fill="#F2EFF6"/>
</mask>
<g mask="url(#mask0_1_4544)">
<path d="M32 100C32 86.7452 42.7452 76 56 76H203C216.255 76 227 86.7452 227 100V320H32V100Z" fill="#181221"/>
<path d="M40 100C40 91.1634 47.1634 84 56 84H203C211.837 84 219 91.1634 219 100V320H40V100Z" fill="white"/>
<rect x="52" y="239" width="155" height="60" rx="8" fill="#F5F5F5"/>
<rect x="72" y="273" width="115" height="4" rx="2" fill="#C1CBD2"/>
<rect x="92" y="285" width="75" height="4" rx="2" fill="#C1CBD2"/>
<path d="M109.79 260L109.74 259.04H109.72C109.28 259.78 108.61 260.15 107.71 260.15C106.663 260.15 105.827 259.803 105.2 259.11C104.58 258.417 104.27 257.53 104.27 256.45C104.27 255.223 104.66 254.25 105.44 253.53C106.04 252.983 106.807 252.71 107.74 252.71C108.613 252.71 109.31 252.927 109.83 253.36C110.357 253.793 110.68 254.373 110.8 255.1H109.38C109.293 254.74 109.113 254.453 108.84 254.24C108.567 254.02 108.21 253.91 107.77 253.91C107.123 253.91 106.623 254.147 106.27 254.62C105.923 255.093 105.75 255.703 105.75 256.45C105.75 257.19 105.93 257.797 106.29 258.27C106.657 258.743 107.143 258.98 107.75 258.98C108.283 258.98 108.723 258.817 109.07 258.49C109.417 258.157 109.59 257.78 109.59 257.36V257.32H107.87V256.2H110.88V260H109.79ZM113.094 254.87V255.69H113.124C113.284 255.39 113.46 255.17 113.654 255.03C113.847 254.883 114.09 254.81 114.384 254.81C114.524 254.81 114.63 254.823 114.704 254.85V256.04H114.674C114.214 255.993 113.844 256.093 113.564 256.34C113.284 256.587 113.144 256.973 113.144 257.5V260H111.784V254.87H113.094ZM117.553 260.15C116.726 260.15 116.076 259.897 115.603 259.39C115.13 258.877 114.893 258.223 114.893 257.43C114.893 256.663 115.13 256.023 115.603 255.51C116.076 254.99 116.683 254.73 117.423 254.73C118.23 254.73 118.853 255.01 119.293 255.57C119.733 256.13 119.953 256.88 119.953 257.82H116.233C116.286 258.227 116.423 258.543 116.643 258.77C116.863 258.99 117.163 259.1 117.543 259.1C118.043 259.1 118.373 258.89 118.533 258.47H119.873C119.773 258.95 119.52 259.35 119.113 259.67C118.706 259.99 118.186 260.15 117.553 260.15ZM117.443 255.78C116.783 255.78 116.386 256.147 116.253 256.88H118.533C118.513 256.553 118.403 256.29 118.203 256.09C118.003 255.883 117.75 255.78 117.443 255.78ZM123.813 260C123.746 259.913 123.693 259.723 123.653 259.43H123.633C123.486 259.65 123.299 259.82 123.073 259.94C122.846 260.06 122.529 260.12 122.123 260.12C121.583 260.12 121.149 259.983 120.823 259.71C120.496 259.437 120.333 259.05 120.333 258.55C120.333 258.03 120.513 257.65 120.873 257.41C121.233 257.163 121.739 256.993 122.393 256.9C122.873 256.833 123.199 256.767 123.373 256.7C123.546 256.627 123.633 256.5 123.633 256.32C123.633 256.133 123.559 255.987 123.413 255.88C123.266 255.767 123.053 255.71 122.773 255.71C122.153 255.71 121.823 255.95 121.783 256.43H120.573C120.593 255.943 120.789 255.54 121.163 255.22C121.536 254.9 122.076 254.74 122.783 254.74C124.223 254.74 124.943 255.37 124.943 256.63V259.24C124.943 259.627 125.003 259.863 125.123 259.95V260H123.813ZM122.453 259.17C122.826 259.17 123.119 259.073 123.333 258.88C123.553 258.687 123.663 258.457 123.663 258.19V257.42C123.516 257.507 123.199 257.607 122.713 257.72C122.326 257.807 122.053 257.907 121.893 258.02C121.733 258.127 121.653 258.293 121.653 258.52C121.653 258.953 121.919 259.17 122.453 259.17ZM125.41 255.77V254.87H126.12V253.27H127.45V254.87H128.33V255.77H127.45V258.49C127.45 258.83 127.62 259 127.96 259L128.36 258.99V259.99C128.153 260.003 127.87 260.01 127.51 260.01C127.116 260.01 126.786 259.917 126.52 259.73C126.253 259.537 126.12 259.22 126.12 258.78V255.77H125.41ZM131.81 260L130.31 254.87H131.66L132.28 257.25L132.51 258.21H132.53C132.603 257.843 132.676 257.52 132.75 257.24L133.39 254.87H134.55L135.22 257.24L135.46 258.21H135.48C135.56 257.85 135.636 257.53 135.71 257.25L136.36 254.87H137.68L136.15 260H134.91L134.23 257.48L134 256.59H133.98C133.893 256.91 133.813 257.207 133.74 257.48L133.04 260H131.81ZM142.374 259.38C141.874 259.893 141.231 260.15 140.444 260.15C139.658 260.15 139.014 259.893 138.514 259.38C138.014 258.86 137.764 258.213 137.764 257.44C137.764 256.667 138.014 256.023 138.514 255.51C139.014 254.99 139.658 254.73 140.444 254.73C141.231 254.73 141.874 254.99 142.374 255.51C142.874 256.023 143.124 256.667 143.124 257.44C143.124 258.213 142.874 258.86 142.374 259.38ZM140.444 259.11C140.851 259.11 141.168 258.96 141.394 258.66C141.628 258.353 141.744 257.947 141.744 257.44C141.744 256.933 141.628 256.527 141.394 256.22C141.168 255.913 140.851 255.76 140.444 255.76C140.031 255.76 139.711 255.913 139.484 256.22C139.258 256.52 139.144 256.927 139.144 257.44C139.144 257.947 139.258 258.353 139.484 258.66C139.711 258.96 140.031 259.11 140.444 259.11ZM145.066 254.87V255.69H145.096C145.256 255.39 145.433 255.17 145.626 255.03C145.82 254.883 146.063 254.81 146.356 254.81C146.496 254.81 146.603 254.823 146.676 254.85V256.04H146.646C146.186 255.993 145.816 256.093 145.536 256.34C145.256 256.587 145.116 256.973 145.116 257.5V260H143.756V254.87H145.066ZM150.642 260L149.202 257.66L148.612 258.27V260H147.262V252.85H148.612V256.81L150.432 254.87H152.062L150.172 256.82L152.292 260H150.642ZM153.221 257.91L152.841 254.43V252.85H154.261V254.43L153.881 257.91H153.221ZM152.821 260V258.55H154.281V260H152.821Z" fill="#090909"/>
<rect x="61" y="207" width="68" height="20" rx="8" fill="#FFF2E5"/>
<path d="M69.1 220L71.73 212.85H72.74L75.38 220H74.4L73.64 217.82H70.79L70.02 220H69.1ZM71.9 214.69L71.05 217.09H73.39L72.57 214.69L72.25 213.68H72.23C72.1033 214.08 71.9933 214.417 71.9 214.69ZM76.954 220L75.144 214.83H76.014L77.084 218.11L77.424 219.2H77.444C77.5707 218.773 77.684 218.41 77.784 218.11L78.874 214.83H79.714L77.854 220H76.954ZM82.4357 220.14C81.669 220.14 81.059 219.883 80.6057 219.37C80.159 218.85 79.9357 218.2 79.9357 217.42C79.9357 216.653 80.1624 216.01 80.6157 215.49C81.0757 214.963 81.6657 214.7 82.3857 214.7C83.1457 214.7 83.7324 214.967 84.1457 215.5C84.559 216.027 84.7657 216.73 84.7657 217.61H80.7657C80.799 218.157 80.959 218.603 81.2457 218.95C81.539 219.29 81.9357 219.46 82.4357 219.46C83.209 219.46 83.6857 219.107 83.8657 218.4H84.6557C84.5357 218.953 84.2824 219.383 83.8957 219.69C83.509 219.99 83.0224 220.14 82.4357 220.14ZM83.4657 215.78C83.2057 215.487 82.8457 215.34 82.3857 215.34C81.9257 215.34 81.559 215.493 81.2857 215.8C81.019 216.107 80.8524 216.507 80.7857 217H83.8957C83.869 216.48 83.7257 216.073 83.4657 215.78ZM86.4077 214.83V215.69H86.4277C86.5944 215.417 86.8111 215.197 87.0777 215.03C87.3444 214.857 87.6411 214.77 87.9677 214.77C88.0877 214.77 88.1977 214.79 88.2977 214.83V215.61H88.2677C88.1677 215.577 88.0477 215.56 87.9077 215.56C87.4944 215.56 87.1411 215.707 86.8477 216C86.5544 216.287 86.4077 216.663 86.4077 217.13V220H85.5977V214.83H86.4077ZM92.9302 220.05C92.4168 220.05 92.1202 219.793 92.0402 219.28H92.0302C91.6035 219.827 91.0302 220.1 90.3102 220.1C89.7968 220.1 89.3768 219.977 89.0502 219.73C88.7235 219.483 88.5602 219.127 88.5602 218.66C88.5602 218.42 88.5968 218.213 88.6702 218.04C88.7502 217.86 88.8502 217.717 88.9702 217.61C89.0902 217.497 89.2535 217.4 89.4602 217.32C89.6735 217.233 89.8768 217.17 90.0702 217.13C90.2635 217.083 90.5102 217.037 90.8102 216.99C91.0035 216.963 91.1402 216.943 91.2202 216.93C91.3068 216.91 91.4168 216.883 91.5502 216.85C91.6835 216.81 91.7768 216.767 91.8302 216.72C91.8835 216.673 91.9335 216.61 91.9802 216.53C92.0268 216.45 92.0502 216.357 92.0502 216.25C92.0502 215.957 91.9468 215.733 91.7402 215.58C91.5402 215.42 91.2568 215.34 90.8902 215.34C90.0568 215.34 89.6268 215.72 89.6002 216.48H88.8202C88.8335 215.953 89.0135 215.53 89.3602 215.21C89.7135 214.89 90.2202 214.73 90.8802 214.73C92.1535 214.73 92.7902 215.277 92.7902 216.37V218.83C92.7902 219.057 92.8268 219.217 92.9002 219.31C92.9802 219.403 93.1268 219.427 93.3402 219.38H93.3702V219.97C93.2368 220.023 93.0902 220.05 92.9302 220.05ZM90.4902 219.48C90.9902 219.48 91.3768 219.337 91.6502 219.05C91.9235 218.757 92.0602 218.437 92.0602 218.09V217.21C91.8135 217.363 91.4202 217.49 90.8802 217.59C90.6802 217.63 90.5235 217.663 90.4102 217.69C90.2968 217.71 90.1668 217.75 90.0202 217.81C89.8735 217.863 89.7635 217.923 89.6902 217.99C89.6168 218.057 89.5535 218.147 89.5002 218.26C89.4468 218.367 89.4202 218.493 89.4202 218.64C89.4202 219.2 89.7768 219.48 90.4902 219.48ZM96.0678 221.72C95.4078 221.72 94.8878 221.593 94.5078 221.34C94.1345 221.093 93.9245 220.743 93.8778 220.29H94.6278C94.7011 220.817 95.1745 221.08 96.0478 221.08C97.0345 221.08 97.5278 220.637 97.5278 219.75V219.02H97.5078C97.3011 219.287 97.0811 219.487 96.8478 219.62C96.6145 219.753 96.3245 219.82 95.9778 219.82C95.3111 219.82 94.7678 219.58 94.3478 219.1C93.9278 218.62 93.7178 218.007 93.7178 217.26C93.7178 216.48 93.9278 215.86 94.3478 215.4C94.7745 214.94 95.3011 214.71 95.9278 214.71C96.6078 214.71 97.1345 214.97 97.5078 215.49H97.5278V214.83H98.3378V219.72C98.3378 220.38 98.1345 220.877 97.7278 221.21C97.3278 221.55 96.7745 221.72 96.0678 221.72ZM96.0178 219.14C97.0645 219.14 97.5878 218.5 97.5878 217.22C97.5878 216 97.0611 215.39 96.0078 215.39C95.5345 215.39 95.1711 215.56 94.9178 215.9C94.6711 216.24 94.5478 216.697 94.5478 217.27C94.5478 217.843 94.6745 218.3 94.9278 218.64C95.1811 218.973 95.5445 219.14 96.0178 219.14ZM101.688 220.14C100.921 220.14 100.311 219.883 99.8575 219.37C99.4108 218.85 99.1875 218.2 99.1875 217.42C99.1875 216.653 99.4142 216.01 99.8675 215.49C100.327 214.963 100.917 214.7 101.638 214.7C102.397 214.7 102.984 214.967 103.398 215.5C103.811 216.027 104.017 216.73 104.017 217.61H100.017C100.051 218.157 100.211 218.603 100.497 218.95C100.791 219.29 101.187 219.46 101.688 219.46C102.461 219.46 102.938 219.107 103.118 218.4H103.908C103.787 218.953 103.534 219.383 103.147 219.69C102.761 219.99 102.274 220.14 101.688 220.14ZM102.717 215.78C102.457 215.487 102.097 215.34 101.638 215.34C101.177 215.34 100.811 215.493 100.537 215.8C100.271 216.107 100.104 216.507 100.037 217H103.147C103.121 216.48 102.977 216.073 102.717 215.78Z" fill="#090909"/>
<path d="M110.51 220C110.536 219.213 110.686 218.433 110.96 217.66C111.24 216.88 111.55 216.233 111.89 215.72C112.23 215.2 112.593 214.74 112.98 214.34V214.32H109.58V213.15H114.46V214.27C113.78 214.963 113.21 215.8 112.75 216.78C112.29 217.76 112.036 218.833 111.99 220H110.51ZM117.664 220.15C116.857 220.15 116.19 219.963 115.664 219.59C115.137 219.21 114.874 218.687 114.874 218.02C114.874 217.6 114.987 217.233 115.214 216.92C115.44 216.6 115.744 216.367 116.124 216.22V216.19C115.484 215.897 115.164 215.443 115.164 214.83C115.164 214.257 115.39 213.81 115.844 213.49C116.297 213.17 116.9 213.01 117.654 213.01C118.4 213.01 118.994 213.17 119.434 213.49C119.874 213.803 120.094 214.243 120.094 214.81C120.094 215.423 119.777 215.88 119.144 216.18V216.21C119.524 216.343 119.824 216.567 120.044 216.88C120.27 217.187 120.384 217.547 120.384 217.96C120.384 218.647 120.13 219.183 119.624 219.57C119.117 219.957 118.464 220.15 117.664 220.15ZM117.634 219.05C118.034 219.05 118.357 218.953 118.604 218.76C118.857 218.56 118.984 218.297 118.984 217.97C118.984 217.617 118.864 217.337 118.624 217.13C118.39 216.917 118.067 216.81 117.654 216.81C117.234 216.81 116.9 216.917 116.654 217.13C116.407 217.337 116.284 217.617 116.284 217.97C116.284 218.303 116.404 218.567 116.644 218.76C116.89 218.953 117.22 219.05 117.634 219.05ZM117.634 215.86C117.98 215.86 118.254 215.777 118.454 215.61C118.66 215.437 118.764 215.213 118.764 214.94C118.764 214.667 118.664 214.45 118.464 214.29C118.264 214.123 117.987 214.04 117.634 214.04C117.28 214.04 117 214.123 116.794 214.29C116.594 214.45 116.494 214.667 116.494 214.94C116.494 215.213 116.594 215.437 116.794 215.61C117 215.777 117.28 215.86 117.634 215.86Z" fill="#FF8B18"/>
<rect x="137" y="207" width="61" height="20" rx="8" fill="#E9FEF2"/>
<path d="M145.22 213.64V212.85H150.88V213.64H148.5V220H147.6V213.64H145.22ZM154.601 220.05C154.088 220.05 153.791 219.793 153.711 219.28H153.701C153.275 219.827 152.701 220.1 151.981 220.1C151.468 220.1 151.048 219.977 150.721 219.73C150.395 219.483 150.231 219.127 150.231 218.66C150.231 218.42 150.268 218.213 150.341 218.04C150.421 217.86 150.521 217.717 150.641 217.61C150.761 217.497 150.925 217.4 151.131 217.32C151.345 217.233 151.548 217.17 151.741 217.13C151.935 217.083 152.181 217.037 152.481 216.99C152.675 216.963 152.811 216.943 152.891 216.93C152.978 216.91 153.088 216.883 153.221 216.85C153.355 216.81 153.448 216.767 153.501 216.72C153.555 216.673 153.605 216.61 153.651 216.53C153.698 216.45 153.721 216.357 153.721 216.25C153.721 215.957 153.618 215.733 153.411 215.58C153.211 215.42 152.928 215.34 152.561 215.34C151.728 215.34 151.298 215.72 151.271 216.48H150.491C150.505 215.953 150.685 215.53 151.031 215.21C151.385 214.89 151.891 214.73 152.551 214.73C153.825 214.73 154.461 215.277 154.461 216.37V218.83C154.461 219.057 154.498 219.217 154.571 219.31C154.651 219.403 154.798 219.427 155.011 219.38H155.041V219.97C154.908 220.023 154.761 220.05 154.601 220.05ZM152.161 219.48C152.661 219.48 153.048 219.337 153.321 219.05C153.595 218.757 153.731 218.437 153.731 218.09V217.21C153.485 217.363 153.091 217.49 152.551 217.59C152.351 217.63 152.195 217.663 152.081 217.69C151.968 217.71 151.838 217.75 151.691 217.81C151.545 217.863 151.435 217.923 151.361 217.99C151.288 218.057 151.225 218.147 151.171 218.26C151.118 218.367 151.091 218.493 151.091 218.64C151.091 219.2 151.448 219.48 152.161 219.48ZM156.489 214.83V215.69H156.509C156.675 215.417 156.892 215.197 157.159 215.03C157.425 214.857 157.722 214.77 158.049 214.77C158.169 214.77 158.279 214.79 158.379 214.83V215.61H158.349C158.249 215.577 158.129 215.56 157.989 215.56C157.575 215.56 157.222 215.707 156.929 216C156.635 216.287 156.489 216.663 156.489 217.13V220H155.679V214.83H156.489ZM161.011 221.72C160.351 221.72 159.831 221.593 159.451 221.34C159.078 221.093 158.868 220.743 158.821 220.29H159.571C159.645 220.817 160.118 221.08 160.991 221.08C161.978 221.08 162.471 220.637 162.471 219.75V219.02H162.451C162.245 219.287 162.025 219.487 161.791 219.62C161.558 219.753 161.268 219.82 160.921 219.82C160.255 219.82 159.711 219.58 159.291 219.1C158.871 218.62 158.661 218.007 158.661 217.26C158.661 216.48 158.871 215.86 159.291 215.4C159.718 214.94 160.245 214.71 160.871 214.71C161.551 214.71 162.078 214.97 162.451 215.49H162.471V214.83H163.281V219.72C163.281 220.38 163.078 220.877 162.671 221.21C162.271 221.55 161.718 221.72 161.011 221.72ZM160.961 219.14C162.008 219.14 162.531 218.5 162.531 217.22C162.531 216 162.005 215.39 160.951 215.39C160.478 215.39 160.115 215.56 159.861 215.9C159.615 216.24 159.491 216.697 159.491 217.27C159.491 217.843 159.618 218.3 159.871 218.64C160.125 218.973 160.488 219.14 160.961 219.14ZM166.631 220.14C165.864 220.14 165.254 219.883 164.801 219.37C164.354 218.85 164.131 218.2 164.131 217.42C164.131 216.653 164.358 216.01 164.811 215.49C165.271 214.963 165.861 214.7 166.581 214.7C167.341 214.7 167.928 214.967 168.341 215.5C168.754 216.027 168.961 216.73 168.961 217.61H164.961C164.994 218.157 165.154 218.603 165.441 218.95C165.734 219.29 166.131 219.46 166.631 219.46C167.404 219.46 167.881 219.107 168.061 218.4H168.851C168.731 218.953 168.478 219.383 168.091 219.69C167.704 219.99 167.218 220.14 166.631 220.14ZM167.661 215.78C167.401 215.487 167.041 215.34 166.581 215.34C166.121 215.34 165.754 215.493 165.481 215.8C165.214 216.107 165.048 216.507 164.981 217H168.091C168.064 216.48 167.921 216.073 167.661 215.78ZM169.365 215.49V214.83H170.115V213.2H170.925V214.83H171.925V215.49H170.925V218.85C170.925 219.17 171.099 219.33 171.445 219.33C171.592 219.33 171.735 219.307 171.875 219.26H171.905V219.96C171.685 220.007 171.469 220.03 171.255 220.03C170.495 220.03 170.115 219.697 170.115 219.03V215.49H169.365Z" fill="#090909"/>
<path d="M180.402 220.15C179.595 220.15 178.929 219.963 178.402 219.59C177.875 219.21 177.612 218.687 177.612 218.02C177.612 217.6 177.725 217.233 177.952 216.92C178.179 216.6 178.482 216.367 178.862 216.22V216.19C178.222 215.897 177.902 215.443 177.902 214.83C177.902 214.257 178.129 213.81 178.582 213.49C179.035 213.17 179.639 213.01 180.392 213.01C181.139 213.01 181.732 213.17 182.172 213.49C182.612 213.803 182.832 214.243 182.832 214.81C182.832 215.423 182.515 215.88 181.882 216.18V216.21C182.262 216.343 182.562 216.567 182.782 216.88C183.009 217.187 183.122 217.547 183.122 217.96C183.122 218.647 182.869 219.183 182.362 219.57C181.855 219.957 181.202 220.15 180.402 220.15ZM180.372 219.05C180.772 219.05 181.095 218.953 181.342 218.76C181.595 218.56 181.722 218.297 181.722 217.97C181.722 217.617 181.602 217.337 181.362 217.13C181.129 216.917 180.805 216.81 180.392 216.81C179.972 216.81 179.639 216.917 179.392 217.13C179.145 217.337 179.022 217.617 179.022 217.97C179.022 218.303 179.142 218.567 179.382 218.76C179.629 218.953 179.959 219.05 180.372 219.05ZM180.372 215.86C180.719 215.86 180.992 215.777 181.192 215.61C181.399 215.437 181.502 215.213 181.502 214.94C181.502 214.667 181.402 214.45 181.202 214.29C181.002 214.123 180.725 214.04 180.372 214.04C180.019 214.04 179.739 214.123 179.532 214.29C179.332 214.45 179.232 214.667 179.232 214.94C179.232 215.213 179.332 215.437 179.532 215.61C179.739 215.777 180.019 215.86 180.372 215.86ZM186.46 220.16C185.586 220.16 184.89 219.837 184.37 219.19C183.856 218.543 183.6 217.673 183.6 216.58C183.6 215.487 183.86 214.617 184.38 213.97C184.9 213.323 185.596 213 186.47 213C187.35 213 188.043 213.323 188.55 213.97C189.063 214.61 189.32 215.48 189.32 216.58C189.32 217.673 189.063 218.543 188.55 219.19C188.043 219.837 187.346 220.16 186.46 220.16ZM186.47 219C187.423 219 187.9 218.193 187.9 216.58C187.9 215.82 187.783 215.227 187.55 214.8C187.316 214.373 186.956 214.16 186.47 214.16C185.976 214.16 185.61 214.373 185.37 214.8C185.136 215.227 185.02 215.82 185.02 216.58C185.02 217.34 185.136 217.933 185.37 218.36C185.61 218.787 185.976 219 186.47 219Z" fill="#00B84A"/>
<path d="M179 174C179 146.386 156.614 124 129 124C101.386 124 79 146.386 79 174" stroke="#EEEEEE" stroke-width="8" stroke-linecap="round"/>
<path d="M79 174C79 146.386 101.386 124 129 124C138.091 124 146.616 126.426 153.961 130.667" stroke="#9D86BD" stroke-width="8" stroke-linecap="round"/>
<path d="M122.335 173.32C120.882 173.32 119.702 172.987 118.795 172.32C117.888 171.64 117.335 170.733 117.135 169.6H120.335C120.588 170.467 121.228 170.9 122.255 170.9C123.042 170.9 123.635 170.64 124.035 170.12C124.515 169.547 124.775 168.64 124.815 167.4H124.775C123.948 168.293 122.928 168.74 121.715 168.74C120.302 168.74 119.115 168.293 118.155 167.4C117.195 166.507 116.715 165.34 116.715 163.9C116.715 162.447 117.228 161.273 118.255 160.38C119.295 159.473 120.622 159.02 122.235 159.02C123.982 159.02 125.355 159.533 126.355 160.56C127.555 161.72 128.155 163.553 128.155 166.06C128.155 168.367 127.682 170.14 126.735 171.38C125.735 172.673 124.268 173.32 122.335 173.32ZM122.315 166.26C123.022 166.26 123.602 166.04 124.055 165.6C124.522 165.16 124.755 164.593 124.755 163.9C124.755 163.207 124.522 162.64 124.055 162.2C123.602 161.747 123.022 161.52 122.315 161.52C121.608 161.52 121.028 161.747 120.575 162.2C120.135 162.64 119.915 163.2 119.915 163.88C119.915 164.573 120.128 165.147 120.555 165.6C120.995 166.04 121.582 166.26 122.315 166.26ZM135.179 170.68C136.899 170.68 137.759 169.173 137.759 166.16C137.759 164.76 137.545 163.653 137.119 162.84C136.705 162.027 136.059 161.62 135.179 161.62C134.299 161.62 133.645 162.027 133.219 162.84C132.792 163.64 132.579 164.747 132.579 166.16C132.579 167.573 132.792 168.68 133.219 169.48C133.645 170.28 134.299 170.68 135.179 170.68ZM135.159 173.32C133.359 173.32 131.899 172.667 130.779 171.36C129.672 170.053 129.119 168.32 129.119 166.16C129.119 163.987 129.672 162.253 130.779 160.96C131.899 159.653 133.365 159 135.179 159C137.019 159 138.485 159.653 139.579 160.96C140.685 162.253 141.239 163.987 141.239 166.16C141.239 168.333 140.679 170.073 139.559 171.38C138.452 172.673 136.985 173.32 135.159 173.32Z" fill="#090909"/>
<path d="M107.706 193.71C107.399 193.71 107.156 193.673 106.976 193.6V192.88H107.016C107.149 192.953 107.332 192.99 107.566 192.99C107.746 192.99 107.896 192.943 108.016 192.85C108.136 192.763 108.242 192.6 108.336 192.36L108.536 191.85L106.516 186.83H107.396L108.616 190.05L108.966 191.06H108.986C109.106 190.673 109.219 190.337 109.326 190.05L110.506 186.83H111.366L109.156 192.42C108.956 192.927 108.749 193.267 108.536 193.44C108.322 193.62 108.046 193.71 107.706 193.71ZM115.901 191.36C115.447 191.88 114.844 192.14 114.091 192.14C113.337 192.14 112.731 191.88 112.271 191.36C111.817 190.84 111.591 190.193 111.591 189.42C111.591 188.647 111.817 188 112.271 187.48C112.731 186.96 113.337 186.7 114.091 186.7C114.844 186.7 115.447 186.96 115.901 187.48C116.354 188 116.581 188.647 116.581 189.42C116.581 190.193 116.354 190.84 115.901 191.36ZM112.851 190.89C113.144 191.27 113.557 191.46 114.091 191.46C114.624 191.46 115.034 191.27 115.321 190.89C115.607 190.503 115.751 190.013 115.751 189.42C115.751 188.82 115.604 188.33 115.311 187.95C115.024 187.563 114.617 187.37 114.091 187.37C113.557 187.37 113.144 187.563 112.851 187.95C112.564 188.337 112.421 188.827 112.421 189.42C112.421 190.013 112.564 190.503 112.851 190.89ZM121.529 192H120.719V191.29H120.699C120.292 191.843 119.772 192.12 119.139 192.12C118.605 192.12 118.182 191.97 117.869 191.67C117.555 191.363 117.399 190.943 117.399 190.41V186.83H118.209V190.39C118.209 190.723 118.309 190.983 118.509 191.17C118.715 191.357 119.002 191.45 119.369 191.45C119.775 191.45 120.102 191.313 120.349 191.04C120.595 190.767 120.719 190.423 120.719 190.01V186.83H121.529V192ZM123.474 186.83V187.69H123.494C123.66 187.417 123.877 187.197 124.144 187.03C124.41 186.857 124.707 186.77 125.034 186.77C125.154 186.77 125.264 186.79 125.364 186.83V187.61H125.334C125.234 187.577 125.114 187.56 124.974 187.56C124.56 187.56 124.207 187.707 123.914 188C123.62 188.287 123.474 188.663 123.474 189.13V192H122.664V186.83H123.474ZM129.723 192.15C129.017 192.15 128.467 191.993 128.073 191.68C127.687 191.36 127.473 190.907 127.433 190.32H128.263C128.357 191.087 128.85 191.47 129.743 191.47C130.15 191.47 130.45 191.393 130.643 191.24C130.843 191.08 130.943 190.873 130.943 190.62C130.943 190.347 130.847 190.15 130.653 190.03C130.46 189.91 130.107 189.797 129.593 189.69C129.38 189.643 129.21 189.607 129.083 189.58C128.963 189.547 128.817 189.503 128.643 189.45C128.47 189.39 128.333 189.327 128.233 189.26C128.14 189.187 128.043 189.1 127.943 189C127.843 188.9 127.77 188.777 127.723 188.63C127.683 188.483 127.663 188.32 127.663 188.14C127.663 187.7 127.823 187.353 128.143 187.1C128.47 186.847 128.93 186.72 129.523 186.72C130.75 186.72 131.427 187.26 131.553 188.34H130.723C130.683 188 130.567 187.753 130.373 187.6C130.18 187.44 129.89 187.36 129.503 187.36C129.15 187.36 128.887 187.43 128.713 187.57C128.547 187.703 128.463 187.88 128.463 188.1C128.463 188.353 128.563 188.533 128.763 188.64C128.963 188.74 129.327 188.843 129.853 188.95C130.173 189.017 130.423 189.08 130.603 189.14C130.79 189.193 130.983 189.28 131.183 189.4C131.383 189.513 131.53 189.667 131.623 189.86C131.717 190.053 131.763 190.293 131.763 190.58C131.763 191.087 131.577 191.477 131.203 191.75C130.83 192.017 130.337 192.15 129.723 192.15ZM134.886 192.14C134.133 192.14 133.526 191.88 133.066 191.36C132.613 190.84 132.386 190.193 132.386 189.42C132.386 188.647 132.613 188 133.066 187.48C133.526 186.96 134.133 186.7 134.886 186.7C135.493 186.7 135.99 186.863 136.376 187.19C136.763 187.51 137.003 187.947 137.096 188.5H136.276C136.216 188.147 136.066 187.87 135.826 187.67C135.586 187.47 135.273 187.37 134.886 187.37C134.353 187.37 133.94 187.563 133.646 187.95C133.36 188.337 133.216 188.827 133.216 189.42C133.216 190.013 133.36 190.503 133.646 190.89C133.94 191.27 134.353 191.46 134.886 191.46C135.3 191.46 135.63 191.35 135.876 191.13C136.123 190.903 136.263 190.587 136.296 190.18H137.096C137.043 190.8 136.823 191.283 136.436 191.63C136.05 191.97 135.533 192.14 134.886 192.14ZM141.922 191.36C141.469 191.88 140.865 192.14 140.112 192.14C139.359 192.14 138.752 191.88 138.292 191.36C137.839 190.84 137.612 190.193 137.612 189.42C137.612 188.647 137.839 188 138.292 187.48C138.752 186.96 139.359 186.7 140.112 186.7C140.865 186.7 141.469 186.96 141.922 187.48C142.375 188 142.602 188.647 142.602 189.42C142.602 190.193 142.375 190.84 141.922 191.36ZM138.872 190.89C139.165 191.27 139.579 191.46 140.112 191.46C140.645 191.46 141.055 191.27 141.342 190.89C141.629 190.503 141.772 190.013 141.772 189.42C141.772 188.82 141.625 188.33 141.332 187.95C141.045 187.563 140.639 187.37 140.112 187.37C139.579 187.37 139.165 187.563 138.872 187.95C138.585 188.337 138.442 188.827 138.442 189.42C138.442 190.013 138.585 190.503 138.872 190.89ZM144.26 186.83V187.69H144.28C144.446 187.417 144.663 187.197 144.93 187.03C145.196 186.857 145.493 186.77 145.82 186.77C145.94 186.77 146.05 186.79 146.15 186.83V187.61H146.12C146.02 187.577 145.9 187.56 145.76 187.56C145.346 187.56 144.993 187.707 144.7 188C144.406 188.287 144.26 188.663 144.26 189.13V192H143.45V186.83H144.26ZM148.932 192.14C148.166 192.14 147.556 191.883 147.102 191.37C146.656 190.85 146.432 190.2 146.432 189.42C146.432 188.653 146.659 188.01 147.112 187.49C147.572 186.963 148.162 186.7 148.882 186.7C149.642 186.7 150.229 186.967 150.642 187.5C151.056 188.027 151.262 188.73 151.262 189.61H147.262C147.296 190.157 147.456 190.603 147.742 190.95C148.036 191.29 148.432 191.46 148.932 191.46C149.706 191.46 150.182 191.107 150.362 190.4H151.152C151.032 190.953 150.779 191.383 150.392 191.69C150.006 191.99 149.519 192.14 148.932 192.14ZM149.962 187.78C149.702 187.487 149.342 187.34 148.882 187.34C148.422 187.34 148.056 187.493 147.782 187.8C147.516 188.107 147.349 188.507 147.282 189H150.392C150.366 188.48 150.222 188.073 149.962 187.78Z" fill="#424242"/>
<rect x="117" y="92" width="25" height="8" rx="4" fill="#181221"/>
<path d="M251 217C258.18 217 264 222.82 264 230V296C264 303.18 258.18 309 251 309H185C177.82 309 172 303.18 172 296V230C172 222.82 177.82 217 185 217H251Z" fill="#FFF2E5" stroke="white" stroke-width="2"/>
<path d="M232 280H252V285C252 286.657 250.657 288 249 288H232V280Z" fill="white" stroke="#331A00"/>
<path opacity="0.25" d="M237 285V288" stroke="#331A00" stroke-linecap="round"/>
<path opacity="0.25" d="M243 285V288" stroke="#331A00" stroke-linecap="round"/>
<path opacity="0.25" d="M249 285V288" stroke="#331A00" stroke-linecap="round"/>
<path opacity="0.25" d="M240 284V288" stroke="#331A00" stroke-linecap="round"/>
<path opacity="0.25" d="M246 284V288" stroke="#331A00" stroke-linecap="round"/>
<path d="M245 274H250.405C252.277 274 253.692 275.695 253.357 277.537L252 285C252 283.343 250.657 282 249 282H243L245 274Z" fill="white" stroke="#331A00"/>
<path opacity="0.25" d="M250 279L249 282" stroke="#331A00" stroke-linecap="round"/>
<path opacity="0.25" d="M247.5 277.5L246 282" stroke="#331A00" stroke-linecap="round"/>
<path d="M251.205 247.431L251.633 247.859L230.075 294.896L192.875 290.979L192.452 290.557L215.973 245.474L251.205 247.431Z" fill="white" stroke="#331A00" stroke-width="1.5"/>
<path d="M249.298 247.972L228.618 293.093L193.766 289.424L214.447 244.303L249.298 247.972Z" fill="#D9D9D9" stroke="black" stroke-width="3"/>
<path d="M213.533 242.698L251.533 246.698L229.533 294.698L191.533 290.698L213.533 242.698Z" fill="#FFE6CC"/>
<path fill-rule="evenodd" clip-rule="evenodd" d="M215.362 245.907L196 288.152L227.704 291.489L247.066 249.244L215.362 245.907Z" fill="#FFCC99"/>
<path fill-rule="evenodd" clip-rule="evenodd" d="M215.362 245.907L212.775 251.552C208.137 261.671 200.776 270.3 191.516 276.474L186 280.152L217.704 283.489L223.219 279.811C232.48 273.637 239.841 265.008 244.478 254.89L247.066 249.244L215.362 245.907Z" fill="white"/>
<path d="M212.5 271L222 273" stroke="#FFB366" stroke-width="1.5" stroke-linecap="round"/>
<path d="M210.5 273.5L216.5 275" stroke="#FFB366" stroke-width="1.5" stroke-linecap="round"/>
<path d="M224.5 254.5L236.5 256" stroke="#FFB366" stroke-width="1.5" stroke-linecap="round"/>
<path d="M223.5 257.5L231.5 258.5" stroke="#FFB366" stroke-width="1.5" stroke-linecap="round"/>
<path d="M219 263L230 265" stroke="#FFB366" stroke-width="1.5" stroke-linecap="round"/>
<path d="M217 266L224.5 267.5" stroke="#FFB366" stroke-width="1.5" stroke-linecap="round"/>
<path d="M220.487 252.349L218.439 252.144C217.58 252.058 216.763 252.533 216.413 253.322L215.555 255.251C215.28 255.869 215.686 256.576 216.359 256.651L218.177 256.853C218.978 256.942 219.755 256.541 220.146 255.837L221.261 253.829C221.611 253.201 221.202 252.42 220.487 252.349Z" stroke="#331A00"/>
<path d="M215.699 260.32L213.599 260.11C212.915 260.042 212.244 260.329 211.822 260.872L210.111 263.071C209.628 263.692 210.018 264.602 210.801 264.68L212.901 264.89C213.585 264.958 214.256 264.671 214.678 264.128L216.389 261.929C216.872 261.308 216.482 260.398 215.699 260.32Z" stroke="#331A00"/>
<path d="M209.091 268.576L207.498 268.222C206.871 268.083 206.216 268.253 205.736 268.679L203.462 270.701C202.852 271.243 203.113 272.247 203.909 272.424L205.502 272.778C206.129 272.917 206.784 272.747 207.264 272.321L209.538 270.299C210.148 269.757 209.887 268.753 209.091 268.576Z" stroke="#331A00"/>
<path d="M236.808 249.121L224.897 247.844C224.223 247.772 223.815 247.064 224.09 246.444L225.237 243.864C225.413 243.467 225.825 243.23 226.257 243.276L238.168 244.552C238.842 244.624 239.251 245.333 238.975 245.952L237.829 248.532C237.652 248.929 237.24 249.167 236.808 249.121Z" fill="#331A00"/>
<path d="M234.533 241.197C234.033 239.697 232.033 239.697 231.033 240.697C230.033 241.697 229.533 243.198 229.533 243.698L234.033 244.198C234.533 243.698 234.933 242.397 234.533 241.197Z" fill="#331A00"/>
<path d="M235.808 249.121L223.897 247.844C223.223 247.772 222.815 247.064 223.09 246.444L224.237 243.864C224.413 243.467 224.825 243.23 225.257 243.276L237.168 244.552C237.842 244.624 238.251 245.333 237.975 245.952L236.829 248.532C236.652 248.929 236.24 249.167 235.808 249.121Z" fill="#FF8B18"/>
<path d="M233.533 241.197C233.033 239.697 231.033 239.697 230.033 240.697C229.033 241.697 228.533 243.198 228.533 243.698L233.033 244.198C233.533 243.698 233.933 242.397 233.533 241.197Z" fill="#FF8B18"/>
<ellipse cx="231.149" cy="242.497" rx="1" ry="1.5" transform="rotate(30 231.149 242.497)" fill="white"/>
<rect x="187" y="232" width="20" height="20" rx="4" fill="#331A00"/>
<rect x="186" y="231" width="20" height="20" rx="4" fill="white"/>
<path d="M194 246L189.5 241.5L190 240L194 242.5L202 236.5L203.5 237L194 246Z" fill="#FF8B18"/>
<g filter="url(#filter0_d_1_4544)">
<rect x="12" y="12" width="178" height="46" rx="8" fill="#F2EFF6"/>
</g>
<rect x="24" y="21" width="28" height="28" rx="14" fill="white"/>
<path d="M32.9079 27.9516C32.2564 28.3277 31.9998 29.125 32.2833 29.8009C31.9723 29.7601 31.6459 29.8176 31.3532 29.9865C30.6466 30.3945 30.4045 31.2981 30.8124 32.0047L31.1671 32.6191C30.8227 32.523 30.4413 32.5602 30.1072 32.7531C29.4476 33.1339 29.2217 33.9773 29.6025 34.6368L33.4438 41.2902C34.8037 43.6457 37.8157 44.4527 40.1712 43.0928C41.74 42.187 42.622 40.5485 42.6343 38.8591L42.644 38.708L42.6805 33.2012C42.6853 32.4711 42.4954 31.7529 42.1303 31.1205L41.9984 30.892C41.6176 30.2325 40.7743 30.0065 40.1147 30.3873C39.4552 30.768 39.2292 31.6114 39.61 32.2709L40.7191 34.1919L40.7265 34.2049L40.732 34.2146L40.1024 33.124L40.0961 33.113L40.0866 33.0969L37.4429 28.5178C37.0621 27.8583 36.2188 27.6323 35.5592 28.0131C35.3055 28.1596 35.1159 28.3745 35.0004 28.6211L34.9261 28.4924C34.5181 27.7857 33.6145 27.5436 32.9079 27.9516Z" fill="url(#paint0_radial_1_4544)"/>
<path d="M39.5226 31.0728C39.373 31.4508 39.3912 31.8911 39.6103 32.2705L40.5952 33.9765L40.5249 32.8088L39.5226 31.0728Z" fill="#6A0000"/>
<path d="M35.3418 28.1678C35.3546 28.1883 35.3671 28.2091 35.3793 28.2302L38.0418 32.8418L38.112 34.0096L35.0006 28.6205C35.0803 28.4506 35.1951 28.2956 35.3418 28.1678Z" fill="#6A0000"/>
<path d="M32.2832 29.8009C32.2105 29.6277 32.1733 29.4466 32.1692 29.2666C32.8323 29.2929 33.4679 29.6484 33.8243 30.2657L35.9666 33.9762L36.0368 35.1441L33.3713 30.5272C33.1323 30.1133 32.7231 29.8587 32.2832 29.8009Z" fill="#6A0000"/>
<path d="M31.1671 32.6184L30.9055 32.1653C31.023 32.0975 31.1667 32.0751 31.3078 32.1144C31.7698 32.2432 32.1851 32.5469 32.4442 32.9956L33.7985 35.3414L33.8686 36.5093L31.991 33.2572C31.8031 32.9318 31.5026 32.7119 31.1671 32.6184Z" fill="#6A0000"/>
<path d="M30.3706 25.0336L31.4539 26.91L31.7946 24.5001L30.3706 25.0336Z" fill="#A7090A"/>
<path d="M28.5277 26.6749L30.5991 27.596L29.5767 25.4919L28.5277 26.6749Z" fill="#A7090A"/>
<path d="M27.5457 28.974L30.0247 28.6012L28.0977 27.5968L27.5457 28.974Z" fill="#A7090A"/>
<path d="M36.7722 27.6448C36.1208 28.0209 35.8641 28.8182 36.1477 29.4941C35.8367 29.4533 35.5102 29.5107 35.2176 29.6797C34.511 30.0877 34.2688 30.9913 34.6768 31.6979L35.0315 32.3122C34.6871 32.2162 34.3057 32.2534 33.9716 32.4463C33.312 32.8271 33.086 33.6704 33.4668 34.33L37.3082 40.9834C38.6681 43.3389 41.6801 44.1459 44.0356 42.786C45.6044 41.8802 46.4863 40.2417 46.4987 38.5523L46.5084 38.4012L46.5449 32.8944C46.5497 32.1643 46.3598 31.446 45.9947 30.8137L45.8628 30.5852C45.482 29.9256 44.6386 29.6997 43.9791 30.0804C43.3196 30.4612 43.0936 31.3046 43.4744 31.9641L44.5834 33.8851L44.5909 33.8981L44.5964 33.9077L43.9668 32.8172L43.9604 32.8062L43.951 32.7901L41.3073 28.211C40.9265 27.5515 40.0832 27.3255 39.4236 27.7063C39.1699 27.8528 38.9803 28.0677 38.8648 28.3143L38.7905 28.1856C38.3825 27.4789 37.4789 27.2368 36.7722 27.6448Z" fill="url(#paint1_radial_1_4544)"/>
<path d="M43.3871 30.7657C43.2375 31.1438 43.2557 31.5841 43.4748 31.9635L44.4597 33.6695L44.3894 32.5017L43.3871 30.7657Z" fill="#6A0000"/>
<path d="M39.2062 27.8613C39.219 27.8818 39.2315 27.9026 39.2437 27.9237L41.9062 32.5353L41.9764 33.7031L38.865 28.314C38.9446 28.144 39.0594 27.9891 39.2062 27.8613Z" fill="#6A0000"/>
<path d="M36.1477 29.4941C36.075 29.3209 36.0379 29.1398 36.0337 28.9598C36.6968 28.9861 37.3324 29.3417 37.6888 29.9589L39.8311 33.6695L39.9013 34.8373L37.2358 30.2205C36.9968 29.8065 36.5876 29.5519 36.1477 29.4941Z" fill="#6A0000"/>
<path d="M35.0315 32.3124L34.7699 31.8593C34.8874 31.7915 35.0311 31.7691 35.1722 31.8084C35.6342 31.9372 36.0495 32.2409 36.3086 32.6896L37.6629 35.0354L37.733 36.2033L35.8554 32.9512C35.6675 32.6258 35.367 32.4059 35.0315 32.3124Z" fill="#6A0000"/>
<path d="M70.948 32L70.888 30.848H70.864C70.336 31.736 69.532 32.18 68.452 32.18C67.196 32.18 66.192 31.764 65.44 30.932C64.696 30.1 64.324 29.036 64.324 27.74C64.324 26.268 64.792 25.1 65.728 24.236C66.448 23.58 67.368 23.252 68.488 23.252C69.536 23.252 70.372 23.512 70.996 24.032C71.628 24.552 72.016 25.248 72.16 26.12H70.456C70.352 25.688 70.136 25.344 69.808 25.088C69.48 24.824 69.052 24.692 68.524 24.692C67.748 24.692 67.148 24.976 66.724 25.544C66.308 26.112 66.1 26.844 66.1 27.74C66.1 28.628 66.316 29.356 66.748 29.924C67.188 30.492 67.772 30.776 68.5 30.776C69.14 30.776 69.668 30.58 70.084 30.188C70.5 29.788 70.708 29.336 70.708 28.832V28.784H68.644V27.44H72.256V32H70.948ZM74.9125 25.844V26.828H74.9485C75.1405 26.468 75.3525 26.204 75.5845 26.036C75.8165 25.86 76.1085 25.772 76.4605 25.772C76.6285 25.772 76.7565 25.788 76.8445 25.82V27.248H76.8085C76.2565 27.192 75.8125 27.312 75.4765 27.608C75.1405 27.904 74.9725 28.368 74.9725 29V32H73.3405V25.844H74.9125ZM80.2638 32.18C79.2718 32.18 78.4918 31.876 77.9238 31.268C77.3558 30.652 77.0718 29.868 77.0718 28.916C77.0718 27.996 77.3558 27.228 77.9238 26.612C78.4918 25.988 79.2198 25.676 80.1078 25.676C81.0758 25.676 81.8238 26.012 82.3518 26.684C82.8798 27.356 83.1438 28.256 83.1438 29.384H78.6798C78.7438 29.872 78.9078 30.252 79.1718 30.524C79.4358 30.788 79.7958 30.92 80.2518 30.92C80.8518 30.92 81.2478 30.668 81.4398 30.164H83.0478C82.9278 30.74 82.6238 31.22 82.1358 31.604C81.6478 31.988 81.0238 32.18 80.2638 32.18ZM80.1318 26.936C79.3398 26.936 78.8638 27.376 78.7038 28.256H81.4398C81.4158 27.864 81.2838 27.548 81.0438 27.308C80.8038 27.06 80.4998 26.936 80.1318 26.936ZM87.7751 32C87.6951 31.896 87.6311 31.668 87.5831 31.316H87.5591C87.3831 31.58 87.1591 31.784 86.8871 31.928C86.6151 32.072 86.2351 32.144 85.7471 32.144C85.0991 32.144 84.5791 31.98 84.1871 31.652C83.7951 31.324 83.5991 30.86 83.5991 30.26C83.5991 29.636 83.8151 29.18 84.2471 28.892C84.6791 28.596 85.2871 28.392 86.0711 28.28C86.6471 28.2 87.0391 28.12 87.2471 28.04C87.4551 27.952 87.5591 27.8 87.5591 27.584C87.5591 27.36 87.4711 27.184 87.2951 27.056C87.1191 26.92 86.8631 26.852 86.5271 26.852C85.7831 26.852 85.3871 27.14 85.3391 27.716H83.8871C83.9111 27.132 84.1471 26.648 84.5951 26.264C85.0431 25.88 85.6911 25.688 86.5391 25.688C88.2671 25.688 89.1311 26.444 89.1311 27.956V31.088C89.1311 31.552 89.2031 31.836 89.3471 31.94V32H87.7751ZM86.1431 31.004C86.5911 31.004 86.9431 30.888 87.1991 30.656C87.4631 30.424 87.5951 30.148 87.5951 29.828V28.904C87.4191 29.008 87.0391 29.128 86.4551 29.264C85.9911 29.368 85.6631 29.488 85.4711 29.624C85.2791 29.752 85.1831 29.952 85.1831 30.224C85.1831 30.744 85.5031 31.004 86.1431 31.004ZM89.6914 26.924V25.844H90.5434V23.924H92.1394V25.844H93.1954V26.924H92.1394V30.188C92.1394 30.596 92.3434 30.8 92.7514 30.8L93.2314 30.788V31.988C92.9834 32.004 92.6434 32.012 92.2114 32.012C91.7394 32.012 91.3434 31.9 91.0234 31.676C90.7034 31.444 90.5434 31.064 90.5434 30.536V26.924H89.6914ZM97.3714 32L95.5714 25.844H97.1914L97.9354 28.7L98.2114 29.852H98.2354C98.3234 29.412 98.4114 29.024 98.4994 28.688L99.2674 25.844H100.659L101.463 28.688L101.751 29.852H101.775C101.871 29.42 101.963 29.036 102.051 28.7L102.831 25.844H104.415L102.579 32H101.091L100.275 28.976L99.9994 27.908H99.9754C99.8714 28.292 99.7754 28.648 99.6874 28.976L98.8474 32H97.3714ZM110.049 31.256C109.449 31.872 108.677 32.18 107.733 32.18C106.789 32.18 106.017 31.872 105.417 31.256C104.817 30.632 104.517 29.856 104.517 28.928C104.517 28 104.817 27.228 105.417 26.612C106.017 25.988 106.789 25.676 107.733 25.676C108.677 25.676 109.449 25.988 110.049 26.612C110.649 27.228 110.949 28 110.949 28.928C110.949 29.856 110.649 30.632 110.049 31.256ZM107.733 30.932C108.221 30.932 108.601 30.752 108.873 30.392C109.153 30.024 109.293 29.536 109.293 28.928C109.293 28.32 109.153 27.832 108.873 27.464C108.601 27.096 108.221 26.912 107.733 26.912C107.237 26.912 106.853 27.096 106.581 27.464C106.309 27.824 106.173 28.312 106.173 28.928C106.173 29.536 106.309 30.024 106.581 30.392C106.853 30.752 107.237 30.932 107.733 30.932ZM113.28 25.844V26.828H113.316C113.508 26.468 113.72 26.204 113.952 26.036C114.184 25.86 114.476 25.772 114.828 25.772C114.996 25.772 115.124 25.788 115.212 25.82V27.248H115.176C114.624 27.192 114.18 27.312 113.844 27.608C113.508 27.904 113.34 28.368 113.34 29V32H111.708V25.844H113.28ZM119.971 32L118.243 29.192L117.535 29.924V32H115.915V23.42H117.535V28.172L119.719 25.844H121.675L119.407 28.184L121.951 32H119.971ZM123.066 29.492L122.61 25.316V23.42H124.314V25.316L123.858 29.492H123.066ZM122.586 32V30.26H124.338V32H122.586Z" fill="#614884"/>
<path d="M66.69 47V43.97L64.1 39.85H65.1L67.15 43.25H67.17L69.25 39.85H70.21L67.59 43.99V47H66.69ZM73.7263 46.36C73.2729 46.88 72.6696 47.14 71.9163 47.14C71.1629 47.14 70.5563 46.88 70.0963 46.36C69.6429 45.84 69.4163 45.1933 69.4163 44.42C69.4163 43.6467 69.6429 43 70.0963 42.48C70.5563 41.96 71.1629 41.7 71.9163 41.7C72.6696 41.7 73.2729 41.96 73.7263 42.48C74.1796 43 74.4063 43.6467 74.4063 44.42C74.4063 45.1933 74.1796 45.84 73.7263 46.36ZM70.6763 45.89C70.9696 46.27 71.3829 46.46 71.9163 46.46C72.4496 46.46 72.8596 46.27 73.1463 45.89C73.4329 45.5033 73.5763 45.0133 73.5763 44.42C73.5763 43.82 73.4296 43.33 73.1363 42.95C72.8496 42.5633 72.4429 42.37 71.9163 42.37C71.3829 42.37 70.9696 42.5633 70.6763 42.95C70.3896 43.3367 70.2463 43.8267 70.2463 44.42C70.2463 45.0133 70.3896 45.5033 70.6763 45.89ZM79.3141 47H78.5041V46.29H78.4841C78.0774 46.8433 77.5574 47.12 76.9241 47.12C76.3907 47.12 75.9674 46.97 75.6541 46.67C75.3407 46.3633 75.1841 45.9433 75.1841 45.41V41.83H75.9941V45.39C75.9941 45.7233 76.0941 45.9833 76.2941 46.17C76.5007 46.3567 76.7874 46.45 77.1541 46.45C77.5607 46.45 77.8874 46.3133 78.1341 46.04C78.3807 45.7667 78.5041 45.4233 78.5041 45.01V41.83H79.3141V47ZM86.0612 47.05C85.5478 47.05 85.2512 46.7933 85.1712 46.28H85.1612C84.7345 46.8267 84.1612 47.1 83.4412 47.1C82.9278 47.1 82.5078 46.9767 82.1812 46.73C81.8545 46.4833 81.6912 46.1267 81.6912 45.66C81.6912 45.42 81.7278 45.2133 81.8012 45.04C81.8812 44.86 81.9812 44.7167 82.1012 44.61C82.2212 44.4967 82.3845 44.4 82.5912 44.32C82.8045 44.2333 83.0078 44.17 83.2012 44.13C83.3945 44.0833 83.6412 44.0367 83.9412 43.99C84.1345 43.9633 84.2712 43.9433 84.3512 43.93C84.4378 43.91 84.5478 43.8833 84.6812 43.85C84.8145 43.81 84.9078 43.7667 84.9612 43.72C85.0145 43.6733 85.0645 43.61 85.1112 43.53C85.1578 43.45 85.1812 43.3567 85.1812 43.25C85.1812 42.9567 85.0778 42.7333 84.8712 42.58C84.6712 42.42 84.3878 42.34 84.0212 42.34C83.1878 42.34 82.7578 42.72 82.7312 43.48H81.9512C81.9645 42.9533 82.1445 42.53 82.4912 42.21C82.8445 41.89 83.3512 41.73 84.0112 41.73C85.2845 41.73 85.9212 42.2767 85.9212 43.37V45.83C85.9212 46.0567 85.9578 46.2167 86.0312 46.31C86.1112 46.4033 86.2578 46.4267 86.4712 46.38H86.5012V46.97C86.3678 47.0233 86.2212 47.05 86.0612 47.05ZM83.6212 46.48C84.1212 46.48 84.5078 46.3367 84.7812 46.05C85.0545 45.7567 85.1912 45.4367 85.1912 45.09V44.21C84.9445 44.3633 84.5512 44.49 84.0112 44.59C83.8112 44.63 83.6545 44.6633 83.5412 44.69C83.4278 44.71 83.2978 44.75 83.1512 44.81C83.0045 44.8633 82.8945 44.9233 82.8212 44.99C82.7478 45.0567 82.6845 45.1467 82.6312 45.26C82.5778 45.3667 82.5512 45.4933 82.5512 45.64C82.5512 46.2 82.9078 46.48 83.6212 46.48ZM87.9088 41.83V42.69H87.9288C88.0955 42.4167 88.3122 42.1967 88.5788 42.03C88.8455 41.8567 89.1422 41.77 89.4688 41.77C89.5888 41.77 89.6988 41.79 89.7988 41.83V42.61H89.7688C89.6688 42.5767 89.5488 42.56 89.4088 42.56C88.9955 42.56 88.6422 42.7067 88.3488 43C88.0555 43.2867 87.9088 43.6633 87.9088 44.13V47H87.0988V41.83H87.9088ZM92.5413 47.14C91.7746 47.14 91.1646 46.8833 90.7113 46.37C90.2646 45.85 90.0413 45.2 90.0413 44.42C90.0413 43.6533 90.2679 43.01 90.7213 42.49C91.1813 41.9633 91.7713 41.7 92.4913 41.7C93.2513 41.7 93.8379 41.9667 94.2513 42.5C94.6646 43.0267 94.8713 43.73 94.8713 44.61H90.8713C90.9046 45.1567 91.0646 45.6033 91.3513 45.95C91.6446 46.29 92.0413 46.46 92.5413 46.46C93.3146 46.46 93.7913 46.1067 93.9713 45.4H94.7613C94.6413 45.9533 94.3879 46.3833 94.0013 46.69C93.6146 46.99 93.1279 47.14 92.5413 47.14ZM93.5713 42.78C93.3113 42.4867 92.9513 42.34 92.4913 42.34C92.0313 42.34 91.6646 42.4933 91.3913 42.8C91.1246 43.1067 90.9579 43.5067 90.8913 44H94.0013C93.9746 43.48 93.8313 43.0733 93.5713 42.78ZM101.275 46.36C100.822 46.88 100.218 47.14 99.4651 47.14C98.7117 47.14 98.1051 46.88 97.6451 46.36C97.1917 45.84 96.9651 45.1933 96.9651 44.42C96.9651 43.6467 97.1917 43 97.6451 42.48C98.1051 41.96 98.7117 41.7 99.4651 41.7C100.218 41.7 100.822 41.96 101.275 42.48C101.728 43 101.955 43.6467 101.955 44.42C101.955 45.1933 101.728 45.84 101.275 46.36ZM98.2251 45.89C98.5184 46.27 98.9317 46.46 99.4651 46.46C99.9984 46.46 100.408 46.27 100.695 45.89C100.982 45.5033 101.125 45.0133 101.125 44.42C101.125 43.82 100.978 43.33 100.685 42.95C100.398 42.5633 99.9917 42.37 99.4651 42.37C98.9317 42.37 98.5184 42.5633 98.2251 42.95C97.9384 43.3367 97.7951 43.8267 97.7951 44.42C97.7951 45.0133 97.9384 45.5033 98.2251 45.89ZM103.573 41.83V42.51H103.593C103.993 41.9767 104.54 41.71 105.233 41.71C105.78 41.71 106.206 41.8533 106.513 42.14C106.82 42.4267 106.973 42.8367 106.973 43.37V47H106.163V43.44C106.163 43.1067 106.06 42.85 105.853 42.67C105.646 42.4833 105.36 42.39 104.993 42.39C104.58 42.39 104.24 42.5233 103.973 42.79C103.706 43.0567 103.573 43.4 103.573 43.82V47H102.763V41.83H103.573ZM109.308 42.49V41.83H110.058V40.2H110.868V41.83H111.868V42.49H110.868V45.85C110.868 46.17 111.041 46.33 111.388 46.33C111.535 46.33 111.678 46.3067 111.818 46.26H111.848V46.96C111.628 47.0067 111.411 47.03 111.198 47.03C110.438 47.03 110.058 46.6967 110.058 46.03V42.49H109.308ZM113.514 41.83V42.69H113.534C113.701 42.4167 113.918 42.1967 114.184 42.03C114.451 41.8567 114.748 41.77 115.074 41.77C115.194 41.77 115.304 41.79 115.404 41.83V42.61H115.374C115.274 42.5767 115.154 42.56 115.014 42.56C114.601 42.56 114.248 42.7067 113.954 43C113.661 43.2867 113.514 43.6633 113.514 44.13V47H112.704V41.83H113.514ZM119.997 47.05C119.483 47.05 119.187 46.7933 119.107 46.28H119.097C118.67 46.8267 118.097 47.1 117.377 47.1C116.863 47.1 116.443 46.9767 116.117 46.73C115.79 46.4833 115.627 46.1267 115.627 45.66C115.627 45.42 115.663 45.2133 115.737 45.04C115.817 44.86 115.917 44.7167 116.037 44.61C116.157 44.4967 116.32 44.4 116.527 44.32C116.74 44.2333 116.943 44.17 117.137 44.13C117.33 44.0833 117.577 44.0367 117.877 43.99C118.07 43.9633 118.207 43.9433 118.287 43.93C118.373 43.91 118.483 43.8833 118.617 43.85C118.75 43.81 118.843 43.7667 118.897 43.72C118.95 43.6733 119 43.61 119.047 43.53C119.093 43.45 119.117 43.3567 119.117 43.25C119.117 42.9567 119.013 42.7333 118.807 42.58C118.607 42.42 118.323 42.34 117.957 42.34C117.123 42.34 116.693 42.72 116.667 43.48H115.887C115.9 42.9533 116.08 42.53 116.427 42.21C116.78 41.89 117.287 41.73 117.947 41.73C119.22 41.73 119.857 42.2767 119.857 43.37V45.83C119.857 46.0567 119.893 46.2167 119.967 46.31C120.047 46.4033 120.193 46.4267 120.407 46.38H120.437V46.97C120.303 47.0233 120.157 47.05 119.997 47.05ZM117.557 46.48C118.057 46.48 118.443 46.3367 118.717 46.05C118.99 45.7567 119.127 45.4367 119.127 45.09V44.21C118.88 44.3633 118.487 44.49 117.947 44.59C117.747 44.63 117.59 44.6633 117.477 44.69C117.363 44.71 117.233 44.75 117.087 44.81C116.94 44.8633 116.83 44.9233 116.757 44.99C116.683 45.0567 116.62 45.1467 116.567 45.26C116.513 45.3667 116.487 45.4933 116.487 45.64C116.487 46.2 116.843 46.48 117.557 46.48ZM123.244 47.14C122.491 47.14 121.884 46.88 121.424 46.36C120.971 45.84 120.744 45.1933 120.744 44.42C120.744 43.6467 120.971 43 121.424 42.48C121.884 41.96 122.491 41.7 123.244 41.7C123.851 41.7 124.348 41.8633 124.734 42.19C125.121 42.51 125.361 42.9467 125.454 43.5H124.634C124.574 43.1467 124.424 42.87 124.184 42.67C123.944 42.47 123.631 42.37 123.244 42.37C122.711 42.37 122.298 42.5633 122.004 42.95C121.718 43.3367 121.574 43.8267 121.574 44.42C121.574 45.0133 121.718 45.5033 122.004 45.89C122.298 46.27 122.711 46.46 123.244 46.46C123.658 46.46 123.988 46.35 124.234 46.13C124.481 45.9033 124.621 45.5867 124.654 45.18H125.454C125.401 45.8 125.181 46.2833 124.794 46.63C124.408 46.97 123.891 47.14 123.244 47.14ZM129.62 47L127.79 44.21L127.03 44.93V47H126.22V39.85H127.03V44.04L129.3 41.83H130.33L128.35 43.69L130.57 47H129.62ZM131.1 47V46.01H132.07V47H131.1ZM138.048 47L136.218 44.21L135.458 44.93V47H134.648V39.85H135.458V44.04L137.728 41.83H138.758L136.778 43.69L138.998 47H138.048ZM141.448 47.14C140.681 47.14 140.071 46.8833 139.618 46.37C139.171 45.85 138.948 45.2 138.948 44.42C138.948 43.6533 139.174 43.01 139.628 42.49C140.088 41.9633 140.678 41.7 141.398 41.7C142.158 41.7 142.744 41.9667 143.158 42.5C143.571 43.0267 143.778 43.73 143.778 44.61H139.778C139.811 45.1567 139.971 45.6033 140.258 45.95C140.551 46.29 140.948 46.46 141.448 46.46C142.221 46.46 142.698 46.1067 142.878 45.4H143.668C143.548 45.9533 143.294 46.3833 142.908 46.69C142.521 46.99 142.034 47.14 141.448 47.14ZM142.478 42.78C142.218 42.4867 141.858 42.34 141.398 42.34C140.938 42.34 140.571 42.4933 140.298 42.8C140.031 43.1067 139.864 43.5067 139.798 44H142.908C142.881 43.48 142.738 43.0733 142.478 42.78ZM146.78 47.14C146.013 47.14 145.403 46.8833 144.95 46.37C144.503 45.85 144.28 45.2 144.28 44.42C144.28 43.6533 144.506 43.01 144.96 42.49C145.42 41.9633 146.01 41.7 146.73 41.7C147.49 41.7 148.076 41.9667 148.49 42.5C148.903 43.0267 149.11 43.73 149.11 44.61H145.11C145.143 45.1567 145.303 45.6033 145.59 45.95C145.883 46.29 146.28 46.46 146.78 46.46C147.553 46.46 148.03 46.1067 148.21 45.4H149C148.88 45.9533 148.626 46.3833 148.24 46.69C147.853 46.99 147.366 47.14 146.78 47.14ZM147.81 42.78C147.55 42.4867 147.19 42.34 146.73 42.34C146.27 42.34 145.903 42.4933 145.63 42.8C145.363 43.1067 145.196 43.5067 145.13 44H148.24C148.213 43.48 148.07 43.0733 147.81 42.78ZM149.902 48.66V41.83H150.712V42.56H150.732C151.152 41.9933 151.705 41.71 152.392 41.71C153.058 41.71 153.595 41.9533 154.002 42.44C154.408 42.92 154.612 43.5833 154.612 44.43C154.612 45.2633 154.412 45.9267 154.012 46.42C153.612 46.9067 153.062 47.15 152.362 47.15C151.668 47.15 151.125 46.8967 150.732 46.39H150.712V48.66H149.902ZM152.302 46.47C152.782 46.47 153.148 46.2833 153.402 45.91C153.655 45.5367 153.782 45.0467 153.782 44.44C153.782 43.8333 153.655 43.3433 153.402 42.97C153.148 42.59 152.785 42.4 152.312 42.4C151.772 42.4 151.362 42.5933 151.082 42.98C150.802 43.36 150.662 43.8467 150.662 44.44C150.662 45.0467 150.795 45.5367 151.062 45.91C151.328 46.2833 151.742 46.47 152.302 46.47ZM157.011 47V41.83H157.821V47H157.011ZM157.011 40.85V39.85H157.821V40.85H157.011ZM158.595 42.49V41.83H159.345V40.2H160.155V41.83H161.155V42.49H160.155V45.85C160.155 46.17 160.328 46.33 160.675 46.33C160.822 46.33 160.965 46.3067 161.105 46.26H161.135V46.96C160.915 47.0067 160.698 47.03 160.485 47.03C159.725 47.03 159.345 46.6967 159.345 46.03V42.49H158.595ZM167.683 47H166.873V46.29H166.853C166.447 46.8433 165.927 47.12 165.293 47.12C164.76 47.12 164.337 46.97 164.023 46.67C163.71 46.3633 163.553 45.9433 163.553 45.41V41.83H164.363V45.39C164.363 45.7233 164.463 45.9833 164.663 46.17C164.87 46.3567 165.157 46.45 165.523 46.45C165.93 46.45 166.257 46.3133 166.503 46.04C166.75 45.7667 166.873 45.4233 166.873 45.01V41.83H167.683V47ZM168.779 48.66V41.83H169.589V42.56H169.609C170.029 41.9933 170.582 41.71 171.269 41.71C171.935 41.71 172.472 41.9533 172.879 42.44C173.285 42.92 173.489 43.5833 173.489 44.43C173.489 45.2633 173.289 45.9267 172.889 46.42C172.489 46.9067 171.939 47.15 171.239 47.15C170.545 47.15 170.002 46.8967 169.609 46.39H169.589V48.66H168.779ZM171.179 46.47C171.659 46.47 172.025 46.2833 172.279 45.91C172.532 45.5367 172.659 45.0467 172.659 44.44C172.659 43.8333 172.532 43.3433 172.279 42.97C172.025 42.59 171.662 42.4 171.189 42.4C170.649 42.4 170.239 42.5933 169.959 42.98C169.679 43.36 169.539 43.8467 169.539 44.44C169.539 45.0467 169.672 45.5367 169.939 45.91C170.205 46.2833 170.619 46.47 171.179 46.47Z" fill="#424242"/>
</g>
<defs>
<filter id="filter0_d_1_4544" x="5" y="8" width="192" height="60" filterUnits="userSpaceOnUse" color-interpolation-filters="sRGB">
<feFlood flood-opacity="0" result="BackgroundImageFix"/>
<feColorMatrix in="SourceAlpha" type="matrix" values="0 0 0 0 0 0 0 0 0 0 0 0 0 0 0 0 0 0 127 0" result="hardAlpha"/>
<feMorphology radius="1" operator="erode" in="SourceAlpha" result="effect1_dropShadow_1_4544"/>
<feOffset dy="3"/>
<feGaussianBlur stdDeviation="4"/>
<feComposite in2="hardAlpha" operator="out"/>
<feColorMatrix type="matrix" values="0 0 0 0 0 0 0 0 0 0 0 0 0 0 0 0 0 0 0.1 0"/>
<feBlend mode="normal" in2="BackgroundImageFix" result="effect1_dropShadow_1_4544"/>
<feBlend mode="normal" in="SourceGraphic" in2="effect1_dropShadow_1_4544" result="shape"/>
</filter>
<radialGradient id="paint0_radial_1_4544" cx="0" cy="0" r="1" gradientUnits="userSpaceOnUse" gradientTransform="translate(31.9774 29.4242) rotate(75.5406) scale(16.1732 32.0712)">
<stop stop-color="#FFB637"/>
<stop offset="0.890801" stop-color="#E58500"/>
<stop offset="1" stop-color="#6A0000"/>
</radialGradient>
<radialGradient id="paint1_radial_1_4544" cx="0" cy="0" r="1" gradientUnits="userSpaceOnUse" gradientTransform="translate(38.9569 28.8888) rotate(86.2408) scale(14.5892 12.0936)">
<stop stop-color="#FFE286"/>
<stop offset="0.383899" stop-color="#FFD243"/>
<stop offset="0.743802" stop-color="#FFD243"/>
<stop offset="0.888201" stop-color="#FFB637"/>
<stop offset="1" stop-color="#E58500"/>
</radialGradient>
</defs>
</svg>
