<svg width="295" height="320" viewBox="0 0 295 320" fill="none" xmlns="http://www.w3.org/2000/svg">
<rect width="295" height="320" rx="12" fill="#F2EFF6"/>
<mask id="mask0_1_4189" style="mask-type:alpha" maskUnits="userSpaceOnUse" x="0" y="0" width="295" height="320">
<rect width="295" height="320" rx="12" fill="#F2EFF6"/>
</mask>
<g mask="url(#mask0_1_4189)">
<path d="M32 100C32 86.7452 42.7452 76 56 76H203C216.255 76 227 86.7452 227 100V320H32V100Z" fill="#181221"/>
<path d="M40 100C40 91.1634 47.1634 84 56 84H203C211.837 84 219 91.1634 219 100V320H40V100Z" fill="white"/>
<path d="M207 157H72" stroke="#BDBDBD"/>
<rect x="52" y="154" width="12" height="6" rx="3" fill="#9D86BD"/>
<path d="M207 191H72" stroke="#BDBDBD"/>
<rect x="52" y="188" width="12" height="6" rx="3" fill="#9D86BD"/>
<path d="M207 225H72" stroke="#BDBDBD"/>
<rect x="52" y="222" width="12" height="6" rx="3" fill="#9D86BD"/>
<path d="M207 259H72" stroke="#BDBDBD"/>
<rect x="52" y="256" width="12" height="6" rx="3" fill="#9D86BD"/>
<path d="M207 293H72" stroke="#BDBDBD"/>
<rect x="52" y="290" width="12" height="6" rx="3" fill="#9D86BD"/>
<path d="M53.704 139L52.04 133.28H53.224L53.968 136.12L54.216 137.368H54.232C54.328 136.893 54.416 136.488 54.496 136.152L55.12 133.28H56.24L56.864 136.144L57.128 137.368H57.144C57.256 136.861 57.3493 136.443 57.424 136.112L58.144 133.28H59.288L57.656 139H56.576L55.88 135.936L55.68 134.92H55.664C55.6053 135.32 55.544 135.659 55.48 135.936L54.776 139H53.704ZM60.5681 139V133.28H64.7761V134.256H61.7281V135.536H64.4001V136.488H61.7281V138.032H64.8001V139H60.5681ZM66.3293 139V133.28H67.4893V139H66.3293ZM73.3679 139L73.3279 138.232H73.3119C72.9599 138.824 72.4239 139.12 71.7039 139.12C70.8666 139.12 70.1973 138.843 69.6959 138.288C69.1999 137.733 68.9519 137.024 68.9519 136.16C68.9519 135.179 69.2639 134.4 69.8879 133.824C70.3679 133.387 70.9813 133.168 71.7279 133.168C72.4266 133.168 72.9839 133.341 73.3999 133.688C73.8213 134.035 74.0799 134.499 74.1759 135.08H73.0399C72.9706 134.792 72.8266 134.563 72.6079 134.392C72.3893 134.216 72.1039 134.128 71.7519 134.128C71.2346 134.128 70.8346 134.317 70.5519 134.696C70.2746 135.075 70.1359 135.563 70.1359 136.16C70.1359 136.752 70.2799 137.237 70.5679 137.616C70.8613 137.995 71.2506 138.184 71.7359 138.184C72.1626 138.184 72.5146 138.053 72.7919 137.792C73.0693 137.525 73.2079 137.224 73.2079 136.888V136.856H71.8319V135.96H74.2399V139H73.3679ZM75.8509 139V133.28H77.0109V135.52H79.2589V133.28H80.4189V139H79.2589V136.48H77.0109V139H75.8509ZM81.8003 134.256V133.28H86.4003V134.256H84.6803V139H83.5203V134.256H81.8003Z" fill="#757575"/>
<path opacity="0.25" d="M72 237V279L207 259V166L72 237Z" fill="#9D86BD"/>
<path d="M152 237L141.787 239.211H130.723L119.447 244.368L109.447 249.158L99.0213 251.737L86.6809 254.316L73.5077 264.985L72 265" stroke="#7F67A1" stroke-width="2" stroke-linejoin="round"/>
<g filter="url(#filter0_d_1_4189)">
<circle cx="148" cy="237" r="3" fill="#7F67A1"/>
<circle cx="148" cy="237" r="4.5" stroke="white" stroke-width="3"/>
</g>
<g filter="url(#filter1_d_1_4189)">
<circle cx="148" cy="237" r="8" fill="#7F67A1"/>
<circle cx="148" cy="237" r="9.5" stroke="white" stroke-width="3"/>
</g>
<circle cx="148" cy="237" r="8" fill="url(#paint0_radial_1_4189)"/>
<g opacity="0.5" filter="url(#filter2_f_1_4189)">
<ellipse cx="152.267" cy="236.333" rx="1.6" ry="0.8" fill="#F5474D"/>
</g>
<g opacity="0.5" filter="url(#filter3_f_1_4189)">
<ellipse cx="143.733" cy="236.333" rx="1.6" ry="0.8" fill="#F5474D"/>
</g>
<path d="M143.467 237.4C143.467 237.4 145.133 237.133 148 237.133C150.867 237.133 152.533 237.4 152.533 237.4C152.533 237.4 152.533 241.533 148 241.533C143.467 241.533 143.467 237.4 143.467 237.4Z" fill="#6A0000"/>
<path fill-rule="evenodd" clip-rule="evenodd" d="M150.133 234.48C150.133 234.48 150.133 234.478 150.133 234.474C150.129 234.692 149.952 234.867 149.733 234.867C149.512 234.867 149.333 234.688 149.333 234.467C149.333 234.352 149.37 234.218 149.417 234.101C149.468 233.973 149.548 233.825 149.665 233.684C149.905 233.391 150.296 233.133 150.867 233.133C151.43 233.133 151.845 233.385 152.112 233.658C152.244 233.793 152.343 233.935 152.411 234.062C152.444 234.126 152.473 234.189 152.493 234.25C152.511 234.303 152.533 234.381 152.533 234.467C152.533 234.688 152.354 234.867 152.133 234.867C151.925 234.867 151.755 234.708 151.735 234.506C151.73 234.492 151.721 234.469 151.705 234.439C151.671 234.375 151.616 234.295 151.54 234.217C151.391 234.065 151.173 233.933 150.867 233.933C150.567 233.933 150.392 234.059 150.283 234.191C150.225 234.262 150.184 234.337 150.159 234.4C150.138 234.452 150.134 234.48 150.133 234.48ZM151.738 234.516C151.738 234.516 151.738 234.515 151.738 234.513C151.738 234.515 151.738 234.516 151.738 234.516Z" fill="black"/>
<path fill-rule="evenodd" clip-rule="evenodd" d="M144.267 234.48C144.266 234.48 144.266 234.478 144.266 234.474C144.263 234.692 144.085 234.867 143.867 234.867C143.646 234.867 143.467 234.688 143.467 234.467C143.467 234.352 143.503 234.218 143.55 234.101C143.602 233.973 143.681 233.825 143.798 233.684C144.038 233.391 144.43 233.133 145 233.133C145.564 233.133 145.978 233.385 146.245 233.658C146.377 233.793 146.476 233.935 146.544 234.062C146.578 234.126 146.606 234.189 146.627 234.25C146.644 234.303 146.667 234.381 146.667 234.467C146.667 234.688 146.487 234.867 146.267 234.867C146.059 234.867 145.888 234.708 145.868 234.506C145.864 234.492 145.854 234.469 145.838 234.439C145.804 234.375 145.749 234.295 145.674 234.217C145.524 234.065 145.306 233.933 145 233.933C144.7 233.933 144.525 234.059 144.416 234.191C144.358 234.262 144.318 234.337 144.292 234.4C144.271 234.452 144.267 234.48 144.267 234.48ZM145.872 234.516C145.872 234.516 145.871 234.515 145.871 234.513C145.872 234.515 145.872 234.516 145.872 234.516Z" fill="black"/>
<path d="M148 239.267C149.331 239.267 150.528 239.663 151.358 240.295C150.69 240.988 149.644 241.533 148 241.533C146.356 241.533 145.309 240.988 144.641 240.295C145.47 239.663 146.669 239.267 148 239.267Z" fill="#A7090A"/>
<rect x="117" y="92" width="25" height="8" rx="4" fill="#181221"/>
<path d="M251 217C258.18 217 264 222.82 264 230V296C264 303.18 258.18 309 251 309H185C177.82 309 172 303.18 172 296V230C172 222.82 177.82 217 185 217H251Z" fill="#E8F3FD" stroke="white" stroke-width="2"/>
<path d="M190.805 244.992C190.933 243.684 191.381 242.428 192.11 241.335L197 234L249 274L249.58 285.6C249.808 290.17 246.165 294 241.59 294H194.823C190.096 294 186.4 289.924 186.861 285.219L190.805 244.992Z" fill="#73B9F2"/>
<path d="M248.271 276.375L248.721 283.548C248.981 287.722 245.666 291.25 241.484 291.25H195.822C191.539 291.25 188.19 287.556 188.607 283.293L192.538 243.202C192.662 241.938 193.115 240.729 193.854 239.695L197.147 235.083L248.271 276.375Z" fill="#D0E8FB" stroke="#181221" stroke-width="1.5"/>
<path d="M194.328 239.262C194.709 235.148 198.161 232 202.293 232H237.707C241.839 232 245.291 235.148 245.672 239.262L249.191 277.262C249.625 281.952 245.935 286 241.225 286H198.775C194.065 286 190.375 281.952 190.809 277.262L194.328 239.262Z" fill="white"/>
<path d="M224.367 258.812C224.52 256.379 228.084 255.458 231.225 257.352C234.653 259.419 235.755 261.973 233.674 267.811C232.113 272.189 235.388 279 229.511 279C224.368 279 225.792 273.769 227.306 271.702C228.285 270.364 228.653 266.717 226.449 264.284C224.686 262.338 224.214 261.244 224.367 258.812ZM235.021 257.595C235.561 257.595 236 258.139 236 258.811C236 259.482 235.561 260.027 235.021 260.027C234.479 260.027 234.041 259.482 234.041 258.811C234.041 258.139 234.48 257.595 235.021 257.595ZM233.307 255.405C233.847 255.406 234.286 256.005 234.286 256.743C234.286 257.482 233.847 258.081 233.307 258.081C232.766 258.081 232.327 257.482 232.327 256.743C232.327 256.004 232.766 255.405 233.307 255.405ZM231.225 253.702C231.833 253.702 232.326 254.356 232.326 255.162C232.326 255.968 231.833 256.621 231.225 256.621C230.616 256.621 230.123 255.968 230.123 255.162C230.123 254.356 230.616 253.702 231.225 253.702ZM225.47 252C226.281 252 226.938 252.817 226.938 253.824C226.938 254.832 226.281 255.648 225.47 255.648C224.658 255.648 224 254.832 224 253.824C224 252.817 224.658 252 225.47 252ZM228.653 252.486C229.33 252.486 229.878 253.194 229.878 254.067C229.878 254.94 229.329 255.648 228.653 255.648C227.977 255.648 227.429 254.94 227.429 254.067C227.429 253.194 227.977 252.486 228.653 252.486Z" fill="#D0E8FB"/>
<path d="M215.633 258.812C215.48 256.379 211.916 255.458 208.775 257.352C205.347 259.419 204.245 261.973 206.326 267.811C207.887 272.189 204.612 279 210.489 279C215.632 279 214.208 273.769 212.694 271.702C211.715 270.364 211.347 266.717 213.551 264.284C215.314 262.338 215.786 261.244 215.633 258.812ZM204.979 257.595C204.439 257.595 204 258.139 204 258.811C204 259.482 204.439 260.027 204.979 260.027C205.521 260.027 205.959 259.482 205.959 258.811C205.959 258.139 205.52 257.595 204.979 257.595ZM206.693 255.405C206.153 255.406 205.714 256.005 205.714 256.743C205.714 257.482 206.153 258.081 206.693 258.081C207.234 258.081 207.673 257.482 207.673 256.743C207.673 256.004 207.234 255.405 206.693 255.405ZM208.775 253.702C208.167 253.702 207.674 254.356 207.674 255.162C207.674 255.968 208.167 256.621 208.775 256.621C209.384 256.621 209.877 255.968 209.877 255.162C209.877 254.356 209.384 253.702 208.775 253.702ZM214.53 252C213.719 252 213.062 252.817 213.062 253.824C213.062 254.832 213.719 255.648 214.53 255.648C215.342 255.648 216 254.832 216 253.824C216 252.817 215.342 252 214.53 252ZM211.347 252.486C210.67 252.486 210.122 253.194 210.122 254.067C210.122 254.94 210.671 255.648 211.347 255.648C212.023 255.648 212.571 254.94 212.571 254.067C212.571 253.194 212.023 252.486 211.347 252.486Z" fill="#D0E8FB"/>
<path d="M208.716 242.419C209.463 238.686 212.74 236 216.546 236H223.454C227.26 236 230.537 238.686 231.284 242.419C231.654 244.271 230.237 246 228.348 246H211.652C209.763 246 208.346 244.271 208.716 242.419Z" fill="#73B9F2"/>
<path d="M223.455 236C227.261 236 230.537 238.687 231.284 242.419C231.528 243.641 230.994 244.807 230.061 245.461C230.123 245.064 230.106 244.646 229.994 244.227L229.521 242.454C228.821 239.828 226.442 238 223.724 238H216.277C213.559 238 211.179 239.828 210.479 242.454L210.006 244.227C209.894 244.646 209.876 245.064 209.938 245.461C209.005 244.807 208.472 243.64 208.716 242.419C209.463 238.687 212.74 236 216.545 236H223.455Z" fill="#1272BF"/>
<path d="M223 240L219 246H222L223 241V240Z" fill="#041C2F"/>
<path d="M223 240L219 246H221L223 240Z" fill="#1272BF"/>
<g filter="url(#filter4_d_1_4189)">
<rect x="13" y="24" width="81" height="28" rx="14" fill="white"/>
<rect x="17" y="28" width="20" height="20" rx="10" fill="#8063FF"/>
<path d="M24.2501 36C24.0337 36.0022 23.8239 36.0746 23.6522 36.2062C23.4804 36.3379 23.356 36.5216 23.2976 36.73L22.0501 41.25C22.0123 41.3963 22.0082 41.5492 22.0379 41.6974C22.0677 41.8455 22.1307 41.985 22.2221 42.1052C22.3136 42.2255 22.4311 42.3236 22.5658 42.3919C22.7006 42.4603 22.849 42.4972 23.0001 42.5H31.0001C31.1544 42.4999 31.3067 42.4642 31.4449 42.3955C31.5831 42.3268 31.7035 42.227 31.7967 42.104C31.8899 41.981 31.9534 41.8381 31.9822 41.6865C32.011 41.5348 32.0043 41.3786 31.9626 41.23L30.7001 36.75C30.645 36.5367 30.5211 36.3476 30.3475 36.2119C30.1739 36.0763 29.9604 36.0018 29.7401 36H24.2501Z" fill="white"/>
<path d="M27.0001 36C27.8285 36 28.5001 35.3284 28.5001 34.5C28.5001 33.6716 27.8285 33 27.0001 33C26.1717 33 25.5001 33.6716 25.5001 34.5C25.5001 35.3284 26.1717 36 27.0001 36Z" fill="white"/>
<path d="M47.556 42L45.06 33.42H46.836L47.952 37.68L48.324 39.552H48.348C48.492 38.84 48.624 38.232 48.744 37.728L49.68 33.42H51.36L52.296 37.716L52.692 39.552H52.716C52.884 38.792 53.024 38.164 53.136 37.668L54.216 33.42H55.932L53.484 42H51.864L50.82 37.404L50.52 35.88H50.496C50.408 36.48 50.316 36.988 50.22 37.404L49.164 42H47.556ZM58.7559 42.18C57.7639 42.18 56.9839 41.876 56.4159 41.268C55.8479 40.652 55.5639 39.868 55.5639 38.916C55.5639 37.996 55.8479 37.228 56.4159 36.612C56.9839 35.988 57.7119 35.676 58.5999 35.676C59.5679 35.676 60.3159 36.012 60.8439 36.684C61.3719 37.356 61.6359 38.256 61.6359 39.384H57.1719C57.2359 39.872 57.3999 40.252 57.6639 40.524C57.9279 40.788 58.2879 40.92 58.7439 40.92C59.3439 40.92 59.7399 40.668 59.9319 40.164H61.5399C61.4199 40.74 61.1159 41.22 60.6279 41.604C60.1399 41.988 59.5159 42.18 58.7559 42.18ZM58.6239 36.936C57.8319 36.936 57.3559 37.376 57.1959 38.256H59.9319C59.9079 37.864 59.7759 37.548 59.5359 37.308C59.2959 37.06 58.9919 36.936 58.6239 36.936ZM62.3913 42V35.844H64.0233V42H62.3913ZM62.3913 34.884V33.42H64.0233V34.884H62.3913ZM67.7869 44.1C66.9549 44.1 66.2869 43.932 65.7829 43.596C65.2869 43.26 64.9949 42.788 64.9069 42.18H66.5269C66.6869 42.636 67.0989 42.864 67.7629 42.864C68.6749 42.864 69.1309 42.436 69.1309 41.58V40.908H69.0949C68.6709 41.388 68.1349 41.628 67.4869 41.628C66.7589 41.628 66.1229 41.36 65.5789 40.824C65.0429 40.288 64.7749 39.576 64.7749 38.688C64.7749 37.776 65.0229 37.048 65.5189 36.504C66.0149 35.952 66.6549 35.676 67.4389 35.676C68.1829 35.676 68.7509 35.948 69.1429 36.492H69.1669V35.844H70.7389V41.532C70.7389 42.332 70.4949 42.956 70.0069 43.404C69.5109 43.868 68.7709 44.1 67.7869 44.1ZM67.7629 40.32C68.2509 40.32 68.6149 40.164 68.8549 39.852C69.0949 39.54 69.2149 39.14 69.2149 38.652C69.2149 38.172 69.0869 37.776 68.8309 37.464C68.5829 37.144 68.2229 36.984 67.7509 36.984C67.3349 36.984 66.9989 37.136 66.7429 37.44C66.4949 37.744 66.3709 38.152 66.3709 38.664C66.3709 39.184 66.4949 39.592 66.7429 39.888C66.9989 40.176 67.3389 40.32 67.7629 40.32ZM73.4217 33.42V36.648H73.4577C73.6897 36.312 73.9417 36.068 74.2137 35.916C74.4937 35.756 74.8377 35.676 75.2457 35.676C75.8777 35.676 76.3897 35.892 76.7817 36.324C77.1737 36.748 77.3697 37.3 77.3697 37.98V42H75.7377V38.22C75.7377 37.884 75.6417 37.612 75.4497 37.404C75.2657 37.196 75.0057 37.092 74.6697 37.092C74.3097 37.092 74.0097 37.224 73.7697 37.488C73.5377 37.752 73.4217 38.092 73.4217 38.508V42H71.7897V33.42H73.4217ZM77.8985 36.924V35.844H78.7505V33.924H80.3465V35.844H81.4025V36.924H80.3465V40.188C80.3465 40.596 80.5505 40.8 80.9585 40.8L81.4385 40.788V41.988C81.1905 42.004 80.8505 42.012 80.4185 42.012C79.9465 42.012 79.5505 41.9 79.2305 41.676C78.9105 41.444 78.7505 41.064 78.7505 40.536V36.924H77.8985Z" fill="#090909"/>
<rect x="102" y="24" width="88" height="28" rx="14" fill="white"/>
<rect x="106" y="28" width="20" height="20" rx="10" fill="#E62204"/>
<path d="M114.25 38.75C114.582 38.75 114.899 38.6183 115.134 38.3839C115.368 38.1495 115.5 37.8315 115.5 37.5C115.5 36.81 115.25 36.5 115 36C114.464 34.9285 114.888 33.973 116 33C116.25 34.25 117 35.45 118 36.25C119 37.05 119.5 38 119.5 39C119.5 39.4596 119.409 39.9148 119.234 40.3394C119.058 40.764 118.8 41.1499 118.475 41.4749C118.15 41.7999 117.764 42.0577 117.339 42.2336C116.915 42.4095 116.46 42.5 116 42.5C115.54 42.5 115.085 42.4095 114.661 42.2336C114.236 42.0577 113.85 41.7999 113.525 41.4749C113.2 41.1499 112.942 40.764 112.766 40.3394C112.591 39.9148 112.5 39.4596 112.5 39C112.5 38.4235 112.717 37.853 113 37.5C113 37.8315 113.132 38.1495 113.366 38.3839C113.601 38.6183 113.918 38.75 114.25 38.75Z" fill="white"/>
<path d="M138.416 42.18C137.208 42.18 136.216 41.764 135.44 40.932C134.672 40.092 134.288 39.028 134.288 37.74C134.288 36.444 134.664 35.372 135.416 34.524C136.168 33.676 137.164 33.252 138.404 33.252C139.428 33.252 140.248 33.524 140.864 34.068C141.488 34.604 141.848 35.296 141.944 36.144H140.216C140.136 35.704 139.936 35.356 139.616 35.1C139.304 34.844 138.9 34.716 138.404 34.716C137.644 34.716 137.064 34.996 136.664 35.556C136.264 36.116 136.064 36.844 136.064 37.74C136.064 38.628 136.276 39.352 136.7 39.912C137.132 40.472 137.704 40.752 138.416 40.752C138.92 40.752 139.34 40.616 139.676 40.344C140.012 40.064 140.208 39.696 140.264 39.24H141.968C141.92 40.048 141.604 40.724 141.02 41.268C140.372 41.876 139.504 42.18 138.416 42.18ZM146.607 42C146.527 41.896 146.463 41.668 146.415 41.316H146.391C146.215 41.58 145.991 41.784 145.719 41.928C145.447 42.072 145.067 42.144 144.579 42.144C143.931 42.144 143.411 41.98 143.019 41.652C142.627 41.324 142.431 40.86 142.431 40.26C142.431 39.636 142.647 39.18 143.079 38.892C143.511 38.596 144.119 38.392 144.903 38.28C145.479 38.2 145.871 38.12 146.079 38.04C146.287 37.952 146.391 37.8 146.391 37.584C146.391 37.36 146.303 37.184 146.127 37.056C145.951 36.92 145.695 36.852 145.359 36.852C144.615 36.852 144.219 37.14 144.171 37.716H142.719C142.743 37.132 142.979 36.648 143.427 36.264C143.875 35.88 144.523 35.688 145.371 35.688C147.099 35.688 147.963 36.444 147.963 37.956V41.088C147.963 41.552 148.035 41.836 148.179 41.94V42H146.607ZM144.975 41.004C145.423 41.004 145.775 40.888 146.031 40.656C146.295 40.424 146.427 40.148 146.427 39.828V38.904C146.251 39.008 145.871 39.128 145.287 39.264C144.823 39.368 144.495 39.488 144.303 39.624C144.111 39.752 144.015 39.952 144.015 40.224C144.015 40.744 144.335 41.004 144.975 41.004ZM149.025 42V33.42H150.657V42H149.025ZM156.963 41.256C156.363 41.872 155.591 42.18 154.647 42.18C153.703 42.18 152.931 41.872 152.331 41.256C151.731 40.632 151.431 39.856 151.431 38.928C151.431 38 151.731 37.228 152.331 36.612C152.931 35.988 153.703 35.676 154.647 35.676C155.591 35.676 156.363 35.988 156.963 36.612C157.563 37.228 157.863 38 157.863 38.928C157.863 39.856 157.563 40.632 156.963 41.256ZM154.647 40.932C155.135 40.932 155.515 40.752 155.787 40.392C156.067 40.024 156.207 39.536 156.207 38.928C156.207 38.32 156.067 37.832 155.787 37.464C155.515 37.096 155.135 36.912 154.647 36.912C154.151 36.912 153.767 37.096 153.495 37.464C153.223 37.824 153.087 38.312 153.087 38.928C153.087 39.536 153.223 40.024 153.495 40.392C153.767 40.752 154.151 40.932 154.647 40.932ZM160.194 35.844V36.828H160.23C160.422 36.468 160.634 36.204 160.866 36.036C161.098 35.86 161.39 35.772 161.742 35.772C161.91 35.772 162.038 35.788 162.126 35.82V37.248H162.09C161.538 37.192 161.094 37.312 160.758 37.608C160.422 37.904 160.254 38.368 160.254 39V42H158.622V35.844H160.194ZM162.829 42V35.844H164.461V42H162.829ZM162.829 34.884V33.42H164.461V34.884H162.829ZM168.404 42.18C167.412 42.18 166.632 41.876 166.064 41.268C165.496 40.652 165.212 39.868 165.212 38.916C165.212 37.996 165.496 37.228 166.064 36.612C166.632 35.988 167.36 35.676 168.248 35.676C169.216 35.676 169.964 36.012 170.492 36.684C171.02 37.356 171.284 38.256 171.284 39.384H166.82C166.884 39.872 167.048 40.252 167.312 40.524C167.576 40.788 167.936 40.92 168.392 40.92C168.992 40.92 169.388 40.668 169.58 40.164H171.188C171.068 40.74 170.764 41.22 170.276 41.604C169.788 41.988 169.164 42.18 168.404 42.18ZM168.272 36.936C167.48 36.936 167.004 37.376 166.844 38.256H169.58C169.556 37.864 169.424 37.548 169.184 37.308C168.944 37.06 168.64 36.936 168.272 36.936ZM174.536 42.18C173.656 42.18 172.968 41.988 172.472 41.604C171.976 41.212 171.704 40.68 171.656 40.008H173.168C173.272 40.688 173.72 41.028 174.512 41.028C174.872 41.028 175.148 40.964 175.34 40.836C175.54 40.708 175.64 40.536 175.64 40.32C175.64 40.24 175.624 40.168 175.592 40.104C175.568 40.04 175.52 39.984 175.448 39.936C175.384 39.88 175.324 39.836 175.268 39.804C175.22 39.772 175.132 39.74 175.004 39.708C174.876 39.676 174.776 39.652 174.704 39.636C174.64 39.62 174.524 39.6 174.356 39.576C174.196 39.544 174.084 39.52 174.02 39.504C173.684 39.44 173.408 39.376 173.192 39.312C172.984 39.24 172.764 39.14 172.532 39.012C172.3 38.876 172.124 38.696 172.004 38.472C171.892 38.24 171.836 37.964 171.836 37.644C171.836 37.004 172.068 36.516 172.532 36.18C173.004 35.844 173.608 35.676 174.344 35.676C175.136 35.676 175.756 35.86 176.204 36.228C176.66 36.588 176.92 37.084 176.984 37.716H175.508C175.444 37.116 175.048 36.816 174.32 36.816C173.992 36.816 173.732 36.876 173.54 36.996C173.356 37.116 173.264 37.284 173.264 37.5C173.264 37.572 173.276 37.64 173.3 37.704C173.332 37.76 173.38 37.812 173.444 37.86C173.516 37.9 173.584 37.936 173.648 37.968C173.712 37.992 173.804 38.02 173.924 38.052C174.044 38.076 174.148 38.1 174.236 38.124C174.324 38.14 174.444 38.164 174.596 38.196C174.748 38.22 174.868 38.24 174.956 38.256C175.212 38.312 175.42 38.364 175.58 38.412C175.748 38.452 175.94 38.524 176.156 38.628C176.372 38.724 176.54 38.836 176.66 38.964C176.788 39.084 176.896 39.252 176.984 39.468C177.08 39.676 177.128 39.92 177.128 40.2C177.128 40.808 176.888 41.292 176.408 41.652C175.936 42.004 175.312 42.18 174.536 42.18Z" fill="#090909"/>
<rect x="198" y="24" width="84" height="28" rx="14" fill="white"/>
<rect x="202" y="28" width="20" height="20" rx="10" fill="#FF6727"/>
<path d="M208 39C207.905 39.0003 207.813 38.9738 207.732 38.9235C207.652 38.8732 207.588 38.8012 207.547 38.7158C207.506 38.6305 207.491 38.5353 207.502 38.4413C207.513 38.3474 207.55 38.2585 207.61 38.185L212.56 33.085C212.597 33.0421 212.648 33.0132 212.703 33.0029C212.759 32.9925 212.817 33.0015 212.867 33.0282C212.917 33.055 212.956 33.0979 212.979 33.15C213.001 33.2021 213.005 33.2603 212.99 33.315L212.03 36.325C212.002 36.4008 211.992 36.4822 212.002 36.5625C212.012 36.6427 212.042 36.7193 212.088 36.7857C212.134 36.8521 212.196 36.9062 212.268 36.9436C212.339 36.9809 212.419 37.0003 212.5 37H216C216.095 36.9997 216.187 37.0262 216.268 37.0765C216.348 37.1268 216.412 37.1988 216.453 37.2842C216.494 37.3695 216.509 37.4647 216.498 37.5587C216.487 37.6526 216.45 37.7415 216.39 37.815L211.44 42.915C211.403 42.9578 211.352 42.9868 211.297 42.9971C211.241 43.0074 211.183 42.9985 211.133 42.9717C211.083 42.945 211.044 42.902 211.021 42.8499C210.999 42.7978 210.995 42.7397 211.01 42.685L211.97 39.675C211.998 39.5992 212.008 39.5177 211.998 39.4375C211.988 39.3572 211.958 39.2806 211.912 39.2143C211.866 39.1479 211.804 39.0937 211.732 39.0564C211.661 39.0191 211.581 38.9997 211.5 39H208Z" fill="white"/>
<path d="M230.036 42L233.024 33.42H234.824L237.848 42H236.036L235.46 40.176H232.364L231.8 42H230.036ZM233.54 36.372L232.772 38.844H235.04L234.272 36.372L233.924 35.052H233.9C233.756 35.628 233.636 36.068 233.54 36.372ZM241.06 42.18C240.108 42.18 239.344 41.872 238.768 41.256C238.192 40.64 237.904 39.864 237.904 38.928C237.904 37.992 238.184 37.216 238.744 36.6C239.312 35.984 240.056 35.676 240.976 35.676C241.752 35.676 242.384 35.88 242.872 36.288C243.36 36.696 243.66 37.244 243.772 37.932H242.176C242.12 37.652 241.992 37.424 241.792 37.248C241.592 37.072 241.344 36.984 241.048 36.984C240.568 36.984 240.2 37.156 239.944 37.5C239.688 37.844 239.56 38.32 239.56 38.928C239.56 39.528 239.684 40.004 239.932 40.356C240.18 40.7 240.544 40.872 241.024 40.872C241.736 40.872 242.148 40.524 242.26 39.828H243.832C243.776 40.508 243.5 41.072 243.004 41.52C242.508 41.96 241.86 42.18 241.06 42.18ZM244.184 36.924V35.844H245.036V33.924H246.632V35.844H247.688V36.924H246.632V40.188C246.632 40.596 246.836 40.8 247.244 40.8L247.724 40.788V41.988C247.476 42.004 247.136 42.012 246.704 42.012C246.232 42.012 245.836 41.9 245.516 41.676C245.196 41.444 245.036 41.064 245.036 40.536V36.924H244.184ZM248.528 42V35.844H250.16V42H248.528ZM248.528 34.884V33.42H250.16V34.884H248.528ZM252.844 42L250.708 35.844H252.364L253.348 39.036L253.624 40.02H253.648C253.704 39.756 253.792 39.428 253.912 39.036L254.92 35.844H256.552L254.404 42H252.844ZM257.106 42V35.844H258.738V42H257.106ZM257.106 34.884V33.42H258.738V34.884H257.106ZM259.43 36.924V35.844H260.282V33.924H261.878V35.844H262.934V36.924H261.878V40.188C261.878 40.596 262.082 40.8 262.49 40.8L262.97 40.788V41.988C262.722 42.004 262.382 42.012 261.95 42.012C261.478 42.012 261.082 41.9 260.762 41.676C260.442 41.444 260.282 41.064 260.282 40.536V36.924H259.43ZM264.023 44.016V42.732H264.599C265.207 42.732 265.511 42.452 265.511 41.892C265.511 41.62 265.355 41.064 265.043 40.224L263.387 35.844H265.103L266.015 38.616L266.411 39.96H266.435C266.547 39.44 266.667 38.992 266.795 38.616L267.659 35.844H269.303L267.155 42.156C266.915 42.86 266.643 43.344 266.339 43.608C266.043 43.88 265.591 44.016 264.983 44.016H264.023Z" fill="#090909"/>
</g>
</g>
<defs>
<filter id="filter0_d_1_4189" x="140" y="230" width="16" height="16" filterUnits="userSpaceOnUse" color-interpolation-filters="sRGB">
<feFlood flood-opacity="0" result="BackgroundImageFix"/>
<feColorMatrix in="SourceAlpha" type="matrix" values="0 0 0 0 0 0 0 0 0 0 0 0 0 0 0 0 0 0 127 0" result="hardAlpha"/>
<feOffset dy="1"/>
<feGaussianBlur stdDeviation="1"/>
<feComposite in2="hardAlpha" operator="out"/>
<feColorMatrix type="matrix" values="0 0 0 0 0.615686 0 0 0 0 0.52549 0 0 0 0 0.741176 0 0 0 0.4 0"/>
<feBlend mode="normal" in2="BackgroundImageFix" result="effect1_dropShadow_1_4189"/>
<feBlend mode="normal" in="SourceGraphic" in2="effect1_dropShadow_1_4189" result="shape"/>
</filter>
<filter id="filter1_d_1_4189" x="135" y="225" width="26" height="26" filterUnits="userSpaceOnUse" color-interpolation-filters="sRGB">
<feFlood flood-opacity="0" result="BackgroundImageFix"/>
<feColorMatrix in="SourceAlpha" type="matrix" values="0 0 0 0 0 0 0 0 0 0 0 0 0 0 0 0 0 0 127 0" result="hardAlpha"/>
<feOffset dy="1"/>
<feGaussianBlur stdDeviation="1"/>
<feComposite in2="hardAlpha" operator="out"/>
<feColorMatrix type="matrix" values="0 0 0 0 0.615686 0 0 0 0 0.52549 0 0 0 0 0.741176 0 0 0 0.4 0"/>
<feBlend mode="normal" in2="BackgroundImageFix" result="effect1_dropShadow_1_4189"/>
<feBlend mode="normal" in="SourceGraphic" in2="effect1_dropShadow_1_4189" result="shape"/>
</filter>
<filter id="filter2_f_1_4189" x="148.667" y="233.533" width="7.19995" height="5.60001" filterUnits="userSpaceOnUse" color-interpolation-filters="sRGB">
<feFlood flood-opacity="0" result="BackgroundImageFix"/>
<feBlend mode="normal" in="SourceGraphic" in2="BackgroundImageFix" result="shape"/>
<feGaussianBlur stdDeviation="1" result="effect1_foregroundBlur_1_4189"/>
</filter>
<filter id="filter3_f_1_4189" x="140.133" y="233.533" width="7.19995" height="5.60001" filterUnits="userSpaceOnUse" color-interpolation-filters="sRGB">
<feFlood flood-opacity="0" result="BackgroundImageFix"/>
<feBlend mode="normal" in="SourceGraphic" in2="BackgroundImageFix" result="shape"/>
<feGaussianBlur stdDeviation="1" result="effect1_foregroundBlur_1_4189"/>
</filter>
<filter id="filter4_d_1_4189" x="6" y="20" width="283" height="42" filterUnits="userSpaceOnUse" color-interpolation-filters="sRGB">
<feFlood flood-opacity="0" result="BackgroundImageFix"/>
<feColorMatrix in="SourceAlpha" type="matrix" values="0 0 0 0 0 0 0 0 0 0 0 0 0 0 0 0 0 0 127 0" result="hardAlpha"/>
<feMorphology radius="1" operator="erode" in="SourceAlpha" result="effect1_dropShadow_1_4189"/>
<feOffset dy="3"/>
<feGaussianBlur stdDeviation="4"/>
<feComposite in2="hardAlpha" operator="out"/>
<feColorMatrix type="matrix" values="0 0 0 0 0 0 0 0 0 0 0 0 0 0 0 0 0 0 0.1 0"/>
<feBlend mode="normal" in2="BackgroundImageFix" result="effect1_dropShadow_1_4189"/>
<feBlend mode="normal" in="SourceGraphic" in2="effect1_dropShadow_1_4189" result="shape"/>
</filter>
<radialGradient id="paint0_radial_1_4189" cx="0" cy="0" r="1" gradientUnits="userSpaceOnUse" gradientTransform="translate(148 233.5) rotate(90) scale(11.5)">
<stop stop-color="#FFE286"/>
<stop offset="0.383899" stop-color="#FFD243"/>
<stop offset="0.743802" stop-color="#FFD243"/>
<stop offset="0.888201" stop-color="#FFB637"/>
<stop offset="1" stop-color="#E58500"/>
</radialGradient>
</defs>
</svg>
