<svg width="295" height="320" viewBox="0 0 295 320" fill="none" xmlns="http://www.w3.org/2000/svg">
<rect width="295" height="320" rx="12" fill="#F2EFF6"/>
<mask id="mask0_1_4296" style="mask-type:alpha" maskUnits="userSpaceOnUse" x="0" y="0" width="295" height="320">
<rect width="295" height="320" rx="12" fill="#F2EFF6"/>
</mask>
<g mask="url(#mask0_1_4296)">
<path d="M32 100C32 86.7452 42.7452 76 56 76H203C216.255 76 227 86.7452 227 100V320H32V100Z" fill="#181221"/>
<path d="M40 100C40 91.1634 47.1634 84 56 84H203C211.837 84 219 91.1634 219 100V320H40V100Z" fill="white"/>
<path d="M52.66 132V123.42H54.4V130.548H58.432V132H52.66ZM62.0059 132.18C61.0139 132.18 60.2339 131.876 59.6659 131.268C59.0979 130.652 58.8139 129.868 58.8139 128.916C58.8139 127.996 59.0979 127.228 59.6659 126.612C60.2339 125.988 60.9619 125.676 61.8499 125.676C62.8179 125.676 63.5659 126.012 64.0939 126.684C64.6219 127.356 64.8859 128.256 64.8859 129.384H60.4219C60.4859 129.872 60.6499 130.252 60.9139 130.524C61.1779 130.788 61.5379 130.92 61.9939 130.92C62.5939 130.92 62.9899 130.668 63.1819 130.164H64.7899C64.6699 130.74 64.3659 131.22 63.8779 131.604C63.3899 131.988 62.7659 132.18 62.0059 132.18ZM61.8739 126.936C61.0819 126.936 60.6059 127.376 60.4459 128.256H63.1819C63.1579 127.864 63.0259 127.548 62.7859 127.308C62.5459 127.06 62.2419 126.936 61.8739 126.936ZM68.1373 132.18C67.2573 132.18 66.5693 131.988 66.0733 131.604C65.5773 131.212 65.3053 130.68 65.2573 130.008H66.7693C66.8733 130.688 67.3213 131.028 68.1133 131.028C68.4733 131.028 68.7493 130.964 68.9413 130.836C69.1413 130.708 69.2413 130.536 69.2413 130.32C69.2413 130.24 69.2253 130.168 69.1933 130.104C69.1693 130.04 69.1213 129.984 69.0493 129.936C68.9853 129.88 68.9253 129.836 68.8693 129.804C68.8213 129.772 68.7333 129.74 68.6053 129.708C68.4773 129.676 68.3773 129.652 68.3053 129.636C68.2413 129.62 68.1253 129.6 67.9573 129.576C67.7973 129.544 67.6853 129.52 67.6213 129.504C67.2853 129.44 67.0093 129.376 66.7933 129.312C66.5853 129.24 66.3653 129.14 66.1333 129.012C65.9013 128.876 65.7253 128.696 65.6053 128.472C65.4933 128.24 65.4373 127.964 65.4373 127.644C65.4373 127.004 65.6693 126.516 66.1333 126.18C66.6053 125.844 67.2093 125.676 67.9453 125.676C68.7373 125.676 69.3573 125.86 69.8053 126.228C70.2613 126.588 70.5213 127.084 70.5853 127.716H69.1093C69.0453 127.116 68.6493 126.816 67.9213 126.816C67.5933 126.816 67.3333 126.876 67.1413 126.996C66.9573 127.116 66.8653 127.284 66.8653 127.5C66.8653 127.572 66.8773 127.64 66.9013 127.704C66.9333 127.76 66.9813 127.812 67.0453 127.86C67.1173 127.9 67.1853 127.936 67.2493 127.968C67.3133 127.992 67.4053 128.02 67.5253 128.052C67.6453 128.076 67.7493 128.1 67.8373 128.124C67.9253 128.14 68.0453 128.164 68.1973 128.196C68.3493 128.22 68.4693 128.24 68.5573 128.256C68.8133 128.312 69.0213 128.364 69.1813 128.412C69.3493 128.452 69.5413 128.524 69.7573 128.628C69.9733 128.724 70.1413 128.836 70.2613 128.964C70.3893 129.084 70.4973 129.252 70.5853 129.468C70.6813 129.676 70.7293 129.92 70.7293 130.2C70.7293 130.808 70.4893 131.292 70.0093 131.652C69.5373 132.004 68.9133 132.18 68.1373 132.18ZM73.9615 132.18C73.0815 132.18 72.3935 131.988 71.8975 131.604C71.4015 131.212 71.1295 130.68 71.0815 130.008H72.5935C72.6975 130.688 73.1455 131.028 73.9375 131.028C74.2975 131.028 74.5735 130.964 74.7655 130.836C74.9655 130.708 75.0655 130.536 75.0655 130.32C75.0655 130.24 75.0495 130.168 75.0175 130.104C74.9935 130.04 74.9455 129.984 74.8735 129.936C74.8095 129.88 74.7495 129.836 74.6935 129.804C74.6455 129.772 74.5575 129.74 74.4295 129.708C74.3015 129.676 74.2015 129.652 74.1295 129.636C74.0655 129.62 73.9495 129.6 73.7815 129.576C73.6215 129.544 73.5095 129.52 73.4455 129.504C73.1095 129.44 72.8335 129.376 72.6175 129.312C72.4095 129.24 72.1895 129.14 71.9575 129.012C71.7255 128.876 71.5495 128.696 71.4295 128.472C71.3175 128.24 71.2615 127.964 71.2615 127.644C71.2615 127.004 71.4935 126.516 71.9575 126.18C72.4295 125.844 73.0335 125.676 73.7695 125.676C74.5615 125.676 75.1815 125.86 75.6295 126.228C76.0855 126.588 76.3455 127.084 76.4095 127.716H74.9335C74.8695 127.116 74.4735 126.816 73.7455 126.816C73.4175 126.816 73.1575 126.876 72.9655 126.996C72.7815 127.116 72.6895 127.284 72.6895 127.5C72.6895 127.572 72.7015 127.64 72.7255 127.704C72.7575 127.76 72.8055 127.812 72.8695 127.86C72.9415 127.9 73.0095 127.936 73.0735 127.968C73.1375 127.992 73.2295 128.02 73.3495 128.052C73.4695 128.076 73.5735 128.1 73.6615 128.124C73.7495 128.14 73.8695 128.164 74.0215 128.196C74.1735 128.22 74.2935 128.24 74.3815 128.256C74.6375 128.312 74.8455 128.364 75.0055 128.412C75.1735 128.452 75.3655 128.524 75.5815 128.628C75.7975 128.724 75.9655 128.836 76.0855 128.964C76.2135 129.084 76.3215 129.252 76.4095 129.468C76.5055 129.676 76.5535 129.92 76.5535 130.2C76.5535 130.808 76.3135 131.292 75.8335 131.652C75.3615 132.004 74.7375 132.18 73.9615 132.18ZM82.5803 131.256C81.9803 131.872 81.2083 132.18 80.2643 132.18C79.3203 132.18 78.5483 131.872 77.9483 131.256C77.3483 130.632 77.0483 129.856 77.0483 128.928C77.0483 128 77.3483 127.228 77.9483 126.612C78.5483 125.988 79.3203 125.676 80.2643 125.676C81.2083 125.676 81.9803 125.988 82.5803 126.612C83.1803 127.228 83.4803 128 83.4803 128.928C83.4803 129.856 83.1803 130.632 82.5803 131.256ZM80.2643 130.932C80.7523 130.932 81.1323 130.752 81.4043 130.392C81.6843 130.024 81.8243 129.536 81.8243 128.928C81.8243 128.32 81.6843 127.832 81.4043 127.464C81.1323 127.096 80.7523 126.912 80.2643 126.912C79.7683 126.912 79.3843 127.096 79.1123 127.464C78.8403 127.824 78.7043 128.312 78.7043 128.928C78.7043 129.536 78.8403 130.024 79.1123 130.392C79.3843 130.752 79.7683 130.932 80.2643 130.932ZM85.8349 125.844V126.684H85.8709C86.2949 126.012 86.9029 125.676 87.6949 125.676C88.3269 125.676 88.8389 125.892 89.2309 126.324C89.6229 126.748 89.8189 127.3 89.8189 127.98V132H88.1869V128.22C88.1869 127.884 88.0909 127.612 87.8989 127.404C87.7149 127.196 87.4549 127.092 87.1189 127.092C86.7589 127.092 86.4589 127.224 86.2189 127.488C85.9869 127.752 85.8709 128.092 85.8709 128.508V132H84.2389V125.844H85.8349ZM98.0725 131.256C97.4725 131.872 96.7005 132.18 95.7565 132.18C94.8125 132.18 94.0405 131.872 93.4405 131.256C92.8405 130.632 92.5405 129.856 92.5405 128.928C92.5405 128 92.8405 127.228 93.4405 126.612C94.0405 125.988 94.8125 125.676 95.7565 125.676C96.7005 125.676 97.4725 125.988 98.0725 126.612C98.6725 127.228 98.9725 128 98.9725 128.928C98.9725 129.856 98.6725 130.632 98.0725 131.256ZM95.7565 130.932C96.2445 130.932 96.6245 130.752 96.8965 130.392C97.1765 130.024 97.3165 129.536 97.3165 128.928C97.3165 128.32 97.1765 127.832 96.8965 127.464C96.6245 127.096 96.2445 126.912 95.7565 126.912C95.2605 126.912 94.8765 127.096 94.6045 127.464C94.3325 127.824 94.1965 128.312 94.1965 128.928C94.1965 129.536 94.3325 130.024 94.6045 130.392C94.8765 130.752 95.2605 130.932 95.7565 130.932ZM99.2539 126.972V125.844H100.094V125.292C100.094 124.572 100.342 124.06 100.838 123.756C101.334 123.452 101.998 123.344 102.83 123.432V124.692C102.422 124.676 102.134 124.712 101.966 124.8C101.806 124.888 101.726 125.084 101.726 125.388V125.844H102.83V126.972H101.726V132H100.094V126.972H99.2539ZM105.231 126.924V125.844H106.083V123.924H107.679V125.844H108.735V126.924H107.679V130.188C107.679 130.596 107.883 130.8 108.291 130.8L108.771 130.788V131.988C108.523 132.004 108.183 132.012 107.751 132.012C107.279 132.012 106.883 131.9 106.562 131.676C106.243 131.444 106.083 131.064 106.083 130.536V126.924H105.231ZM111.207 123.42V126.648H111.243C111.475 126.312 111.727 126.068 111.999 125.916C112.279 125.756 112.623 125.676 113.031 125.676C113.663 125.676 114.175 125.892 114.567 126.324C114.959 126.748 115.155 127.3 115.155 127.98V132H113.523V128.22C113.523 127.884 113.427 127.612 113.235 127.404C113.051 127.196 112.791 127.092 112.455 127.092C112.095 127.092 111.795 127.224 111.555 127.488C111.323 127.752 111.207 128.092 111.207 128.508V132H109.575V123.42H111.207ZM119.053 132.18C118.061 132.18 117.281 131.876 116.713 131.268C116.145 130.652 115.861 129.868 115.861 128.916C115.861 127.996 116.145 127.228 116.713 126.612C117.281 125.988 118.009 125.676 118.897 125.676C119.865 125.676 120.613 126.012 121.141 126.684C121.669 127.356 121.933 128.256 121.933 129.384H117.469C117.533 129.872 117.697 130.252 117.961 130.524C118.225 130.788 118.585 130.92 119.041 130.92C119.641 130.92 120.037 130.668 120.229 130.164H121.837C121.717 130.74 121.413 131.22 120.925 131.604C120.437 131.988 119.813 132.18 119.053 132.18ZM118.921 126.936C118.129 126.936 117.653 127.376 117.493 128.256H120.229C120.205 127.864 120.073 127.548 119.833 127.308C119.593 127.06 119.289 126.936 118.921 126.936ZM126.024 132L124.224 125.844H125.844L126.588 128.7L126.864 129.852H126.888C126.976 129.412 127.064 129.024 127.152 128.688L127.92 125.844H129.312L130.116 128.688L130.404 129.852H130.428C130.524 129.42 130.616 129.036 130.704 128.7L131.484 125.844H133.068L131.232 132H129.744L128.928 128.976L128.652 127.908H128.628C128.524 128.292 128.428 128.648 128.34 128.976L127.5 132H126.024ZM136.361 132.18C135.369 132.18 134.589 131.876 134.021 131.268C133.453 130.652 133.169 129.868 133.169 128.916C133.169 127.996 133.453 127.228 134.021 126.612C134.589 125.988 135.317 125.676 136.205 125.676C137.173 125.676 137.921 126.012 138.449 126.684C138.977 127.356 139.241 128.256 139.241 129.384H134.777C134.841 129.872 135.005 130.252 135.269 130.524C135.533 130.788 135.893 130.92 136.349 130.92C136.949 130.92 137.345 130.668 137.537 130.164H139.145C139.025 130.74 138.721 131.22 138.233 131.604C137.745 131.988 137.121 132.18 136.361 132.18ZM136.229 126.936C135.437 126.936 134.961 127.376 134.801 128.256H137.537C137.513 127.864 137.381 127.548 137.141 127.308C136.901 127.06 136.597 126.936 136.229 126.936ZM142.889 132.18C141.897 132.18 141.117 131.876 140.549 131.268C139.981 130.652 139.697 129.868 139.697 128.916C139.697 127.996 139.981 127.228 140.549 126.612C141.117 125.988 141.845 125.676 142.733 125.676C143.701 125.676 144.449 126.012 144.977 126.684C145.505 127.356 145.769 128.256 145.769 129.384H141.305C141.369 129.872 141.533 130.252 141.797 130.524C142.061 130.788 142.421 130.92 142.877 130.92C143.477 130.92 143.873 130.668 144.065 130.164H145.673C145.553 130.74 145.249 131.22 144.761 131.604C144.273 131.988 143.649 132.18 142.889 132.18ZM142.757 126.936C141.965 126.936 141.489 127.376 141.329 128.256H144.065C144.041 127.864 143.909 127.548 143.669 127.308C143.429 127.06 143.125 126.936 142.757 126.936ZM150.58 132L148.852 129.192L148.144 129.924V132H146.524V123.42H148.144V128.172L150.328 125.844H152.284L150.016 128.184L152.56 132H150.58Z" fill="#090909"/>
<rect x="52" y="252" width="155" height="4" rx="2" fill="#C1CBD2"/>
<rect x="52" y="266" width="155" height="4" rx="2" fill="#C1CBD2"/>
<rect x="52" y="280" width="155" height="4" rx="2" fill="#C1CBD2"/>
<rect x="52" y="294" width="155" height="4" rx="2" fill="#C1CBD2"/>
<rect x="52" y="308" width="62" height="4" rx="2" fill="#C1CBD2"/>
<rect x="117" y="92" width="25" height="8" rx="4" fill="#181221"/>
<path d="M251 217C258.18 217 264 222.82 264 230V296C264 303.18 258.18 309 251 309H185C177.82 309 172 303.18 172 296V230C172 222.82 177.82 217 185 217H251Z" fill="#E9FEF2" stroke="white" stroke-width="2"/>
<path d="M199.875 296L210.75 254.917H254.25L243.375 296H199.875Z" fill="#001A0A"/>
<path d="M198.875 296V238H242.375V296H198.875Z" fill="#006629"/>
<path d="M197.875 296V238H241.375V296H197.875Z" fill="white"/>
<rect x="204" y="244" width="14" height="2" fill="#6ADC9E"/>
<rect x="204" y="250" width="10" height="2" fill="#6ADC9E"/>
<rect x="204" y="256" width="17" height="2" fill="#6ADC9E"/>
<rect x="204" y="262" width="7" height="2" fill="#6ADC9E"/>
<path d="M229.1 244C232.414 244 235.1 246.686 235.1 250C235.101 250.818 234.934 251.628 234.61 252.379C234.286 253.13 233.811 253.807 233.214 254.367C232.102 255.418 230.63 256.002 229.1 256C227.57 256.002 226.098 255.418 224.986 254.367C224.39 253.807 223.915 253.13 223.59 252.379C223.266 251.628 223.099 250.818 223.1 250C223.1 246.686 225.786 244 229.1 244ZM229.1 251.846C228.408 251.845 227.725 252 227.101 252.3C226.477 252.599 225.929 253.036 225.497 253.576C225.968 254.052 226.529 254.431 227.148 254.688C227.766 254.946 228.43 255.078 229.1 255.077C229.77 255.078 230.434 254.946 231.052 254.688C231.671 254.431 232.232 254.052 232.704 253.576C232.272 253.036 231.723 252.599 231.099 252.3C230.475 252 229.792 251.845 229.1 251.846ZM229.1 246.701C228.106 246.701 227.3 247.507 227.3 248.501C227.3 249.495 228.106 250.301 229.1 250.301C230.094 250.301 230.9 249.495 230.9 248.501C230.9 247.507 230.094 246.701 229.1 246.701Z" fill="#00B84A"/>
<path d="M195.875 296L185 269.583H211.583L215.813 265.958H231.292L243.375 296H195.875Z" fill="#A8EDC7"/>
<path d="M218 287H232L234 291H220L218 287Z" fill="white"/>
<path d="M198 251V238H211V247C211 249.209 209.209 251 207 251H198Z" fill="#001A0A"/>
<rect x="183" y="231" width="26" height="18" rx="4" fill="#E9FEF2"/>
<rect x="182" y="230" width="26" height="18" rx="4" fill="#00B84A"/>
<path d="M192 236.618C192 235.875 192.782 235.391 193.447 235.724L198.211 238.106C198.948 238.474 198.948 239.526 198.211 239.894L193.447 242.276C192.782 242.609 192 242.125 192 241.382V236.618Z" fill="white"/>
<g filter="url(#filter0_d_1_4296)">
<rect x="53" y="22" width="153" height="40" rx="4" fill="#FAFAFA"/>
</g>
<g filter="url(#filter1_d_1_4296)">
<rect x="45" y="16" width="169" height="42" rx="8" fill="white"/>
</g>
<rect x="53" y="23" width="28" height="28" rx="14" fill="#FFF0E9"/>
<path d="M64.4272 42.2552C64.9144 41.2808 65.9105 40.6652 67 40.6652C68.0896 40.6652 69.0856 41.2808 69.5728 42.2552L70.5556 44.2206H63.4445L64.4272 42.2552Z" fill="#FF6727"/>
<path d="M63.4445 44.2209H70.5556V45.2209H63.4445V44.2209Z" fill="#FF6727"/>
<path fill-rule="evenodd" clip-rule="evenodd" d="M62.2443 37.3909C62.6261 37.4977 63.0285 37.5548 63.4443 37.5548V31.3327H60.7776C59.7958 31.3327 58.9999 32.1286 58.9999 33.1105C58.9999 35.1492 60.3727 36.8673 62.2443 37.3909ZM62.2443 36.1256C61.0465 35.6485 60.1999 34.4783 60.1999 33.1105C60.1999 32.7914 60.4585 32.5327 60.7776 32.5327H62.2443V36.1256Z" fill="#FF6727"/>
<path fill-rule="evenodd" clip-rule="evenodd" d="M71.7557 37.3909C71.3739 37.4977 70.9715 37.5548 70.5557 37.5548V31.3327H73.2224C74.2042 31.3327 75.0001 32.1286 75.0001 33.1105C75.0001 35.1492 73.6273 36.8673 71.7557 37.3909ZM71.7557 36.1256C72.9535 35.6485 73.8001 34.4783 73.8001 33.1105C73.8001 32.7914 73.5415 32.5327 73.2224 32.5327H71.7557V36.1256Z" fill="#FF6727"/>
<path d="M61.6664 30H72.333V35.7776C72.333 38.723 69.9452 41.1108 66.9997 41.1108C64.0542 41.1108 61.6664 38.723 61.6664 35.7776V30Z" fill="#FF6727"/>
<path fill-rule="evenodd" clip-rule="evenodd" d="M67.0001 36.6659L69.09 37.7646L68.6909 35.4375L70.3816 33.7895L68.0451 33.45L67.0001 31.3327L65.9552 33.45L63.6186 33.7895L65.3093 35.4375L64.9102 37.7646L67.0001 36.6659Z" fill="white"/>
<path d="M97.416 34.18C96.208 34.18 95.216 33.764 94.44 32.932C93.672 32.092 93.288 31.028 93.288 29.74C93.288 28.444 93.664 27.372 94.416 26.524C95.168 25.676 96.164 25.252 97.404 25.252C98.428 25.252 99.248 25.524 99.864 26.068C100.488 26.604 100.848 27.296 100.944 28.144H99.216C99.136 27.704 98.936 27.356 98.616 27.1C98.304 26.844 97.9 26.716 97.404 26.716C96.644 26.716 96.064 26.996 95.664 27.556C95.264 28.116 95.064 28.844 95.064 29.74C95.064 30.628 95.276 31.352 95.7 31.912C96.132 32.472 96.704 32.752 97.416 32.752C97.92 32.752 98.34 32.616 98.676 32.344C99.012 32.064 99.208 31.696 99.264 31.24H100.968C100.92 32.048 100.604 32.724 100.02 33.268C99.372 33.876 98.504 34.18 97.416 34.18ZM107.022 33.256C106.422 33.872 105.65 34.18 104.706 34.18C103.762 34.18 102.99 33.872 102.39 33.256C101.79 32.632 101.49 31.856 101.49 30.928C101.49 30 101.79 29.228 102.39 28.612C102.99 27.988 103.762 27.676 104.706 27.676C105.65 27.676 106.422 27.988 107.022 28.612C107.622 29.228 107.922 30 107.922 30.928C107.922 31.856 107.622 32.632 107.022 33.256ZM104.706 32.932C105.194 32.932 105.574 32.752 105.846 32.392C106.126 32.024 106.266 31.536 106.266 30.928C106.266 30.32 106.126 29.832 105.846 29.464C105.574 29.096 105.194 28.912 104.706 28.912C104.21 28.912 103.826 29.096 103.554 29.464C103.282 29.824 103.146 30.312 103.146 30.928C103.146 31.536 103.282 32.024 103.554 32.392C103.826 32.752 104.21 32.932 104.706 32.932ZM110.276 27.844V28.684H110.312C110.736 28.012 111.344 27.676 112.136 27.676C112.768 27.676 113.28 27.892 113.672 28.324C114.064 28.748 114.26 29.3 114.26 29.98V34H112.628V30.22C112.628 29.884 112.532 29.612 112.34 29.404C112.156 29.196 111.896 29.092 111.56 29.092C111.2 29.092 110.9 29.224 110.66 29.488C110.428 29.752 110.312 30.092 110.312 30.508V34H108.68V27.844H110.276ZM117.978 36.1C117.146 36.1 116.478 35.932 115.974 35.596C115.478 35.26 115.186 34.788 115.098 34.18H116.718C116.878 34.636 117.29 34.864 117.954 34.864C118.866 34.864 119.322 34.436 119.322 33.58V32.908H119.286C118.862 33.388 118.326 33.628 117.678 33.628C116.95 33.628 116.314 33.36 115.77 32.824C115.234 32.288 114.966 31.576 114.966 30.688C114.966 29.776 115.214 29.048 115.71 28.504C116.206 27.952 116.846 27.676 117.63 27.676C118.374 27.676 118.942 27.948 119.334 28.492H119.358V27.844H120.93V33.532C120.93 34.332 120.686 34.956 120.198 35.404C119.702 35.868 118.962 36.1 117.978 36.1ZM117.954 32.32C118.442 32.32 118.806 32.164 119.046 31.852C119.286 31.54 119.406 31.14 119.406 30.652C119.406 30.172 119.278 29.776 119.022 29.464C118.774 29.144 118.414 28.984 117.942 28.984C117.526 28.984 117.19 29.136 116.934 29.44C116.686 29.744 116.562 30.152 116.562 30.664C116.562 31.184 116.686 31.592 116.934 31.888C117.19 32.176 117.53 32.32 117.954 32.32ZM123.553 27.844V28.828H123.589C123.781 28.468 123.993 28.204 124.225 28.036C124.457 27.86 124.749 27.772 125.101 27.772C125.269 27.772 125.397 27.788 125.485 27.82V29.248H125.449C124.897 29.192 124.453 29.312 124.117 29.608C123.781 29.904 123.613 30.368 123.613 31V34H121.981V27.844H123.553ZM129.888 34C129.808 33.896 129.744 33.668 129.696 33.316H129.672C129.496 33.58 129.272 33.784 129 33.928C128.728 34.072 128.348 34.144 127.86 34.144C127.212 34.144 126.692 33.98 126.3 33.652C125.908 33.324 125.712 32.86 125.712 32.26C125.712 31.636 125.928 31.18 126.36 30.892C126.792 30.596 127.4 30.392 128.184 30.28C128.76 30.2 129.152 30.12 129.36 30.04C129.568 29.952 129.672 29.8 129.672 29.584C129.672 29.36 129.584 29.184 129.408 29.056C129.232 28.92 128.976 28.852 128.64 28.852C127.896 28.852 127.5 29.14 127.452 29.716H126C126.024 29.132 126.26 28.648 126.708 28.264C127.156 27.88 127.804 27.688 128.652 27.688C130.38 27.688 131.244 28.444 131.244 29.956V33.088C131.244 33.552 131.316 33.836 131.46 33.94V34H129.888ZM128.256 33.004C128.704 33.004 129.056 32.888 129.312 32.656C129.576 32.424 129.708 32.148 129.708 31.828V30.904C129.532 31.008 129.152 31.128 128.568 31.264C128.104 31.368 127.776 31.488 127.584 31.624C127.392 31.752 127.296 31.952 127.296 32.224C127.296 32.744 127.616 33.004 128.256 33.004ZM131.805 28.924V27.844H132.657V25.924H134.253V27.844H135.309V28.924H134.253V32.188C134.253 32.596 134.457 32.8 134.865 32.8L135.345 32.788V33.988C135.097 34.004 134.757 34.012 134.325 34.012C133.853 34.012 133.457 33.9 133.137 33.676C132.817 33.444 132.657 33.064 132.657 32.536V28.924H131.805ZM138.704 34.18C137.824 34.18 137.136 33.988 136.64 33.604C136.144 33.212 135.872 32.68 135.824 32.008H137.336C137.44 32.688 137.888 33.028 138.68 33.028C139.04 33.028 139.316 32.964 139.508 32.836C139.708 32.708 139.808 32.536 139.808 32.32C139.808 32.24 139.792 32.168 139.76 32.104C139.736 32.04 139.688 31.984 139.616 31.936C139.552 31.88 139.492 31.836 139.436 31.804C139.388 31.772 139.3 31.74 139.172 31.708C139.044 31.676 138.944 31.652 138.872 31.636C138.808 31.62 138.692 31.6 138.524 31.576C138.364 31.544 138.252 31.52 138.188 31.504C137.852 31.44 137.576 31.376 137.36 31.312C137.152 31.24 136.932 31.14 136.7 31.012C136.468 30.876 136.292 30.696 136.172 30.472C136.06 30.24 136.004 29.964 136.004 29.644C136.004 29.004 136.236 28.516 136.7 28.18C137.172 27.844 137.776 27.676 138.512 27.676C139.304 27.676 139.924 27.86 140.372 28.228C140.828 28.588 141.088 29.084 141.152 29.716H139.676C139.612 29.116 139.216 28.816 138.488 28.816C138.16 28.816 137.9 28.876 137.708 28.996C137.524 29.116 137.432 29.284 137.432 29.5C137.432 29.572 137.444 29.64 137.468 29.704C137.5 29.76 137.548 29.812 137.612 29.86C137.684 29.9 137.752 29.936 137.816 29.968C137.88 29.992 137.972 30.02 138.092 30.052C138.212 30.076 138.316 30.1 138.404 30.124C138.492 30.14 138.612 30.164 138.764 30.196C138.916 30.22 139.036 30.24 139.124 30.256C139.38 30.312 139.588 30.364 139.748 30.412C139.916 30.452 140.108 30.524 140.324 30.628C140.54 30.724 140.708 30.836 140.828 30.964C140.956 31.084 141.064 31.252 141.152 31.468C141.248 31.676 141.296 31.92 141.296 32.2C141.296 32.808 141.056 33.292 140.576 33.652C140.104 34.004 139.48 34.18 138.704 34.18ZM142.632 31.492L142.176 27.316V25.42H143.88V27.316L143.424 31.492H142.632ZM142.152 34V32.26H143.904V34H142.152Z" fill="#090909"/>
<path d="M95.69 49V45.97L93.1 41.85H94.1L96.15 45.25H96.17L98.25 41.85H99.21L96.59 45.99V49H95.69ZM102.726 48.36C102.273 48.88 101.67 49.14 100.916 49.14C100.163 49.14 99.5563 48.88 99.0963 48.36C98.6429 47.84 98.4163 47.1933 98.4163 46.42C98.4163 45.6467 98.6429 45 99.0963 44.48C99.5563 43.96 100.163 43.7 100.916 43.7C101.67 43.7 102.273 43.96 102.726 44.48C103.18 45 103.406 45.6467 103.406 46.42C103.406 47.1933 103.18 47.84 102.726 48.36ZM99.6763 47.89C99.9696 48.27 100.383 48.46 100.916 48.46C101.45 48.46 101.86 48.27 102.146 47.89C102.433 47.5033 102.576 47.0133 102.576 46.42C102.576 45.82 102.43 45.33 102.136 44.95C101.85 44.5633 101.443 44.37 100.916 44.37C100.383 44.37 99.9696 44.5633 99.6763 44.95C99.3896 45.3367 99.2463 45.8267 99.2463 46.42C99.2463 47.0133 99.3896 47.5033 99.6763 47.89ZM108.314 49H107.504V48.29H107.484C107.077 48.8433 106.557 49.12 105.924 49.12C105.391 49.12 104.967 48.97 104.654 48.67C104.341 48.3633 104.184 47.9433 104.184 47.41V43.83H104.994V47.39C104.994 47.7233 105.094 47.9833 105.294 48.17C105.501 48.3567 105.787 48.45 106.154 48.45C106.561 48.45 106.887 48.3133 107.134 48.04C107.381 47.7667 107.504 47.4233 107.504 47.01V43.83H108.314V49ZM115.061 49.05C114.548 49.05 114.251 48.7933 114.171 48.28H114.161C113.735 48.8267 113.161 49.1 112.441 49.1C111.928 49.1 111.508 48.9767 111.181 48.73C110.855 48.4833 110.691 48.1267 110.691 47.66C110.691 47.42 110.728 47.2133 110.801 47.04C110.881 46.86 110.981 46.7167 111.101 46.61C111.221 46.4967 111.385 46.4 111.591 46.32C111.805 46.2333 112.008 46.17 112.201 46.13C112.395 46.0833 112.641 46.0367 112.941 45.99C113.135 45.9633 113.271 45.9433 113.351 45.93C113.438 45.91 113.548 45.8833 113.681 45.85C113.815 45.81 113.908 45.7667 113.961 45.72C114.015 45.6733 114.065 45.61 114.111 45.53C114.158 45.45 114.181 45.3567 114.181 45.25C114.181 44.9567 114.078 44.7333 113.871 44.58C113.671 44.42 113.388 44.34 113.021 44.34C112.188 44.34 111.758 44.72 111.731 45.48H110.951C110.965 44.9533 111.145 44.53 111.491 44.21C111.845 43.89 112.351 43.73 113.011 43.73C114.285 43.73 114.921 44.2767 114.921 45.37V47.83C114.921 48.0567 114.958 48.2167 115.031 48.31C115.111 48.4033 115.258 48.4267 115.471 48.38H115.501V48.97C115.368 49.0233 115.221 49.05 115.061 49.05ZM112.621 48.48C113.121 48.48 113.508 48.3367 113.781 48.05C114.055 47.7567 114.191 47.4367 114.191 47.09V46.21C113.945 46.3633 113.551 46.49 113.011 46.59C112.811 46.63 112.655 46.6633 112.541 46.69C112.428 46.71 112.298 46.75 112.151 46.81C112.005 46.8633 111.895 46.9233 111.821 46.99C111.748 47.0567 111.685 47.1467 111.631 47.26C111.578 47.3667 111.551 47.4933 111.551 47.64C111.551 48.2 111.908 48.48 112.621 48.48ZM116.909 43.83V44.69H116.929C117.095 44.4167 117.312 44.1967 117.579 44.03C117.845 43.8567 118.142 43.77 118.469 43.77C118.589 43.77 118.699 43.79 118.799 43.83V44.61H118.769C118.669 44.5767 118.549 44.56 118.409 44.56C117.995 44.56 117.642 44.7067 117.349 45C117.055 45.2867 116.909 45.6633 116.909 46.13V49H116.099V43.83H116.909ZM121.541 49.14C120.775 49.14 120.165 48.8833 119.711 48.37C119.265 47.85 119.041 47.2 119.041 46.42C119.041 45.6533 119.268 45.01 119.721 44.49C120.181 43.9633 120.771 43.7 121.491 43.7C122.251 43.7 122.838 43.9667 123.251 44.5C123.665 45.0267 123.871 45.73 123.871 46.61H119.871C119.905 47.1567 120.065 47.6033 120.351 47.95C120.645 48.29 121.041 48.46 121.541 48.46C122.315 48.46 122.791 48.1067 122.971 47.4H123.761C123.641 47.9533 123.388 48.3833 123.001 48.69C122.615 48.99 122.128 49.14 121.541 49.14ZM122.571 44.78C122.311 44.4867 121.951 44.34 121.491 44.34C121.031 44.34 120.665 44.4933 120.391 44.8C120.125 45.1067 119.958 45.5067 119.891 46H123.001C122.975 45.48 122.831 45.0733 122.571 44.78ZM130.275 48.36C129.822 48.88 129.218 49.14 128.465 49.14C127.712 49.14 127.105 48.88 126.645 48.36C126.192 47.84 125.965 47.1933 125.965 46.42C125.965 45.6467 126.192 45 126.645 44.48C127.105 43.96 127.712 43.7 128.465 43.7C129.218 43.7 129.822 43.96 130.275 44.48C130.728 45 130.955 45.6467 130.955 46.42C130.955 47.1933 130.728 47.84 130.275 48.36ZM127.225 47.89C127.518 48.27 127.932 48.46 128.465 48.46C128.998 48.46 129.408 48.27 129.695 47.89C129.982 47.5033 130.125 47.0133 130.125 46.42C130.125 45.82 129.978 45.33 129.685 44.95C129.398 44.5633 128.992 44.37 128.465 44.37C127.932 44.37 127.518 44.5633 127.225 44.95C126.938 45.3367 126.795 45.8267 126.795 46.42C126.795 47.0133 126.938 47.5033 127.225 47.89ZM132.573 43.83V44.51H132.593C132.993 43.9767 133.54 43.71 134.233 43.71C134.78 43.71 135.206 43.8533 135.513 44.14C135.82 44.4267 135.973 44.8367 135.973 45.37V49H135.163V45.44C135.163 45.1067 135.06 44.85 134.853 44.67C134.646 44.4833 134.36 44.39 133.993 44.39C133.58 44.39 133.24 44.5233 132.973 44.79C132.706 45.0567 132.573 45.4 132.573 45.82V49H131.763V43.83H132.573ZM138.668 49V41.85H139.478V49H138.668ZM144.631 48.36C144.177 48.88 143.574 49.14 142.821 49.14C142.067 49.14 141.461 48.88 141.001 48.36C140.547 47.84 140.321 47.1933 140.321 46.42C140.321 45.6467 140.547 45 141.001 44.48C141.461 43.96 142.067 43.7 142.821 43.7C143.574 43.7 144.177 43.96 144.631 44.48C145.084 45 145.311 45.6467 145.311 46.42C145.311 47.1933 145.084 47.84 144.631 48.36ZM141.581 47.89C141.874 48.27 142.287 48.46 142.821 48.46C143.354 48.46 143.764 48.27 144.051 47.89C144.337 47.5033 144.481 47.0133 144.481 46.42C144.481 45.82 144.334 45.33 144.041 44.95C143.754 44.5633 143.347 44.37 142.821 44.37C142.287 44.37 141.874 44.5633 141.581 44.95C141.294 45.3367 141.151 45.8267 141.151 46.42C141.151 47.0133 141.294 47.5033 141.581 47.89ZM146.928 43.83V44.51H146.948C147.348 43.9767 147.895 43.71 148.588 43.71C149.135 43.71 149.562 43.8533 149.868 44.14C150.175 44.4267 150.328 44.8367 150.328 45.37V49H149.518V45.44C149.518 45.1067 149.415 44.85 149.208 44.67C149.002 44.4833 148.715 44.39 148.348 44.39C147.935 44.39 147.595 44.5233 147.328 44.79C147.062 45.0567 146.928 45.4 146.928 45.82V49H146.118V43.83H146.928ZM153.462 50.72C152.802 50.72 152.282 50.5933 151.902 50.34C151.528 50.0933 151.318 49.7433 151.272 49.29H152.022C152.095 49.8167 152.568 50.08 153.442 50.08C154.428 50.08 154.922 49.6367 154.922 48.75V48.02H154.902C154.695 48.2867 154.475 48.4867 154.242 48.62C154.008 48.7533 153.718 48.82 153.372 48.82C152.705 48.82 152.162 48.58 151.742 48.1C151.322 47.62 151.112 47.0067 151.112 46.26C151.112 45.48 151.322 44.86 151.742 44.4C152.168 43.94 152.695 43.71 153.322 43.71C154.002 43.71 154.528 43.97 154.902 44.49H154.922V43.83H155.732V48.72C155.732 49.38 155.528 49.8767 155.122 50.21C154.722 50.55 154.168 50.72 153.462 50.72ZM153.412 48.14C154.458 48.14 154.982 47.5 154.982 46.22C154.982 45 154.455 44.39 153.402 44.39C152.928 44.39 152.565 44.56 152.312 44.9C152.065 45.24 151.942 45.6967 151.942 46.27C151.942 46.8433 152.068 47.3 152.322 47.64C152.575 47.9733 152.938 48.14 153.412 48.14ZM159.041 49.14C158.275 49.14 157.665 48.8833 157.211 48.37C156.765 47.85 156.541 47.2 156.541 46.42C156.541 45.6533 156.768 45.01 157.221 44.49C157.681 43.9633 158.271 43.7 158.991 43.7C159.751 43.7 160.338 43.9667 160.751 44.5C161.165 45.0267 161.371 45.73 161.371 46.61H157.371C157.405 47.1567 157.565 47.6033 157.851 47.95C158.145 48.29 158.541 48.46 159.041 48.46C159.815 48.46 160.291 48.1067 160.471 47.4H161.261C161.141 47.9533 160.888 48.3833 160.501 48.69C160.115 48.99 159.628 49.14 159.041 49.14ZM160.071 44.78C159.811 44.4867 159.451 44.34 158.991 44.34C158.531 44.34 158.165 44.4933 157.891 44.8C157.625 45.1067 157.458 45.5067 157.391 46H160.501C160.475 45.48 160.331 45.0733 160.071 44.78ZM164.123 49.15C163.417 49.15 162.867 48.9933 162.473 48.68C162.087 48.36 161.873 47.9067 161.833 47.32H162.663C162.757 48.0867 163.25 48.47 164.143 48.47C164.55 48.47 164.85 48.3933 165.043 48.24C165.243 48.08 165.343 47.8733 165.343 47.62C165.343 47.3467 165.247 47.15 165.053 47.03C164.86 46.91 164.507 46.7967 163.993 46.69C163.78 46.6433 163.61 46.6067 163.483 46.58C163.363 46.5467 163.217 46.5033 163.043 46.45C162.87 46.39 162.733 46.3267 162.633 46.26C162.54 46.1867 162.443 46.1 162.343 46C162.243 45.9 162.17 45.7767 162.123 45.63C162.083 45.4833 162.063 45.32 162.063 45.14C162.063 44.7 162.223 44.3533 162.543 44.1C162.87 43.8467 163.33 43.72 163.923 43.72C165.15 43.72 165.827 44.26 165.953 45.34H165.123C165.083 45 164.967 44.7533 164.773 44.6C164.58 44.44 164.29 44.36 163.903 44.36C163.55 44.36 163.287 44.43 163.113 44.57C162.947 44.7033 162.863 44.88 162.863 45.1C162.863 45.3533 162.963 45.5333 163.163 45.64C163.363 45.74 163.727 45.8433 164.253 45.95C164.573 46.0167 164.823 46.08 165.003 46.14C165.19 46.1933 165.383 46.28 165.583 46.4C165.783 46.5133 165.93 46.6667 166.023 46.86C166.117 47.0533 166.163 47.2933 166.163 47.58C166.163 48.0867 165.977 48.4767 165.603 48.75C165.23 49.0167 164.737 49.15 164.123 49.15ZM166.511 44.49V43.83H167.261V42.2H168.071V43.83H169.071V44.49H168.071V47.85C168.071 48.17 168.244 48.33 168.591 48.33C168.738 48.33 168.881 48.3067 169.021 48.26H169.051V48.96C168.831 49.0067 168.614 49.03 168.401 49.03C167.641 49.03 167.261 48.6967 167.261 48.03V44.49H166.511ZM173.459 49.15C172.753 49.15 172.203 48.9933 171.809 48.68C171.423 48.36 171.209 47.9067 171.169 47.32H171.999C172.093 48.0867 172.586 48.47 173.479 48.47C173.886 48.47 174.186 48.3933 174.379 48.24C174.579 48.08 174.679 47.8733 174.679 47.62C174.679 47.3467 174.583 47.15 174.389 47.03C174.196 46.91 173.843 46.7967 173.329 46.69C173.116 46.6433 172.946 46.6067 172.819 46.58C172.699 46.5467 172.553 46.5033 172.379 46.45C172.206 46.39 172.069 46.3267 171.969 46.26C171.876 46.1867 171.779 46.1 171.679 46C171.579 45.9 171.506 45.7767 171.459 45.63C171.419 45.4833 171.399 45.32 171.399 45.14C171.399 44.7 171.559 44.3533 171.879 44.1C172.206 43.8467 172.666 43.72 173.259 43.72C174.486 43.72 175.163 44.26 175.289 45.34H174.459C174.419 45 174.303 44.7533 174.109 44.6C173.916 44.44 173.626 44.36 173.239 44.36C172.886 44.36 172.623 44.43 172.449 44.57C172.283 44.7033 172.199 44.88 172.199 45.1C172.199 45.3533 172.299 45.5333 172.499 45.64C172.699 45.74 173.063 45.8433 173.589 45.95C173.909 46.0167 174.159 46.08 174.339 46.14C174.526 46.1933 174.719 46.28 174.919 46.4C175.119 46.5133 175.266 46.6667 175.359 46.86C175.453 47.0533 175.499 47.2933 175.499 47.58C175.499 48.0867 175.313 48.4767 174.939 48.75C174.566 49.0167 174.073 49.15 173.459 49.15ZM175.847 44.49V43.83H176.597V42.2H177.407V43.83H178.407V44.49H177.407V47.85C177.407 48.17 177.58 48.33 177.927 48.33C178.074 48.33 178.217 48.3067 178.357 48.26H178.387V48.96C178.167 49.0067 177.95 49.03 177.737 49.03C176.977 49.03 176.597 48.6967 176.597 48.03V44.49H175.847ZM180.053 43.83V44.69H180.073C180.24 44.4167 180.457 44.1967 180.723 44.03C180.99 43.8567 181.287 43.77 181.613 43.77C181.733 43.77 181.843 43.79 181.943 43.83V44.61H181.913C181.813 44.5767 181.693 44.56 181.553 44.56C181.14 44.56 180.787 44.7067 180.493 45C180.2 45.2867 180.053 45.6633 180.053 46.13V49H179.243V43.83H180.053ZM184.686 49.14C183.919 49.14 183.309 48.8833 182.856 48.37C182.409 47.85 182.186 47.2 182.186 46.42C182.186 45.6533 182.412 45.01 182.866 44.49C183.326 43.9633 183.916 43.7 184.636 43.7C185.396 43.7 185.982 43.9667 186.396 44.5C186.809 45.0267 187.016 45.73 187.016 46.61H183.016C183.049 47.1567 183.209 47.6033 183.496 47.95C183.789 48.29 184.186 48.46 184.686 48.46C185.459 48.46 185.936 48.1067 186.116 47.4H186.906C186.786 47.9533 186.532 48.3833 186.146 48.69C185.759 48.99 185.272 49.14 184.686 49.14ZM185.716 44.78C185.456 44.4867 185.096 44.34 184.636 44.34C184.176 44.34 183.809 44.4933 183.536 44.8C183.269 45.1067 183.102 45.5067 183.036 46H186.146C186.119 45.48 185.976 45.0733 185.716 44.78ZM191.868 49.05C191.354 49.05 191.058 48.7933 190.978 48.28H190.968C190.541 48.8267 189.968 49.1 189.248 49.1C188.734 49.1 188.314 48.9767 187.988 48.73C187.661 48.4833 187.498 48.1267 187.498 47.66C187.498 47.42 187.534 47.2133 187.608 47.04C187.688 46.86 187.788 46.7167 187.908 46.61C188.028 46.4967 188.191 46.4 188.398 46.32C188.611 46.2333 188.814 46.17 189.008 46.13C189.201 46.0833 189.448 46.0367 189.748 45.99C189.941 45.9633 190.078 45.9433 190.158 45.93C190.244 45.91 190.354 45.8833 190.488 45.85C190.621 45.81 190.714 45.7667 190.768 45.72C190.821 45.6733 190.871 45.61 190.918 45.53C190.964 45.45 190.988 45.3567 190.988 45.25C190.988 44.9567 190.884 44.7333 190.678 44.58C190.478 44.42 190.194 44.34 189.828 44.34C188.994 44.34 188.564 44.72 188.538 45.48H187.758C187.771 44.9533 187.951 44.53 188.298 44.21C188.651 43.89 189.158 43.73 189.818 43.73C191.091 43.73 191.728 44.2767 191.728 45.37V47.83C191.728 48.0567 191.764 48.2167 191.838 48.31C191.918 48.4033 192.064 48.4267 192.278 48.38H192.308V48.97C192.174 49.0233 192.028 49.05 191.868 49.05ZM189.428 48.48C189.928 48.48 190.314 48.3367 190.588 48.05C190.861 47.7567 190.998 47.4367 190.998 47.09V46.21C190.751 46.3633 190.358 46.49 189.818 46.59C189.618 46.63 189.461 46.6633 189.348 46.69C189.234 46.71 189.104 46.75 188.958 46.81C188.811 46.8633 188.701 46.9233 188.628 46.99C188.554 47.0567 188.491 47.1467 188.438 47.26C188.384 47.3667 188.358 47.4933 188.358 47.64C188.358 48.2 188.714 48.48 189.428 48.48ZM196.305 49L194.475 46.21L193.715 46.93V49H192.905V41.85H193.715V46.04L195.985 43.83H197.015L195.035 45.69L197.255 49H196.305Z" fill="#424242"/>
</g>
<defs>
<filter id="filter0_d_1_4296" x="51" y="21" width="157" height="44" filterUnits="userSpaceOnUse" color-interpolation-filters="sRGB">
<feFlood flood-opacity="0" result="BackgroundImageFix"/>
<feColorMatrix in="SourceAlpha" type="matrix" values="0 0 0 0 0 0 0 0 0 0 0 0 0 0 0 0 0 0 127 0" result="hardAlpha"/>
<feOffset dy="1"/>
<feGaussianBlur stdDeviation="1"/>
<feComposite in2="hardAlpha" operator="out"/>
<feColorMatrix type="matrix" values="0 0 0 0 0 0 0 0 0 0 0 0 0 0 0 0 0 0 0.1 0"/>
<feBlend mode="normal" in2="BackgroundImageFix" result="effect1_dropShadow_1_4296"/>
<feBlend mode="normal" in="SourceGraphic" in2="effect1_dropShadow_1_4296" result="shape"/>
</filter>
<filter id="filter1_d_1_4296" x="38" y="12" width="183" height="56" filterUnits="userSpaceOnUse" color-interpolation-filters="sRGB">
<feFlood flood-opacity="0" result="BackgroundImageFix"/>
<feColorMatrix in="SourceAlpha" type="matrix" values="0 0 0 0 0 0 0 0 0 0 0 0 0 0 0 0 0 0 127 0" result="hardAlpha"/>
<feMorphology radius="1" operator="erode" in="SourceAlpha" result="effect1_dropShadow_1_4296"/>
<feOffset dy="3"/>
<feGaussianBlur stdDeviation="4"/>
<feComposite in2="hardAlpha" operator="out"/>
<feColorMatrix type="matrix" values="0 0 0 0 0 0 0 0 0 0 0 0 0 0 0 0 0 0 0.1 0"/>
<feBlend mode="normal" in2="BackgroundImageFix" result="effect1_dropShadow_1_4296"/>
<feBlend mode="normal" in="SourceGraphic" in2="effect1_dropShadow_1_4296" result="shape"/>
</filter>
</defs>
</svg>
