<svg width="6" height="6" viewBox="0 0 6 6" fill="none" xmlns="http://www.w3.org/2000/svg">
<path d="M3.74219 2.99219L5.42969 1.32031C5.52344 1.22656 5.52344 1.05469 5.42969 0.960938L5.03906 0.570312C4.94531 0.476562 4.77344 0.476562 4.67969 0.570312L3.00781 2.25781L1.32031 0.570312C1.22656 0.476562 1.05469 0.476562 0.960938 0.570312L0.570312 0.960938C0.476562 1.05469 0.476562 1.22656 0.570312 1.32031L2.25781 2.99219L0.570312 4.67969C0.476562 4.77344 0.476562 4.94531 0.570312 5.03906L0.960938 5.42969C1.05469 5.52344 1.22656 5.52344 1.32031 5.42969L3.00781 3.74219L4.67969 5.42969C4.77344 5.52344 4.94531 5.52344 5.03906 5.42969L5.42969 5.03906C5.52344 4.94531 5.52344 4.77344 5.42969 4.67969L3.74219 2.99219Z" fill="#DF2A4A"/>
</svg>
