<svg width="52" height="80" viewBox="0 0 52 80" fill="none" xmlns="http://www.w3.org/2000/svg">
<path d="M27.2895 6.26334C27.2895 9.72238 24.8509 12.5267 21.8432 12.5267C18.8354 12.5267 16.3968 9.72238 16.3968 6.26334C16.3968 2.8043 18.8354 0 21.8432 0C24.8509 0 27.2895 2.8043 27.2895 6.26334Z" fill="white"/>
<path d="M7.13792 16.3391C11.0482 16.3391 14.2182 12.8035 14.2182 8.44189C14.2182 4.08027 11.0482 0.544638 7.13792 0.544638C3.22758 0.544638 0.0576172 4.08027 0.0576172 8.44189C0.0576172 12.8035 3.22758 16.3391 7.13792 16.3391Z" fill="white"/>
<path d="M21.8432 79.7895C32.4636 78.4213 38.4578 66.7195 44.1765 44.3894C49.8952 22.0592 31.3775 15.2512 24.0249 14.9789C16.6723 14.7066 7.49161 15.9394 6.32255 24.5101C5.46624 30.7851 7.44853 35.3419 9.29626 39.5895C10.9759 43.4517 12.5444 47.0583 11.7673 51.4683C11.3817 53.6578 10.2058 55.4755 8.95533 57.4075C7.16876 60.1679 5.23168 63.1618 5.23168 67.8075C5.23168 75.7047 11.2227 81.1578 21.8432 79.7895Z" fill="white"/>
<path d="M33.8252 15.2499C36.5324 15.2499 38.7269 12.6894 38.7269 9.53117C38.7269 6.37291 36.5324 3.81247 33.8252 3.81247C31.118 3.81247 28.9234 6.37291 28.9234 9.53117C28.9234 12.6894 31.118 15.2499 33.8252 15.2499Z" fill="white"/>
<path d="M47.3018 16.8519C46.6013 19.4668 44.2669 21.1132 42.0878 20.5292C39.9088 19.9455 38.7099 17.3524 39.4109 14.7374C40.1114 12.1225 42.4458 10.476 44.6249 11.0598C46.804 11.6438 48.0028 14.2369 47.3018 16.8519Z" fill="white"/>
<path d="M46.2157 28.3185C47.9092 29.2961 50.1963 28.505 51.3244 26.5511C52.4519 24.5975 51.994 22.2211 50.3005 21.2436C48.6076 20.266 46.3205 21.0574 45.1924 23.011C44.0643 24.9648 44.5228 27.341 46.2157 28.3185Z" fill="white"/>
</svg>
