<svg width="71" height="48" viewBox="0 0 71 48" fill="none" xmlns="http://www.w3.org/2000/svg">
<path d="M70.5 5.05974C70.5 2.27686 68.2466 0 65.4922 0L5.50803 0C2.75382 0.000236017 0.5 2.27686 0.5 5.05974L0.5 42.9403C0.5 45.7231 2.75382 48 5.50803 48L65.4922 48C68.2466 48 70.5 45.7234 70.5 42.9403V5.05974Z" fill="#9D86BD"/>
<path d="M69.5 41.5031L35.4999 18.8823L1.5 41.5031" stroke="#181221" stroke-width="1.8" stroke-linecap="round"/>
<path d="M32.6829 31.1962C34.3634 32.4142 36.6364 32.4142 38.3168 31.1962L70.5 7.86956V5.05973C70.5 2.27686 68.2466 0 65.4922 0L5.50803 0C2.75382 0.000236017 0.5 2.27686 0.5 5.05973L0.5 7.86956L32.6829 31.1962Z" fill="#614884"/>
<path d="M32.8943 27.4343C34.4802 28.4593 36.5196 28.4593 38.1055 27.4343L70.5 6.49637V5.05973C70.5 2.27686 68.2466 0 65.4922 0L5.50803 0C2.75382 0.000236017 0.5 2.27686 0.5 5.05973L0.5 6.49637L32.8943 27.4343Z" fill="#E4DEED"/>
</svg>
